<svg width="104" height="20" viewBox="0 0 104 20" fill="none" xmlns="http://www.w3.org/2000/svg">
<path d="M18.3068 8.97274L14.7912 12.0063L15.8623 16.5431C15.9214 16.7893 15.9061 17.0476 15.8185 17.2852C15.7309 17.5229 15.5748 17.7292 15.37 17.8782C15.1652 18.0272 14.9208 18.1121 14.6678 18.1222C14.4147 18.1324 14.1643 18.0673 13.9482 17.9352L10.0029 15.5071L6.05522 17.9352C5.83915 18.0666 5.58906 18.131 5.33643 18.1205C5.0838 18.11 4.83993 18.0249 4.63554 17.8761C4.43115 17.7272 4.27536 17.5212 4.18781 17.284C4.10025 17.0468 4.08484 16.789 4.14351 16.5431L5.21851 12.0063L1.70288 8.97274C1.51171 8.80752 1.37345 8.58963 1.30537 8.34629C1.23729 8.10296 1.2424 7.84496 1.32008 7.60452C1.39776 7.36407 1.54455 7.15184 1.74212 6.99432C1.9397 6.83681 2.1793 6.74099 2.43101 6.71884L7.04038 6.34696L8.81851 2.04384C8.91475 1.80932 9.07856 1.60872 9.28911 1.46754C9.49965 1.32636 9.74743 1.25098 10.0009 1.25098C10.2544 1.25098 10.5022 1.32636 10.7127 1.46754C10.9233 1.60872 11.0871 1.80932 11.1833 2.04384L12.9607 6.34696L17.5701 6.71884C17.8223 6.74017 18.0626 6.83545 18.2609 6.99275C18.4592 7.15005 18.6066 7.36236 18.6848 7.6031C18.7629 7.84383 18.7683 8.10228 18.7003 8.34606C18.6322 8.58984 18.4937 8.80811 18.3021 8.97352L18.3068 8.97274Z" fill="#FFB919"/>
<path d="M39.3068 8.97274L35.7912 12.0063L36.8623 16.5431C36.9214 16.7893 36.9061 17.0476 36.8185 17.2852C36.7309 17.5229 36.5748 17.7292 36.37 17.8782C36.1652 18.0272 35.9208 18.1121 35.6678 18.1222C35.4147 18.1324 35.1643 18.0673 34.9482 17.9352L31.0029 15.5071L27.0552 17.9352C26.8392 18.0666 26.5891 18.131 26.3364 18.1205C26.0838 18.11 25.8399 18.0249 25.6355 17.8761C25.4311 17.7272 25.2754 17.5212 25.1878 17.284C25.1003 17.0468 25.0848 16.789 25.1435 16.5431L26.2185 12.0063L22.7029 8.97274C22.5117 8.80752 22.3734 8.58963 22.3054 8.34629C22.2373 8.10296 22.2424 7.84496 22.3201 7.60452C22.3978 7.36407 22.5445 7.15184 22.7421 6.99432C22.9397 6.83681 23.1793 6.74099 23.431 6.71884L28.0404 6.34696L29.8185 2.04384C29.9148 1.80932 30.0786 1.60872 30.2891 1.46754C30.4997 1.32636 30.7474 1.25098 31.0009 1.25098C31.2544 1.25098 31.5022 1.32636 31.7127 1.46754C31.9233 1.60872 32.0871 1.80932 32.1833 2.04384L33.9607 6.34696L38.5701 6.71884C38.8223 6.74017 39.0626 6.83545 39.2609 6.99275C39.4592 7.15005 39.6066 7.36236 39.6848 7.6031C39.7629 7.84383 39.7683 8.10228 39.7003 8.34606C39.6322 8.58984 39.4937 8.80811 39.3021 8.97352L39.3068 8.97274Z" fill="#FFB919"/>
<path d="M60.3068 8.97274L56.7912 12.0063L57.8623 16.5431C57.9214 16.7893 57.9061 17.0476 57.8185 17.2852C57.7309 17.5229 57.5748 17.7292 57.37 17.8782C57.1652 18.0272 56.9208 18.1121 56.6678 18.1222C56.4147 18.1324 56.1643 18.0673 55.9482 17.9352L52.0029 15.5071L48.0552 17.9352C47.8392 18.0666 47.5891 18.131 47.3364 18.1205C47.0838 18.11 46.8399 18.0249 46.6355 17.8761C46.4311 17.7272 46.2754 17.5212 46.1878 17.284C46.1003 17.0468 46.0848 16.789 46.1435 16.5431L47.2185 12.0063L43.7029 8.97274C43.5117 8.80752 43.3734 8.58963 43.3054 8.34629C43.2373 8.10296 43.2424 7.84496 43.3201 7.60452C43.3978 7.36407 43.5445 7.15184 43.7421 6.99432C43.9397 6.83681 44.1793 6.74099 44.431 6.71884L49.0404 6.34696L50.8185 2.04384C50.9148 1.80932 51.0786 1.60872 51.2891 1.46754C51.4997 1.32636 51.7474 1.25098 52.0009 1.25098C52.2544 1.25098 52.5022 1.32636 52.7127 1.46754C52.9233 1.60872 53.0871 1.80932 53.1833 2.04384L54.9607 6.34696L59.5701 6.71884C59.8223 6.74017 60.0626 6.83545 60.2609 6.99275C60.4592 7.15005 60.6066 7.36236 60.6848 7.6031C60.7629 7.84383 60.7683 8.10228 60.7003 8.34606C60.6322 8.58984 60.4937 8.80811 60.3021 8.97352L60.3068 8.97274Z" fill="#FFB919"/>
<path d="M81.3068 8.97274L77.7912 12.0063L78.8623 16.5431C78.9214 16.7893 78.9061 17.0476 78.8185 17.2852C78.7309 17.5229 78.5748 17.7292 78.37 17.8782C78.1652 18.0272 77.9208 18.1121 77.6678 18.1222C77.4147 18.1324 77.1643 18.0673 76.9482 17.9352L73.0029 15.5071L69.0552 17.9352C68.8392 18.0666 68.5891 18.131 68.3364 18.1205C68.0838 18.11 67.8399 18.0249 67.6355 17.8761C67.4311 17.7272 67.2754 17.5212 67.1878 17.284C67.1003 17.0468 67.0848 16.789 67.1435 16.5431L68.2185 12.0063L64.7029 8.97274C64.5117 8.80752 64.3734 8.58963 64.3054 8.34629C64.2373 8.10296 64.2424 7.84496 64.3201 7.60452C64.3978 7.36407 64.5445 7.15184 64.7421 6.99432C64.9397 6.83681 65.1793 6.74099 65.431 6.71884L70.0404 6.34696L71.8185 2.04384C71.9148 1.80932 72.0786 1.60872 72.2891 1.46754C72.4997 1.32636 72.7474 1.25098 73.0009 1.25098C73.2544 1.25098 73.5022 1.32636 73.7127 1.46754C73.9233 1.60872 74.0871 1.80932 74.1833 2.04384L75.9607 6.34696L80.5701 6.71884C80.8223 6.74017 81.0626 6.83545 81.2609 6.99275C81.4592 7.15005 81.6066 7.36236 81.6848 7.6031C81.7629 7.84383 81.7683 8.10228 81.7003 8.34606C81.6322 8.58984 81.4937 8.80811 81.3021 8.97352L81.3068 8.97274Z" fill="#FFB919"/>
<path d="M102.307 8.97274L98.7912 12.0063L99.8623 16.5431C99.9214 16.7893 99.9061 17.0476 99.8185 17.2852C99.7309 17.5229 99.5748 17.7292 99.37 17.8782C99.1652 18.0272 98.9208 18.1121 98.6678 18.1222C98.4147 18.1324 98.1643 18.0673 97.9482 17.9352L94.0029 15.5071L90.0552 17.9352C89.8392 18.0666 89.5891 18.131 89.3364 18.1205C89.0838 18.11 88.8399 18.0249 88.6355 17.8761C88.4311 17.7272 88.2754 17.5212 88.1878 17.284C88.1003 17.0468 88.0848 16.789 88.1435 16.5431L89.2185 12.0063L85.7029 8.97274C85.5117 8.80752 85.3734 8.58963 85.3054 8.34629C85.2373 8.10296 85.2424 7.84496 85.3201 7.60452C85.3978 7.36407 85.5445 7.15184 85.7421 6.99432C85.9397 6.83681 86.1793 6.74099 86.431 6.71884L91.0404 6.34696L92.8185 2.04384C92.9148 1.80932 93.0786 1.60872 93.2891 1.46754C93.4997 1.32636 93.7474 1.25098 94.0009 1.25098C94.2544 1.25098 94.5022 1.32636 94.7127 1.46754C94.9233 1.60872 95.0871 1.80932 95.1833 2.04384L96.9607 6.34696L101.57 6.71884C101.822 6.74017 102.063 6.83545 102.261 6.99275C102.459 7.15005 102.607 7.36236 102.685 7.6031C102.763 7.84383 102.768 8.10228 102.7 8.34606C102.632 8.58984 102.494 8.80811 102.302 8.97352L102.307 8.97274Z" fill="#FFB919"/>
</svg>
