<svg width="104" height="20" viewBox="0 0 104 20" fill="none" xmlns="http://www.w3.org/2000/svg">
<path d="M18.3068 8.97274L14.7912 12.0063L15.8623 16.5431C15.9214 16.7893 15.9061 17.0476 15.8185 17.2852C15.7309 17.5229 15.5748 17.7292 15.37 17.8782C15.1652 18.0272 14.9208 18.1121 14.6678 18.1222C14.4147 18.1324 14.1643 18.0673 13.9482 17.9352L10.0029 15.5071L6.05522 17.9352C5.83915 18.0666 5.58906 18.131 5.33643 18.1205C5.0838 18.11 4.83993 18.0249 4.63554 17.8761C4.43115 17.7272 4.27536 17.5212 4.18781 17.284C4.10025 17.0468 4.08484 16.789 4.14351 16.5431L5.21851 12.0063L1.70288 8.97274C1.51171 8.80752 1.37345 8.58963 1.30537 8.34629C1.23729 8.10296 1.2424 7.84496 1.32008 7.60452C1.39776 7.36407 1.54455 7.15184 1.74212 6.99432C1.9397 6.83681 2.1793 6.74099 2.43101 6.71884L7.04038 6.34696L8.81851 2.04384C8.91475 1.80932 9.07856 1.60872 9.28911 1.46754C9.49965 1.32636 9.74743 1.25098 10.0009 1.25098C10.2544 1.25098 10.5022 1.32636 10.7127 1.46754C10.9233 1.60872 11.0871 1.80932 11.1833 2.04384L12.9607 6.34696L17.5701 6.71884C17.8223 6.74017 18.0626 6.83545 18.2609 6.99275C18.4592 7.15005 18.6066 7.36236 18.6848 7.6031C18.7629 7.84383 18.7683 8.10228 18.7003 8.34606C18.6322 8.58984 18.4937 8.80811 18.3021 8.97352L18.3068 8.97274Z" fill="#FFB919"/>
<path d="M39.3068 8.97274L35.7912 12.0063L36.8623 16.5431C36.9214 16.7893 36.9061 17.0476 36.8185 17.2852C36.7309 17.5229 36.5748 17.7292 36.37 17.8782C36.1652 18.0272 35.9208 18.1121 35.6678 18.1222C35.4147 18.1324 35.1643 18.0673 34.9482 17.9352L31.0029 15.5071L27.0552 17.9352C26.8392 18.0666 26.5891 18.131 26.3364 18.1205C26.0838 18.11 25.8399 18.0249 25.6355 17.8761C25.4311 17.7272 25.2754 17.5212 25.1878 17.284C25.1003 17.0468 25.0848 16.789 25.1435 16.5431L26.2185 12.0063L22.7029 8.97274C22.5117 8.80752 22.3734 8.58963 22.3054 8.34629C22.2373 8.10296 22.2424 7.84496 22.3201 7.60452C22.3978 7.36407 22.5445 7.15184 22.7421 6.99432C22.9397 6.83681 23.1793 6.74099 23.431 6.71884L28.0404 6.34696L29.8185 2.04384C29.9148 1.80932 30.0786 1.60872 30.2891 1.46754C30.4997 1.32636 30.7474 1.25098 31.0009 1.25098C31.2544 1.25098 31.5022 1.32636 31.7127 1.46754C31.9233 1.60872 32.0871 1.80932 32.1833 2.04384L33.9607 6.34696L38.5701 6.71884C38.8223 6.74017 39.0626 6.83545 39.2609 6.99275C39.4592 7.15005 39.6066 7.36236 39.6848 7.6031C39.7629 7.84383 39.7683 8.10228 39.7003 8.34606C39.6322 8.58984 39.4937 8.80811 39.3021 8.97352L39.3068 8.97274Z" fill="#FFB919"/>
<rect width="20" height="20" transform="translate(42)" fill="white"/>
<path d="M58.6264 9.75978L58.63 9.75917L56.4645 11.6278L56.2348 11.826L56.3045 12.1212L57.3756 16.6579L57.3761 16.6597C57.4121 16.8099 57.4028 16.9674 57.3494 17.1123C57.296 17.2572 57.2008 17.383 57.0759 17.4738C56.951 17.5647 56.802 17.6164 56.6477 17.6226C56.4937 17.6288 56.3413 17.5893 56.2097 17.5091C56.2095 17.5089 56.2092 17.5088 56.2089 17.5086L52.2649 15.0813L52.003 14.9201L51.7409 15.0812L47.7955 17.508C47.7953 17.5081 47.795 17.5083 47.7947 17.5085C47.6631 17.5882 47.511 17.6273 47.3573 17.6209C47.2032 17.6145 47.0545 17.5626 46.9299 17.4719C46.8052 17.3811 46.7103 17.2555 46.6569 17.1109C46.6035 16.9662 46.5941 16.809 46.6299 16.6591L46.63 16.6583L47.705 12.1216L47.775 11.8262L47.5452 11.6278L44.0298 8.59445C44.0298 8.59444 44.0298 8.59442 44.0298 8.59441C43.913 8.49343 43.8285 8.36028 43.7869 8.21158C43.7453 8.06286 43.7484 7.90517 43.7959 7.75822C43.8433 7.61126 43.9331 7.48155 44.0538 7.38528C44.1741 7.28935 44.32 7.23086 44.4732 7.21705L49.0806 6.84534L49.3856 6.82073L49.5025 6.53791L51.2806 2.23479L51.2811 2.23367C51.3397 2.0909 51.4394 1.96877 51.5676 1.88282C51.6958 1.79687 51.8466 1.75098 52.0009 1.75098C52.1553 1.75098 52.3061 1.79687 52.4343 1.88282C52.5625 1.96877 52.6622 2.0909 52.7208 2.23367L52.7212 2.23471L54.4986 6.53784L54.6154 6.82073L54.9205 6.84534L59.5279 7.21706C59.5282 7.21708 59.5285 7.21711 59.5288 7.21713C59.6826 7.2303 59.8292 7.2885 59.9501 7.38447C60.0713 7.4806 60.1615 7.61037 60.2092 7.7575C60.257 7.90463 60.2603 8.06259 60.2187 8.21158C60.1771 8.36058 60.0924 8.49398 59.9753 8.59507L58.6264 9.75978Z" stroke="#FFB919"/>
<rect width="20" height="20" transform="translate(63)" fill="white"/>
<path d="M79.6264 9.75978L79.63 9.75917L77.4645 11.6278L77.2348 11.826L77.3045 12.1212L78.3756 16.6579L78.3761 16.6597C78.4121 16.8099 78.4028 16.9674 78.3494 17.1123C78.296 17.2572 78.2008 17.383 78.0759 17.4738C77.951 17.5647 77.802 17.6164 77.6477 17.6226C77.4937 17.6288 77.3413 17.5893 77.2097 17.5091C77.2095 17.5089 77.2092 17.5088 77.2089 17.5086L73.2649 15.0813L73.003 14.9201L72.7409 15.0812L68.7955 17.508C68.7953 17.5081 68.795 17.5083 68.7947 17.5085C68.6631 17.5882 68.511 17.6273 68.3573 17.6209C68.2032 17.6145 68.0545 17.5626 67.9299 17.4719C67.8052 17.3811 67.7103 17.2555 67.6569 17.1109C67.6035 16.9662 67.5941 16.809 67.6299 16.6591L67.63 16.6583L68.705 12.1216L68.775 11.8262L68.5452 11.6278L65.0298 8.59445C65.0298 8.59444 65.0298 8.59442 65.0298 8.59441C64.913 8.49343 64.8285 8.36028 64.7869 8.21158C64.7453 8.06286 64.7484 7.90517 64.7959 7.75822C64.8433 7.61126 64.9331 7.48155 65.0538 7.38528C65.1741 7.28935 65.32 7.23086 65.4732 7.21705L70.0806 6.84534L70.3856 6.82073L70.5025 6.53791L72.2806 2.23479L72.2811 2.23367C72.3397 2.0909 72.4394 1.96877 72.5676 1.88282C72.6958 1.79687 72.8466 1.75098 73.0009 1.75098C73.1553 1.75098 73.3061 1.79687 73.4343 1.88282C73.5625 1.96877 73.6622 2.0909 73.7208 2.23367L73.7212 2.23471L75.4986 6.53784L75.6154 6.82073L75.9205 6.84534L80.5279 7.21706C80.5282 7.21708 80.5285 7.21711 80.5288 7.21713C80.6826 7.2303 80.8292 7.2885 80.9501 7.38447C81.0713 7.4806 81.1615 7.61037 81.2092 7.7575C81.257 7.90463 81.2603 8.06259 81.2187 8.21158C81.1771 8.36058 81.0924 8.49398 80.9753 8.59507L79.6264 9.75978Z" stroke="#FFB919"/>
<rect width="20" height="20" transform="translate(84)" fill="white"/>
<path d="M100.626 9.75978L100.63 9.75917L98.4645 11.6278L98.2348 11.826L98.3045 12.1212L99.3756 16.6579L99.3761 16.6597C99.4121 16.8099 99.4028 16.9674 99.3494 17.1123C99.296 17.2572 99.2008 17.383 99.0759 17.4738C98.951 17.5647 98.802 17.6164 98.6477 17.6226C98.4937 17.6288 98.3413 17.5893 98.2097 17.5091C98.2095 17.5089 98.2092 17.5088 98.2089 17.5086L94.2649 15.0813L94.003 14.9201L93.7409 15.0812L89.7955 17.508C89.7953 17.5081 89.795 17.5083 89.7947 17.5085C89.6631 17.5882 89.511 17.6273 89.3573 17.6209C89.2032 17.6145 89.0545 17.5626 88.9299 17.4719C88.8052 17.3811 88.7103 17.2555 88.6569 17.1109C88.6035 16.9662 88.5941 16.809 88.6299 16.6591L88.63 16.6583L89.705 12.1216L89.775 11.8262L89.5452 11.6278L86.0298 8.59445C86.0298 8.59444 86.0298 8.59442 86.0298 8.59441C85.913 8.49343 85.8285 8.36028 85.7869 8.21158C85.7453 8.06286 85.7484 7.90517 85.7959 7.75822C85.8433 7.61126 85.9331 7.48155 86.0538 7.38528C86.1741 7.28935 86.32 7.23086 86.4732 7.21705L91.0806 6.84534L91.3856 6.82073L91.5025 6.53791L93.2806 2.23479L93.2811 2.23367C93.3397 2.0909 93.4394 1.96877 93.5676 1.88282C93.6958 1.79687 93.8466 1.75098 94.0009 1.75098C94.1553 1.75098 94.3061 1.79687 94.4343 1.88282C94.5625 1.96877 94.6622 2.0909 94.7208 2.23367L94.7212 2.23471L96.4986 6.53784L96.6154 6.82073L96.9205 6.84534L101.528 7.21706C101.528 7.21708 101.528 7.21711 101.529 7.21713C101.683 7.2303 101.829 7.2885 101.95 7.38447C102.071 7.4806 102.161 7.61037 102.209 7.7575C102.257 7.90463 102.26 8.06259 102.219 8.21158C102.177 8.36058 102.092 8.49398 101.975 8.59507L100.626 9.75978Z" stroke="#FFB919"/>
</svg>
