<svg width="104" height="20" viewBox="0 0 104 20" fill="none" xmlns="http://www.w3.org/2000/svg">
<path d="M18.3068 8.97274L14.7912 12.0063L15.8623 16.5431C15.9214 16.7893 15.9061 17.0476 15.8185 17.2852C15.7309 17.5229 15.5748 17.7292 15.37 17.8782C15.1652 18.0272 14.9208 18.1121 14.6678 18.1222C14.4147 18.1324 14.1643 18.0673 13.9482 17.9352L10.0029 15.5071L6.05522 17.9352C5.83915 18.0666 5.58906 18.131 5.33643 18.1205C5.0838 18.11 4.83993 18.0249 4.63554 17.8761C4.43115 17.7272 4.27536 17.5212 4.18781 17.284C4.10025 17.0468 4.08484 16.789 4.14351 16.5431L5.21851 12.0063L1.70288 8.97274C1.51171 8.80752 1.37345 8.58963 1.30537 8.34629C1.23729 8.10296 1.2424 7.84496 1.32008 7.60452C1.39776 7.36407 1.54455 7.15184 1.74212 6.99432C1.9397 6.83681 2.1793 6.74099 2.43101 6.71884L7.04038 6.34696L8.81851 2.04384C8.91475 1.80932 9.07856 1.60872 9.28911 1.46754C9.49965 1.32636 9.74743 1.25098 10.0009 1.25098C10.2544 1.25098 10.5022 1.32636 10.7127 1.46754C10.9233 1.60872 11.0871 1.80932 11.1833 2.04384L12.9607 6.34696L17.5701 6.71884C17.8223 6.74017 18.0626 6.83545 18.2609 6.99275C18.4592 7.15005 18.6066 7.36236 18.6848 7.6031C18.7629 7.84383 18.7683 8.10228 18.7003 8.34606C18.6322 8.58984 18.4937 8.80811 18.3021 8.97352L18.3068 8.97274Z" fill="#FFB919"/>
<path d="M39.3068 8.97274L35.7912 12.0063L36.8623 16.5431C36.9214 16.7893 36.9061 17.0476 36.8185 17.2852C36.7309 17.5229 36.5748 17.7292 36.37 17.8782C36.1652 18.0272 35.9208 18.1121 35.6678 18.1222C35.4147 18.1324 35.1643 18.0673 34.9482 17.9352L31.0029 15.5071L27.0552 17.9352C26.8392 18.0666 26.5891 18.131 26.3364 18.1205C26.0838 18.11 25.8399 18.0249 25.6355 17.8761C25.4311 17.7272 25.2754 17.5212 25.1878 17.284C25.1003 17.0468 25.0848 16.789 25.1435 16.5431L26.2185 12.0063L22.7029 8.97274C22.5117 8.80752 22.3734 8.58963 22.3054 8.34629C22.2373 8.10296 22.2424 7.84496 22.3201 7.60452C22.3978 7.36407 22.5445 7.15184 22.7421 6.99432C22.9397 6.83681 23.1793 6.74099 23.431 6.71884L28.0404 6.34696L29.8185 2.04384C29.9148 1.80932 30.0786 1.60872 30.2891 1.46754C30.4997 1.32636 30.7474 1.25098 31.0009 1.25098C31.2544 1.25098 31.5022 1.32636 31.7127 1.46754C31.9233 1.60872 32.0871 1.80932 32.1833 2.04384L33.9607 6.34696L38.5701 6.71884C38.8223 6.74017 39.0626 6.83545 39.2609 6.99275C39.4592 7.15005 39.6066 7.36236 39.6848 7.6031C39.7629 7.84383 39.7683 8.10228 39.7003 8.34606C39.6322 8.58984 39.4937 8.80811 39.3021 8.97352L39.3068 8.97274Z" fill="#FFB919"/>
<path d="M60.3068 8.97274L56.7912 12.0063L57.8623 16.5431C57.9214 16.7893 57.9061 17.0476 57.8185 17.2852C57.7309 17.5229 57.5748 17.7292 57.37 17.8782C57.1652 18.0272 56.9208 18.1121 56.6678 18.1222C56.4147 18.1324 56.1643 18.0673 55.9482 17.9352L52.0029 15.5071L48.0552 17.9352C47.8392 18.0666 47.5891 18.131 47.3364 18.1205C47.0838 18.11 46.8399 18.0249 46.6355 17.8761C46.4311 17.7272 46.2754 17.5212 46.1878 17.284C46.1003 17.0468 46.0848 16.789 46.1435 16.5431L47.2185 12.0063L43.7029 8.97274C43.5117 8.80752 43.3734 8.58963 43.3054 8.34629C43.2373 8.10296 43.2424 7.84496 43.3201 7.60452C43.3978 7.36407 43.5445 7.15184 43.7421 6.99432C43.9397 6.83681 44.1793 6.74099 44.431 6.71884L49.0404 6.34696L50.8185 2.04384C50.9148 1.80932 51.0786 1.60872 51.2891 1.46754C51.4997 1.32636 51.7474 1.25098 52.0009 1.25098C52.2544 1.25098 52.5022 1.32636 52.7127 1.46754C52.9233 1.60872 53.0871 1.80932 53.1833 2.04384L54.9607 6.34696L59.5701 6.71884C59.8223 6.74017 60.0626 6.83545 60.2609 6.99275C60.4592 7.15005 60.6066 7.36236 60.6848 7.6031C60.7629 7.84383 60.7683 8.10228 60.7003 8.34606C60.6322 8.58984 60.4937 8.80811 60.3021 8.97352L60.3068 8.97274Z" fill="#FFB919"/>
<path d="M81.3068 8.97274L77.7912 12.0063L78.8623 16.5431C78.9214 16.7893 78.9061 17.0476 78.8185 17.2852C78.7309 17.5229 78.5748 17.7292 78.37 17.8782C78.1652 18.0272 77.9208 18.1121 77.6678 18.1222C77.4147 18.1324 77.1643 18.0673 76.9482 17.9352L73.0029 15.5071L69.0552 17.9352C68.8392 18.0666 68.5891 18.131 68.3364 18.1205C68.0838 18.11 67.8399 18.0249 67.6355 17.8761C67.4311 17.7272 67.2754 17.5212 67.1878 17.284C67.1003 17.0468 67.0848 16.789 67.1435 16.5431L68.2185 12.0063L64.7029 8.97274C64.5117 8.80752 64.3734 8.58963 64.3054 8.34629C64.2373 8.10296 64.2424 7.84496 64.3201 7.60452C64.3978 7.36407 64.5445 7.15184 64.7421 6.99432C64.9397 6.83681 65.1793 6.74099 65.431 6.71884L70.0404 6.34696L71.8185 2.04384C71.9148 1.80932 72.0786 1.60872 72.2891 1.46754C72.4997 1.32636 72.7474 1.25098 73.0009 1.25098C73.2544 1.25098 73.5022 1.32636 73.7127 1.46754C73.9233 1.60872 74.0871 1.80932 74.1833 2.04384L75.9607 6.34696L80.5701 6.71884C80.8223 6.74017 81.0626 6.83545 81.2609 6.99275C81.4592 7.15005 81.6066 7.36236 81.6848 7.6031C81.7629 7.84383 81.7683 8.10228 81.7003 8.34606C81.6322 8.58984 81.4937 8.80811 81.3021 8.97352L81.3068 8.97274Z" fill="#FFB919"/>
<rect width="20" height="20" transform="translate(84)" fill="white"/>
<path d="M100.626 9.75978L100.63 9.75917L98.4645 11.6278L98.2348 11.826L98.3045 12.1212L99.3756 16.6579L99.3761 16.6597C99.4121 16.8099 99.4028 16.9674 99.3494 17.1123C99.296 17.2572 99.2008 17.383 99.0759 17.4738C98.951 17.5647 98.802 17.6164 98.6477 17.6226C98.4937 17.6288 98.3413 17.5893 98.2097 17.5091C98.2095 17.5089 98.2092 17.5088 98.2089 17.5086L94.2649 15.0813L94.003 14.9201L93.7409 15.0812L89.7955 17.508C89.7953 17.5081 89.795 17.5083 89.7947 17.5085C89.6631 17.5882 89.511 17.6273 89.3573 17.6209C89.2032 17.6145 89.0545 17.5626 88.9299 17.4719C88.8052 17.3811 88.7103 17.2555 88.6569 17.1109C88.6035 16.9662 88.5941 16.809 88.6299 16.6591L88.63 16.6583L89.705 12.1216L89.775 11.8262L89.5452 11.6278L86.0298 8.59445C86.0298 8.59444 86.0298 8.59442 86.0298 8.59441C85.913 8.49343 85.8285 8.36028 85.7869 8.21158C85.7453 8.06286 85.7484 7.90517 85.7959 7.75822C85.8433 7.61126 85.9331 7.48155 86.0538 7.38528C86.1741 7.28935 86.32 7.23086 86.4732 7.21705L91.0806 6.84534L91.3856 6.82073L91.5025 6.53791L93.2806 2.23479L93.2811 2.23367C93.3397 2.0909 93.4394 1.96877 93.5676 1.88282C93.6958 1.79687 93.8466 1.75098 94.0009 1.75098C94.1553 1.75098 94.3061 1.79687 94.4343 1.88282C94.5625 1.96877 94.6622 2.0909 94.7208 2.23367L94.7212 2.23471L96.4986 6.53784L96.6154 6.82073L96.9205 6.84534L101.528 7.21706C101.528 7.21708 101.528 7.21711 101.529 7.21713C101.683 7.2303 101.829 7.2885 101.95 7.38447C102.071 7.4806 102.161 7.61037 102.209 7.7575C102.257 7.90463 102.26 8.06259 102.219 8.21158C102.177 8.36058 102.092 8.49398 101.975 8.59507L100.626 9.75978Z" stroke="#FFB919"/>
</svg>
