<svg width="141" height="41" viewBox="0 0 141 41" fill="none" xmlns="http://www.w3.org/2000/svg">
<mask id="mask0_217_2014" style="mask-type:alpha" maskUnits="userSpaceOnUse" x="0" y="0" width="41" height="41">
<path fill-rule="evenodd" clip-rule="evenodd" d="M10.0933 0.0178938L11.8304 0L29.905 0.00697886C30.1791 0.00983443 30.3495 0.0132614 30.5199 0.0178938C31.416 0.0416902 32.3199 0.09417 33.2061 0.251607C34.1057 0.411138 34.9423 0.672135 35.7591 1.08353C36.5617 1.4873 37.2971 2.01489 37.9342 2.64533C38.5712 3.27438 39.1049 4.00071 39.5133 4.79488C39.9302 5.60307 40.1935 6.4301 40.3549 7.31945C40.5142 8.19548 40.5672 9.08908 40.5913 9.97488C40.6026 10.3814 40.6076 10.7879 40.6097 11.1952L40.6121 11.9191L40.6125 27.9627C40.6125 28.4454 40.6125 28.9283 40.6097 29.4118C40.6076 29.8183 40.6026 30.2248 40.5913 30.6314C40.5672 31.5165 40.5142 32.4108 40.3549 33.2861C40.1935 34.1755 39.9302 35.0032 39.5133 35.8114C39.1049 36.6049 38.5712 37.3312 37.9342 37.961C37.2971 38.5907 36.5617 39.119 35.7591 39.5228C34.9423 39.9342 34.1057 40.1952 33.2061 40.3547C32.3199 40.5121 31.416 40.5646 30.5199 40.5884L27.8203 40.6094L10.7077 40.5993C10.4336 40.5965 10.2635 40.593 10.0933 40.5884C9.19721 40.5646 8.29333 40.5121 7.40715 40.3547C6.50758 40.1952 5.67097 39.9342 4.85415 39.5228C4.05078 39.119 3.31608 38.5907 2.67903 37.961C2.04205 37.3312 1.50831 36.6049 1.0992 35.8114C0.683052 35.0032 0.419704 34.1755 0.257635 33.2861C0.0983573 32.4108 0.0460059 31.5165 0.0219557 30.6314C0.0105969 30.2248 0.00564766 29.8183 0.00355358 29.4118L0.000445408 28.687L0 12.6436C0 12.1608 -1.53657e-08 11.6773 0.00355358 11.1952C0.00564766 10.7879 0.0105969 10.3814 0.0219557 9.97488C0.0460059 9.08908 0.0983573 8.19548 0.257635 7.31945C0.419704 6.4301 0.683052 5.60307 1.0992 4.79488C1.50831 4.00071 2.04205 3.27438 2.67903 2.64533C3.31608 2.01489 4.05078 1.4873 4.85415 1.08353C5.67097 0.672135 6.50758 0.411138 7.40715 0.251607C8.29333 0.09417 9.19721 0.0416902 10.0933 0.0178938Z" fill="white"/>
</mask>
<g mask="url(#mask0_217_2014)">
<path d="M40.6125 -0.00341797H0V40.6091H40.6125V-0.00341797Z" fill="#19AA1E"/>
<path fill-rule="evenodd" clip-rule="evenodd" d="M0 -0.00341797H40.6125V13.3226L0 6.97686V-0.00341797Z" fill="#FFB919"/>
<path fill-rule="evenodd" clip-rule="evenodd" d="M0 36.167L40.6125 29.8213V40.609H0V36.167Z" fill="#1A9E1F"/>
<path fill-rule="evenodd" clip-rule="evenodd" d="M0 6.17383L14.1761 8.3888C15.9408 7.27176 18.0402 6.65934 20.3063 6.65934C23.4448 6.65934 26.2638 7.83424 28.3164 9.89736C28.5754 10.1577 28.8197 10.43 29.0488 10.7127L40.6125 12.5195V14.1251L30.223 12.5018C30.9948 13.983 31.4112 15.6334 31.4112 17.3176C31.4112 19.4935 30.9245 21.6629 29.9185 23.8409L29.8879 23.907L29.4606 24.8225H28.4503C26.364 24.8225 24.9801 25.4466 24.0753 26.5526C23.3648 27.421 22.954 28.5916 22.8158 29.8689L22.8116 29.9089L22.7914 30.1129L22.7828 30.2017L22.7664 30.3754C22.7135 30.9457 22.6781 31.4293 22.6601 31.8234L40.6125 29.0183V30.624L0 36.9697V35.364L17.9726 32.5558L17.9647 32.1953L17.9623 32.0936L17.9608 32.0416L17.9581 31.9611C17.9418 31.524 17.9018 30.9637 17.8377 30.2846L17.8253 30.1558L17.8034 29.9328C17.6744 28.6488 17.2697 27.4633 16.5611 26.582C15.6658 25.4685 14.2947 24.8352 12.2251 24.8227L12.1622 24.8225H11.1519L10.7246 23.907C9.69782 21.7067 9.20127 19.5154 9.20127 17.3176C9.20127 14.5537 10.3226 11.8811 12.2961 9.89736C12.3531 9.84012 12.4107 9.78358 12.4688 9.72768L0 7.77942V6.17383Z" fill="white"/>
<path fill-rule="evenodd" clip-rule="evenodd" d="M20.3076 8.24609C25.9775 8.24609 29.8262 12.6102 29.8262 17.3179C29.8262 19.2079 29.4138 21.1746 28.4516 23.2364C22.8725 23.2364 21.4953 27.2319 21.235 29.7458L21.2183 29.9133C21.1301 30.8105 21.079 31.5305 21.0651 32.0732L19.5539 32.3093L19.5536 32.2604C19.5478 31.6915 19.4941 30.8935 19.3923 29.8663L19.3878 29.8215C19.1473 27.313 17.7991 23.2364 12.1636 23.2364C11.2014 21.1746 10.7891 19.2079 10.7891 17.3179C10.7891 12.6102 14.6377 8.24609 20.3076 8.24609Z" fill="#0073FA"/>
</g>
<path fill-rule="evenodd" clip-rule="evenodd" d="M61.0653 7.61475C55.1588 7.61475 50.7285 11.177 50.7659 17.3641H56.2568C56.1802 14.8892 57.7713 12.4894 61.0653 12.4894C63.5647 12.4894 65.1548 14.1393 65.1548 16.2391C65.1548 18.414 63.4125 19.6139 60.6105 20.9637C56.9384 22.7262 54.7414 23.5511 50.7659 24.8635V31.988H71.2124V27.1133H58.1877C60.0851 26.3298 61.9325 25.4695 63.602 24.676C68.0323 22.5762 70.6448 20.2139 70.6448 15.9767C70.6448 10.877 66.7831 7.61475 61.0653 7.61475ZM79.5437 12.8644H90.1455V7.98978H74.2422V31.9881H79.5437V12.8644ZM98.4748 7.98978H93.1744V31.9881H98.4375L108.32 16.6516V31.9881H113.621V7.98978H108.32L98.4748 23.3262V7.98978ZM140.24 22.9887H134.749C133.916 25.651 131.379 27.4883 128.388 27.4883C124.033 27.4883 121.194 23.7761 121.194 19.9888C121.194 16.2017 123.958 12.4894 128.539 12.4894C131.569 12.4894 133.916 14.3268 134.749 16.9891H140.24C139.445 11.627 135.165 7.61475 128.388 7.61475C120.891 7.61475 115.893 12.8269 115.893 19.9888C115.893 27.1509 120.891 32.363 128.388 32.363C135.165 32.363 139.445 28.4258 140.24 22.9887Z" fill="#1F4250"/>
</svg>
