<svg width="64" height="64" viewBox="0 0 64 64" fill="none" xmlns="http://www.w3.org/2000/svg">
<g clip-path="url(#clip0_217_227)">
<path d="M32 64C49.6731 64 64 49.6731 64 32C64 14.3269 49.6731 0 32 0C14.3269 0 0 14.3269 0 32C0 49.6731 14.3269 64 32 64Z" fill="#133A49" fill-opacity="0.5"/>
<path d="M31.5128 32.0513C31.5128 37.6831 36.1118 42.2821 41.7436 42.2821H47.5897C48.0964 42.2821 48.5836 42.2236 49.0513 42.1067V43.7436C49.0513 46.7056 46.6544 49.1026 43.6923 49.1026H18.359C15.3969 49.1026 13 46.7056 13 43.7436V20.359C13 17.3969 15.3969 15 18.359 15H43.6923C46.6544 15 49.0513 17.3969 49.0513 20.359V21.9959C48.5836 21.879 48.0964 21.8205 47.5897 21.8205H41.7436C36.1118 21.8205 31.5128 26.4 31.5128 32.0513ZM51 28.1538V35.9487C51 37.8292 49.4703 39.359 47.5897 39.359H41.7436C37.7156 39.359 34.4359 36.0793 34.4359 32.0513C34.4359 28.0233 37.7156 24.7436 41.7436 24.7436H47.5897C49.4703 24.7436 51 26.2733 51 28.1538ZM43.3026 32.0513C43.3026 31.6378 43.1383 31.2413 42.846 30.9489C42.5536 30.6566 42.1571 30.4923 41.7436 30.4923C41.3301 30.4923 40.9336 30.6566 40.6412 30.9489C40.3489 31.2413 40.1846 31.6378 40.1846 32.0513C40.1846 32.4647 40.3489 32.8613 40.6412 33.1536C40.9336 33.446 41.3301 33.6103 41.7436 33.6103C42.1571 33.6103 42.5536 33.446 42.846 33.1536C43.1383 32.8613 43.3026 32.4647 43.3026 32.0513Z" fill="url(#paint0_linear_217_227)"/>
</g>
<defs>
<linearGradient id="paint0_linear_217_227" x1="13" y1="32.0513" x2="51" y2="32.0513" gradientUnits="userSpaceOnUse">
<stop stop-color="#1AACDF"/>
<stop offset="1" stop-color="#2DC5FA"/>
</linearGradient>
<clipPath id="clip0_217_227">
<rect width="64" height="64" fill="white"/>
</clipPath>
</defs>
</svg>
