<svg width="64" height="64" viewBox="0 0 64 64" fill="none" xmlns="http://www.w3.org/2000/svg">
<g clip-path="url(#clip0_496_43722)">
<path d="M32 64C49.6731 64 64 49.6731 64 32C64 14.3269 49.6731 0 32 0C14.3269 0 0 14.3269 0 32C0 49.6731 14.3269 64 32 64Z" fill="#133A49" fill-opacity="0.5"/>
<path d="M42.6161 49.3066V50.0764C42.6161 51.1379 41.5805 52 40.3086 52H23.695C22.4232 52 21.3876 51.1379 21.3876 50.0764V49.3066C21.3876 46.9732 23.6637 45.0754 26.464 45.0754H26.9255V42.8232C28.513 43.3771 30.2297 43.6909 32.0018 43.6909C33.774 43.6909 35.4907 43.3771 37.0782 42.8232V45.0754H37.5397C40.34 45.0754 42.6161 46.9732 42.6161 49.3066ZM49.9999 22.9227V25.8949C50.0092 28.0195 49.378 30.0976 48.1886 31.8581C46.9992 33.6186 45.3069 34.9798 43.3323 35.7639L41.5214 36.482C40.3548 37.8725 38.8979 38.9907 37.2529 39.7578C35.608 40.525 33.815 40.9225 32 40.9225C30.185 40.9225 28.392 40.525 26.7471 39.7578C25.1021 38.9907 23.6452 37.8725 22.4786 36.482L20.6714 35.7658C18.6961 34.9816 17.0031 33.6204 15.813 31.8596C14.623 30.0988 13.9912 28.0201 14.0001 25.8949V22.9227C14.0001 21.1413 15.4492 19.6921 17.2305 19.6921H19.538V19.2306C19.538 17.4492 20.987 16 22.7684 16H41.2279C43.0093 16 44.4583 17.4492 44.4583 19.2306V19.6921H46.7658C48.5471 19.6921 49.9962 21.1413 49.9962 22.9227H49.9999ZM20.173 32.3542C19.7563 31.0984 19.5431 29.784 19.5416 28.4609V22.4612H17.2342C17.1123 22.4626 16.9957 22.5117 16.9095 22.598C16.8232 22.6842 16.7742 22.8008 16.7727 22.9227V25.8949C16.7727 28.5347 18.0741 30.9106 20.173 32.3524V32.3542ZM47.231 22.9227C47.2295 22.8008 47.1804 22.6842 47.0942 22.598C47.008 22.5117 46.8914 22.4626 46.7695 22.4612H44.462V28.4609C44.4606 29.784 44.2474 31.0984 43.8307 32.3542C44.8812 31.6365 45.7402 30.6727 46.3329 29.5468C46.9256 28.4209 47.2339 27.1672 47.231 25.8949V22.9227Z" fill="url(#paint0_linear_496_43722)"/>
</g>
<defs>
<linearGradient id="paint0_linear_496_43722" x1="14" y1="34" x2="50" y2="34" gradientUnits="userSpaceOnUse">
<stop stop-color="#1AACDF"/>
<stop offset="1" stop-color="#2DC5FA"/>
</linearGradient>
<clipPath id="clip0_496_43722">
<rect width="64" height="64" fill="white"/>
</clipPath>
</defs>
</svg>
