<svg width="64" height="64" viewBox="0 0 64 64" fill="none" xmlns="http://www.w3.org/2000/svg">
<g clip-path="url(#clip0_496_43743)">
<path d="M32 64C49.6731 64 64 49.6731 64 32C64 14.3269 49.6731 0 32 0C14.3269 0 0 14.3269 0 32C0 49.6731 14.3269 64 32 64Z" fill="#133A49" fill-opacity="0.5"/>
<path d="M30.7838 33.1603C30.7838 31.5939 31.6476 30.1915 33.0443 29.4994L36.72 27.6417C37.3081 27.3503 37.9514 27.2045 38.5946 27.2045H43.6486V19.0086C43.6486 16.2402 41.3881 14 38.5946 14H22.0541C19.2605 14 17 16.2402 17 19.0086V42.6857C17 45.4541 19.2605 47.6944 22.0541 47.6944H34.6616C32.1689 45.0366 30.7835 41.5424 30.7838 37.9139V33.1603ZM22.0541 19.464H34.9189C35.2845 19.464 35.6351 19.6079 35.8936 19.864C36.1521 20.1202 36.2973 20.4677 36.2973 20.8299C36.2973 21.1922 36.1521 21.5397 35.8936 21.7958C35.6351 22.052 35.2845 22.1959 34.9189 22.1959H22.0541C21.6885 22.1959 21.3379 22.052 21.0794 21.7958C20.8209 21.5397 20.6757 21.1922 20.6757 20.8299C20.6757 20.4677 20.8209 20.1202 21.0794 19.864C21.3379 19.6079 21.6885 19.464 22.0541 19.464ZM27.5676 33.1238H22.0541C21.6885 33.1238 21.3379 32.9799 21.0794 32.7237C20.8209 32.4676 20.6757 32.1201 20.6757 31.7578C20.6757 31.3956 20.8209 31.0481 21.0794 30.7919C21.3379 30.5358 21.6885 30.3919 22.0541 30.3919H27.5676C27.9331 30.3919 28.2837 30.5358 28.5422 30.7919C28.8007 31.0481 28.9459 31.3956 28.9459 31.7578C28.9459 32.1201 28.8007 32.4676 28.5422 32.7237C28.2837 32.9799 27.9331 33.1238 27.5676 33.1238ZM29.4054 27.6599H22.0541C21.6885 27.6599 21.3379 27.516 21.0794 27.2598C20.8209 27.0036 20.6757 26.6562 20.6757 26.2939C20.6757 25.9316 20.8209 25.5842 21.0794 25.328C21.3379 25.0718 21.6885 24.9279 22.0541 24.9279H29.4054C29.771 24.9279 30.1216 25.0718 30.3801 25.328C30.6386 25.5842 30.7838 25.9316 30.7838 26.2939C30.7838 26.6562 30.6386 27.0036 30.3801 27.2598C30.1216 27.516 29.771 27.6599 29.4054 27.6599ZM50.2465 31.9327L46.5708 30.0841C46.377 29.9872 46.163 29.9367 45.9459 29.9365H38.5946C38.3776 29.9369 38.1636 29.9874 37.9697 30.0841L34.2941 31.9327C34.0672 32.047 33.8767 32.2214 33.7437 32.4365C33.6107 32.6515 33.5404 32.8989 33.5405 33.1512V37.9194C33.5405 42.7586 36.5914 47.1534 41.1382 48.8564C41.8693 49.1318 42.6772 49.1312 43.4079 48.8545C47.9492 47.1534 51 42.7586 51 37.9194V33.1512C51.0002 32.8989 50.9299 32.6515 50.7969 32.4365C50.6639 32.2214 50.4734 32.047 50.2465 31.9327ZM46.0562 37.6553L42.7481 41.3252C42.6183 41.4683 42.4596 41.5827 42.2823 41.661C42.105 41.7393 41.913 41.7798 41.7189 41.7798C41.5248 41.7798 41.3328 41.7393 41.1555 41.661C40.9782 41.5827 40.8195 41.4683 40.6897 41.3252L38.4843 38.8774C38.3638 38.7434 38.271 38.5873 38.2114 38.4178C38.1517 38.2483 38.1263 38.0689 38.1366 37.8897C38.147 37.7105 38.1928 37.5351 38.2715 37.3735C38.3503 37.2118 38.4604 37.0672 38.5955 36.9477C38.7307 36.8282 38.8882 36.7363 39.0592 36.6772C39.2302 36.6181 39.4113 36.5929 39.5921 36.6031C39.7729 36.6134 39.95 36.6588 40.1131 36.7368C40.2762 36.8148 40.4221 36.9239 40.5427 37.0579L41.7208 38.3638L43.9997 35.834C44.2431 35.5634 44.5851 35.3999 44.9502 35.3792C45.3154 35.3585 45.6739 35.4825 45.9469 35.7238C46.2198 35.965 46.3849 36.3039 46.4057 36.6658C46.4266 37.0277 46.3015 37.3829 46.0581 37.6534L46.0562 37.6553Z" fill="url(#paint0_linear_496_43743)"/>
</g>
<defs>
<linearGradient id="paint0_linear_496_43743" x1="17" y1="31.5312" x2="51" y2="31.5312" gradientUnits="userSpaceOnUse">
<stop stop-color="#1AACDF"/>
<stop offset="1" stop-color="#2DC5FA"/>
</linearGradient>
<clipPath id="clip0_496_43743">
<rect width="64" height="64" fill="white"/>
</clipPath>
</defs>
</svg>
