<svg width="64" height="64" viewBox="0 0 64 64" fill="none" xmlns="http://www.w3.org/2000/svg">
<g clip-path="url(#clip0_496_43732)">
<path d="M32 64C49.6731 64 64 49.6731 64 32C64 14.3269 49.6731 0 32 0C14.3269 0 0 14.3269 0 32C0 49.6731 14.3269 64 32 64Z" fill="#133A49" fill-opacity="0.5"/>
<path d="M29.3951 20.358C29.3951 16.3006 32.6957 13 36.7531 13C40.8106 13 44.1112 16.3006 44.1112 20.358C44.1112 22.7126 42.997 24.7939 41.2731 26.1394H32.2332C31.3502 25.4563 30.6353 24.5801 30.1433 23.578C29.6514 22.5759 29.3954 21.4744 29.3951 20.358ZM48.3158 42.8947C47.9794 43.2941 47.7902 43.8407 47.7902 44.4504V46.6367C47.7902 48.6549 46.1294 50.3158 44.1112 50.3158H39.9066C37.8884 50.3158 36.2276 48.6549 36.2276 46.6367C36.2276 46.3214 35.9753 46.0691 35.6389 46.0691L33.6207 46.0901C33.3264 46.0901 33.0741 46.3424 33.0741 46.6367C33.0741 48.6549 31.4133 50.3158 29.3951 50.3158H25.1905C23.1723 50.3158 21.5115 48.6549 21.5115 46.6367V45.2913C20.2921 44.4083 19.22 43.3572 18.316 42.1799C18.2529 42.0958 18.0847 41.9066 17.8535 41.9066H14.679C12.6608 41.9066 11 40.2458 11 38.2276V31.9207C11 29.9025 12.6608 28.2417 14.679 28.2417H15.604C15.7722 28.2417 15.9824 28.1576 16.0455 27.9894C17.0967 25.0251 18.9677 22.5234 21.5115 20.6734V19.3069C21.5115 17.2887 23.1723 15.6279 25.1905 15.6279C25.8843 15.6279 26.557 15.754 27.1877 15.9853C26.578 17.3097 26.2416 18.8023 26.2416 20.358C26.2416 23.5115 27.6502 26.4757 30.1309 28.4729C30.3201 28.8303 30.6354 29.1036 31.0349 29.2087L31.14 29.2928H42.3663L42.4714 29.2087C42.8708 29.1036 43.1862 28.8303 43.3754 28.4729C45.3962 26.865 46.7332 24.5515 47.1175 21.9978C50.0186 24.6467 51.7635 28.1996 51.9738 32.1099C52.205 36.0622 50.9016 39.8884 48.3158 42.8947ZM24.6649 29.8184C24.6649 29.4002 24.4988 28.9992 24.2031 28.7035C23.9074 28.4078 23.5064 28.2417 23.0882 28.2417C22.67 28.2417 22.269 28.4078 21.9733 28.7035C21.6776 28.9992 21.5115 29.4002 21.5115 29.8184V31.9207C21.5115 32.3388 21.6776 32.7399 21.9733 33.0356C22.269 33.3313 22.67 33.4974 23.0882 33.4974C23.5064 33.4974 23.9074 33.3313 24.2031 33.0356C24.4988 32.7399 24.6649 32.3388 24.6649 31.9207V29.8184Z" fill="url(#paint0_linear_496_43732)"/>
</g>
<defs>
<linearGradient id="paint0_linear_496_43732" x1="11" y1="31.6579" x2="52" y2="31.6579" gradientUnits="userSpaceOnUse">
<stop stop-color="#1AACDF"/>
<stop offset="1" stop-color="#2DC5FA"/>
</linearGradient>
<clipPath id="clip0_496_43732">
<rect width="64" height="64" fill="white"/>
</clipPath>
</defs>
</svg>
