<svg width="64" height="64" viewBox="0 0 64 64" fill="none" xmlns="http://www.w3.org/2000/svg">
<g clip-path="url(#clip0_496_43712)">
<path d="M32 64C49.6731 64 64 49.6731 64 32C64 14.3269 49.6731 0 32 0C14.3269 0 0 14.3269 0 32C0 49.6731 14.3269 64 32 64Z" fill="#133A49" fill-opacity="0.5"/>
<path d="M18.2179 38.7585C15.3338 38.7585 13 36.454 13 33.6062V26.1118C13 23.264 15.3338 20.9595 18.2179 20.9595H19.9067C19.7359 21.4091 19.641 21.8775 19.641 22.3647V37.3533C19.641 37.8404 19.7359 38.3088 19.9067 38.7585H18.2179ZM38.2663 17.9168C37.5732 17.4428 36.7741 17.1416 35.9374 17.0392C35.1007 16.9367 34.2513 17.036 33.462 17.3285L23.4093 21.0494C23.1384 21.15 22.905 21.3298 22.7402 21.5648C22.5755 21.7998 22.4872 22.0788 22.4872 22.3647V37.3533C22.4872 37.6391 22.5755 37.9182 22.7402 38.1532C22.905 38.3882 23.1384 38.568 23.4093 38.6686L33.462 42.3895C34.2516 42.6803 35.1007 42.7786 35.937 42.6762C36.7734 42.5738 37.5724 42.2736 38.2663 41.8012C38.9592 41.327 39.5255 40.6942 39.9167 39.9568C40.308 39.2194 40.5125 38.3994 40.5128 37.5669V22.1511C40.5126 21.3186 40.3082 20.4985 39.9169 19.7611C39.5257 19.0237 38.9593 18.3908 38.2663 17.9168ZM18.2179 41.5689C17.7246 41.5689 17.2503 41.5314 16.7949 41.4377V45.7844C16.7949 48.1077 18.7113 50 21.0641 50C23.4169 50 25.3333 48.1077 25.3333 45.7844V42.3745L23.1323 41.5689H18.2179ZM48.5769 28.4538H46.6795C46.3021 28.4538 45.9401 28.6018 45.6732 28.8654C45.4063 29.1289 45.2564 29.4863 45.2564 29.859C45.2564 30.2317 45.4063 30.5891 45.6732 30.8526C45.9401 31.1161 46.3021 31.2642 46.6795 31.2642H48.5769C48.9543 31.2642 49.3163 31.1161 49.5832 30.8526C49.8501 30.5891 50 30.2317 50 29.859C50 29.4863 49.8501 29.1289 49.5832 28.8654C49.3163 28.6018 48.9543 28.4538 48.5769 28.4538ZM44.7232 23.708C45.085 23.7085 45.4332 23.5725 45.6966 23.3277L47.6529 21.5159C47.7924 21.3905 47.9052 21.239 47.9848 21.0701C48.0645 20.9012 48.1093 20.7184 48.1167 20.5323C48.1242 20.3462 48.0941 20.1604 48.0281 19.9859C47.9622 19.8114 47.8618 19.6515 47.7328 19.5157C47.6037 19.3798 47.4486 19.2706 47.2765 19.1945C47.1043 19.1183 46.9185 19.0768 46.7299 19.0722C46.5413 19.0676 46.3537 19.1 46.1779 19.1677C46.0022 19.2353 45.8418 19.3368 45.7061 19.4662L43.7498 21.278C43.5418 21.4707 43.3972 21.7208 43.3348 21.9957C43.2724 22.2706 43.2952 22.5577 43.4001 22.8197C43.5051 23.0816 43.6873 23.3064 43.9233 23.4648C44.1592 23.6232 44.4379 23.708 44.7232 23.708ZM45.6966 36.3285C45.5609 36.1991 45.4005 36.0976 45.2248 36.0299C45.049 35.9623 44.8614 35.9298 44.6728 35.9344C44.4842 35.939 44.2984 35.9806 44.1263 36.0567C43.9541 36.1329 43.799 36.242 43.6699 36.3779C43.5409 36.5138 43.4405 36.6736 43.3746 36.8482C43.3087 37.0227 43.2785 37.2084 43.286 37.3946C43.2934 37.5807 43.3382 37.7635 43.4179 37.9324C43.4975 38.1012 43.6104 38.2528 43.7498 38.3782L45.7061 40.1899C45.842 40.3168 46.0021 40.4159 46.177 40.4814C46.3519 40.5469 46.5382 40.5776 46.7252 40.5717C46.9121 40.5657 47.0961 40.5233 47.2664 40.4469C47.4367 40.3704 47.59 40.2614 47.7174 40.1262C47.9755 39.8544 48.1137 39.4925 48.1016 39.12C48.0895 38.7476 47.9281 38.3952 47.6529 38.1402L45.6966 36.3285Z" fill="url(#paint0_linear_496_43712)"/>
</g>
<defs>
<linearGradient id="paint0_linear_496_43712" x1="13" y1="33.5" x2="50" y2="33.5" gradientUnits="userSpaceOnUse">
<stop stop-color="#1AACDF"/>
<stop offset="1" stop-color="#2DC5FA"/>
</linearGradient>
<clipPath id="clip0_496_43712">
<rect width="64" height="64" fill="white"/>
</clipPath>
</defs>
</svg>
