<svg width="64" height="64" viewBox="0 0 64 64" fill="none" xmlns="http://www.w3.org/2000/svg">
<g clip-path="url(#clip0_496_43702)">
<path d="M32 64C49.6731 64 64 49.6731 64 32C64 14.3269 49.6731 0 32 0C14.3269 0 0 14.3269 0 32C0 49.6731 14.3269 64 32 64Z" fill="#133A49" fill-opacity="0.5"/>
<path d="M36.5993 32.2981C36.5993 35.1084 34.3125 37.3975 31.4999 37.3975C28.6873 37.3975 26.4005 35.1084 26.4005 32.2981C26.4005 29.4878 28.6873 27.1987 31.4999 27.1987C34.3125 27.1987 36.5993 29.4855 36.5993 32.2981ZM52.0991 35.5436C47.5663 43.0907 39.8652 47.5962 31.4999 47.5962C23.1347 47.5962 15.4335 43.0907 10.9007 35.5413C10.3114 34.5622 10 33.4409 10 32.2981C10 31.1553 10.3114 30.0341 10.9007 29.0549C15.4335 21.5056 23.1347 17 31.4999 17C39.8652 17 47.5663 21.5056 52.0991 29.0549C53.3003 31.0561 53.3003 33.5401 52.0991 35.5436ZM39.9989 32.2981C39.9989 27.6112 36.1868 23.7992 31.4999 23.7992C26.813 23.7992 23.001 27.6112 23.001 32.2981C23.001 36.985 26.813 40.7971 31.4999 40.7971C36.1868 40.7971 39.9989 36.9827 39.9989 32.2981Z" fill="url(#paint0_linear_496_43702)"/>
</g>
<defs>
<linearGradient id="paint0_linear_496_43702" x1="10" y1="32.2981" x2="53" y2="32.2981" gradientUnits="userSpaceOnUse">
<stop stop-color="#1AACDF"/>
<stop offset="1" stop-color="#2DC5FA"/>
</linearGradient>
<clipPath id="clip0_496_43702">
<rect width="64" height="64" fill="white"/>
</clipPath>
</defs>
</svg>
