<svg width="782" height="797" viewBox="0 0 782 797" fill="none" xmlns="http://www.w3.org/2000/svg">
<path fill-rule="evenodd" clip-rule="evenodd" d="M385.149 732.822C397.044 704.494 418.878 680.648 439.872 657.719C443.095 654.198 446.299 650.699 449.444 647.209C452.116 644.139 454.813 641.09 457.535 638.061C459.477 635.815 461.379 633.568 463.233 631.316C494.719 593.144 529.777 558.745 569.079 523.68C572.283 520.82 575.493 517.965 578.703 515.109C602.93 493.556 627.153 472.005 649.145 448.534C691.744 393.645 719.581 326.041 710.226 226.357C703.527 155.118 640.727 104.273 561.231 95.396C424.347 80.0829 348.922 158.003 303.592 238.563C303.815 244.555 300.466 242.78 301.136 238.563C320.241 193.466 340.234 150.661 372.496 116.117C383.677 100.987 396.359 86.7572 411.204 73.1645C457.874 30.776 531.341 -6.50803 620.662 2.1472C711.546 11.0244 774.071 93.1381 780.77 185.682C789.803 305.433 748.036 380.485 690.228 442.123C662.044 478.427 627.468 509.279 592.099 539.721C578.551 551.374 564.743 562.844 550.923 574.323C474.997 637.392 398.696 700.772 362.99 796.715C366.071 773.274 374.256 752.267 385.149 732.822ZM0 249.395C5.35927 159.735 78.7237 80.6357 180.773 79.3042C248.428 78.4165 294.028 114.627 334.56 151.673C304.92 133.209 262.78 111.88 220.074 108.599C109.539 100.609 28.5828 162.177 0 249.395ZM334.56 151.673C334.988 151.94 335.412 152.205 335.834 152.47C340.97 155.133 337.251 156.788 334.572 151.684L334.56 151.673Z" fill="#3C768F" fill-opacity="0.5"/>
</svg>
