<svg width="23" height="23" viewBox="0 0 23 23" fill="none" xmlns="http://www.w3.org/2000/svg">
<circle cx="11.75" cy="11.2344" r="11" fill="#EBF7FC"/>
<path d="M16.4817 6.6145L16.5391 6.61126L16.6094 6.61559L16.6582 6.62425L16.7247 6.64319L16.7827 6.6681L16.8368 6.69895L16.8855 6.73522L16.9299 6.77582L16.9581 6.80776L17.0025 6.87056L17.0306 6.92253C17.0559 6.97666 17.0721 7.03368 17.0793 7.09359L17.082 7.15097C17.082 7.19175 17.0777 7.23145 17.069 7.27006L17.0501 7.33665L13.5141 17.1224C13.447 17.2684 13.3395 17.392 13.2043 17.4786C13.0691 17.5653 12.9119 17.6113 12.7513 17.6113C12.6067 17.6116 12.4645 17.5745 12.3384 17.5036C12.2124 17.4328 12.1068 17.3306 12.0319 17.2069L11.9967 17.1381L10.1821 13.5101L6.5714 11.7042C6.4378 11.6431 6.32258 11.548 6.23727 11.4284C6.15196 11.3087 6.09955 11.1688 6.08528 11.0226L6.08203 10.942C6.08203 10.6388 6.24497 10.3616 6.5373 10.2003L6.61308 10.1624L16.3664 6.64049L16.4238 6.62425L16.4817 6.6145Z" fill="#8EB1C0"/>
</svg>
