<svg width="178" height="32" viewBox="0 0 178 32" fill="none" xmlns="http://www.w3.org/2000/svg">
<path fill-rule="evenodd" clip-rule="evenodd" d="M104.218 17.8988L110.282 15.3763C109.945 14.5257 108.949 13.9391 107.763 13.9391C106.247 13.9318 104.145 15.2737 104.218 17.8988ZM111.336 20.3407L113.65 21.8805C112.903 22.9878 111.109 24.8943 107.997 24.8943C104.145 24.8943 101.362 21.9099 101.362 18.1041C101.362 14.0638 104.167 11.314 107.667 11.314C110.882 11.424 112.881 13.4992 113.782 16.4029L104.702 20.1573C105.397 21.5212 106.474 22.2178 107.99 22.2178C109.498 22.2178 110.553 21.4699 111.322 20.3407M96.6026 24.4837H99.583V4.53849H96.6026V24.4837ZM91.7403 18.1261C91.7403 15.7357 90.1439 13.9831 88.1154 13.9831C86.065 13.9831 84.3369 15.7357 84.3369 18.1261C84.3369 20.4946 86.0577 22.2178 88.1154 22.2178C90.1512 22.2178 91.7403 20.4946 91.7403 18.1261ZM94.3618 11.7246V23.8971C94.3618 28.9127 91.4107 30.9732 87.9177 30.9732C84.6298 30.9732 82.6526 28.7587 81.9057 26.9622L84.498 25.8842C84.9593 26.9915 86.0943 28.3041 87.9177 28.3041C91.2496 27.925 91.5425 25.7669 91.5425 23.3398H91.4327C90.7663 24.161 89.4775 24.887 87.8591 24.887C84.4687 24.887 81.3565 21.9319 81.3565 18.1188C81.3565 14.2838 84.4613 11.2993 87.8591 11.2993C89.4775 11.2993 90.7663 12.0179 91.4327 12.8172H91.5352V11.71C91.5352 11.7026 94.3618 11.7026 94.3618 11.7026V11.7246ZM61.8484 18.1041C61.8484 15.6623 60.1056 13.9904 58.0918 13.9904C56.0707 13.9904 54.3351 15.6623 54.3351 18.1041C54.3351 20.524 56.078 22.2178 58.0918 22.2178C60.1056 22.2178 61.8484 20.5166 61.8484 18.1041ZM64.7775 18.1041C64.7775 22.0125 61.7752 24.8943 58.0918 24.8943C54.4084 24.8943 51.406 22.0125 51.406 18.1041C51.406 14.1664 54.4084 11.314 58.0918 11.314C61.7752 11.314 64.7775 14.1664 64.7775 18.1041ZM76.8602 18.1041C76.8602 15.6623 75.1174 13.9904 73.1036 13.9904C71.0825 13.9904 69.347 15.6623 69.347 18.1041C69.347 20.524 71.0898 22.2178 73.1036 22.2178C75.1174 22.2178 76.8602 20.5166 76.8602 18.1041ZM79.7894 18.1041C79.7894 22.0125 76.787 24.8943 73.1036 24.8943C69.4202 24.8943 66.4178 22.0125 66.4178 18.1041C66.4178 14.1664 69.4202 11.314 73.1036 11.314C76.787 11.314 79.7894 14.1664 79.7894 18.1041ZM39.9531 24.8943C34.1534 24.8943 29.2617 20.1573 29.2617 14.3351C29.2617 8.52019 34.1461 3.77588 39.9531 3.77588C43.1678 3.77588 45.4525 5.03711 47.1734 6.68699L45.145 8.71818C43.9147 7.5596 42.2451 6.65766 39.9531 6.65766C35.7131 6.65766 32.4105 10.0821 32.4105 14.2838C32.4105 18.5294 35.7278 21.9099 39.9531 21.9099C42.6991 21.9099 44.2662 20.8026 45.2695 19.798C46.0896 18.9767 46.6315 17.7888 46.8366 16.1683H39.9531V13.2865H49.6192C49.7218 13.7998 49.773 14.4158 49.773 15.083C49.773 17.2462 49.1799 19.9227 47.2832 21.8219C45.4379 23.7651 43.0726 24.799 39.9604 24.799" fill="#1F4250"/>
<path d="M120.777 24.3317V6.60059H123.064L129.214 17.4002H129.306L135.456 6.60059H137.743V24.3317H135.457L135.549 10.84H135.457L129.925 20.5565H128.596L123.065 10.84H122.972C123.141 15.3276 123.065 19.8448 123.065 24.3317H120.777ZM144.881 24.6412C143.583 24.6412 142.533 24.2698 141.667 23.5272C140.802 22.7845 140.369 21.7943 140.369 20.5867C140.369 19.2561 140.895 18.2349 141.915 17.4923C142.934 16.7496 144.201 16.3783 145.685 16.3783C147.013 16.3783 148.126 16.6258 148.96 17.1209C148.938 14.5471 147.162 13.8408 145.777 13.8408C144.47 13.903 143.336 14.4504 142.873 15.6047L140.802 14.7073C141.08 13.9956 141.636 13.314 142.471 12.6959C143.305 12.0777 144.387 11.7676 145.746 11.7676C147.292 11.7676 148.59 12.2317 149.609 13.1291C150.629 14.0265 151.154 15.3262 151.154 16.9662V24.3H148.991V22.629C147.981 23.8978 146.615 24.6126 144.881 24.6404V24.6412ZM148.96 19.0093C147.628 17.9943 144.85 17.8674 143.552 18.9164C142.533 19.9067 142.424 21.2342 143.491 22.0109C146.068 23.6664 149.053 21.0887 148.96 19.0093ZM160.023 24.6412C159.096 24.6412 158.262 24.4555 157.551 24.0532C156.84 23.6509 156.284 23.1558 155.913 22.5679H155.79L155.882 24.2389V29.5923H153.627V12.1087H155.79V13.7797H155.882C156.253 13.1917 156.779 12.6966 157.52 12.2944C158.262 11.8921 159.096 11.7064 159.993 11.7064C161.569 11.7064 162.897 12.3253 164.041 13.5631C165.184 14.8008 165.74 16.3481 165.74 18.1738C165.74 19.9995 165.183 21.5467 164.041 22.7845C162.928 24.0223 161.569 24.6412 160.023 24.6412ZM159.653 22.5369C160.703 22.5369 161.599 22.1347 162.372 21.3301C163.145 20.5256 163.515 19.4734 163.515 18.1428C163.515 16.8122 163.145 15.7601 162.372 14.9556C161.599 14.151 160.703 13.7487 159.653 13.7487C158.571 13.7487 157.675 14.151 156.933 14.9246C156.192 15.7292 155.821 16.7813 155.821 18.1119C155.821 19.4425 156.192 20.5256 156.933 21.2992C157.675 22.1656 158.571 22.5369 159.653 22.5369ZM172.384 24.6412C171.025 24.6412 169.912 24.3008 169.047 23.6509C168.151 23.0011 167.533 22.1656 167.1 21.1754L169.14 20.3399C169.789 21.8562 170.87 22.6298 172.415 22.6298C173.126 22.6298 173.713 22.4758 174.146 22.1656C174.609 21.8562 174.826 21.4539 174.826 20.9278C174.826 20.1233 174.269 19.5972 173.157 19.3187L170.716 18.7308C169.943 18.5451 169.201 18.1428 168.522 17.6168C167.842 17.0907 167.471 16.3171 167.471 15.3888C167.471 14.3057 167.934 13.4393 168.892 12.7895C169.85 12.1087 170.963 11.7992 172.261 11.7992C173.342 11.7992 174.3 12.0468 175.135 12.5419C175.969 13.037 176.587 13.7178 176.927 14.6461L174.949 15.4507C174.517 14.3676 173.59 13.8416 172.168 13.8416C171.488 13.8416 170.932 13.9956 170.469 14.2748C170.006 14.554 169.789 14.9246 169.789 15.4197C169.789 16.1005 170.315 16.5956 171.396 16.8432L173.807 17.4002C174.95 17.6787 175.784 18.1119 176.341 18.7617C176.897 19.4116 177.144 20.1233 177.144 20.9278C177.144 22.0109 176.711 22.9392 175.815 23.6509C174.95 24.2698 173.807 24.6412 172.385 24.6412H172.384Z" fill="#1F4250"/>
<path d="M5.97656 23.1109C6.93781 24.3147 7.91681 25.8284 8.42914 26.7427C9.05307 27.9313 9.31177 28.7338 9.7759 30.1713C10.0473 30.9586 10.306 31.1974 10.8487 31.1974C11.4422 31.1974 11.7136 30.7961 11.9216 30.1713C12.3553 28.8227 12.6901 27.7967 13.2202 26.8189C15.2644 22.9585 18.5971 20.2156 20.4739 16.4568C20.4739 16.4568 21.7091 14.1609 21.7091 10.9456C21.7091 7.94878 20.4917 5.86621 20.4917 5.86621L5.98417 23.1363L5.97656 23.1109Z" fill="#19AA1E"/>
<path d="M1.05682 16.0501C2.22604 18.7168 4.45543 21.0533 5.97719 23.1105L14.0426 13.5358C14.0426 13.5358 12.9038 15.0291 10.8468 15.0291C8.55405 15.0291 6.68735 13.2005 6.68735 10.8894C6.68735 9.2995 7.63338 8.19727 7.63338 8.19727C1.69849 9.08109 2.02821 10.5211 1.03906 16.045L1.05682 16.0501Z" fill="#ECAA0D"/>
<path d="M14.1454 0.499512C16.8339 1.36556 19.1165 3.19161 20.4861 5.85832L14.044 13.5537C14.044 13.5537 14.99 12.4464 14.99 10.8616C14.99 8.50217 13.0016 6.72182 10.8559 6.72182C8.81923 6.72182 7.66016 8.1974 7.66016 8.1974C8.15473 7.06977 13.2653 0.883009 14.153 0.502051L14.1454 0.499512Z" fill="#3368E7"/>
<path d="M2.52734 3.88577C4.13027 1.9759 6.94046 0 10.821 0C12.6953 0 14.1181 0.497785 14.1181 0.497785L7.65062 8.19313C7.21438 7.95618 2.95851 4.63753 2.52734 3.87561V3.88577Z" fill="#2056DB"/>
<path d="M1.05763 16.051C1.05763 16.051 0 13.9481 0 10.9208C0 8.05087 1.12103 5.53655 2.53628 3.91113L7.65955 8.22865L1.06524 16.051H1.05763Z" fill="#D92C27"/>
</svg>
