<svg width="1292" height="231" viewBox="0 0 1292 231" fill="none" xmlns="http://www.w3.org/2000/svg">
<path d="M1291.23 195.148C1291.47 195.023 1291.57 194.722 1291.45 194.475C1291.32 194.229 1291.02 194.131 1290.77 194.257L1291.23 195.148ZM1120.29 148.612L1120.46 148.143L1120.29 148.612ZM978.549 179.369L978.844 179.773V179.773L978.549 179.369ZM869.574 213.691L869.503 214.186L869.574 213.691ZM771.039 185.109L771.086 184.611L771.039 185.109ZM727.049 198.35L726.694 197.998V197.998L727.049 198.35ZM718.293 218.543L718.779 218.425L718.779 218.425L718.293 218.543ZM736.061 230.083L736.175 230.57L736.175 230.57L736.061 230.083ZM739.267 195.07L738.885 195.392L738.885 195.393L739.267 195.07ZM683.395 164.731L683.462 164.236H683.462L683.395 164.731ZM544.146 185.185L544.201 184.688L544.146 185.185ZM414.133 116.324L414.472 115.956L414.471 115.956L414.133 116.324ZM381.139 52.7637L381.639 52.761V52.761L381.139 52.7637ZM428.041 1.50194L428.056 1.00217L428.056 1.00217L428.041 1.50194ZM475.56 30.9154L475.153 31.2064V31.2064L475.56 30.9154ZM482.674 47.2142L483.174 47.2037V47.2036L482.674 47.2142ZM475.56 60.8358L475.565 60.3358L475.555 60.3359L475.56 60.8358ZM469.419 47.5539L468.919 47.5434V47.5434L469.419 47.5539ZM476.255 31.1866L475.858 30.8826L475.858 30.8827L476.255 31.1866ZM523.844 3.84194L523.852 4.34187L523.844 3.84194ZM572.057 56.8049L571.557 56.8021V56.8021L572.057 56.8049ZM531.937 122.53L532.258 122.913V122.913L531.937 122.53ZM391.103 189.893L391.046 189.396L391.103 189.893ZM298.582 169.431L298.286 169.834L298.582 169.431ZM288.748 147.504L288.259 147.404L288.259 147.404L288.748 147.504ZM305.116 136.773L304.987 137.256L304.987 137.256L305.116 136.773ZM314.677 160.071L314.2 159.919V159.919L314.677 160.071ZM257.488 202.886L257.641 203.362H257.641L257.488 202.886ZM125.466 168.896L125.795 168.52L125.795 168.52L125.466 168.896ZM1.14102 151.837C2.11924 151.55 3.08999 151.269 4.05341 150.994L3.77927 150.033C2.81316 150.308 1.83977 150.59 0.858981 150.878L1.14102 151.837ZM9.85115 149.396C11.8236 148.872 13.7645 148.376 15.6749 147.909L15.4375 146.938C13.5202 147.406 11.5729 147.904 9.5942 148.43L9.85115 149.396ZM21.5238 146.548C23.5173 146.108 25.4768 145.702 27.4038 145.329L27.2136 144.347C25.2779 144.722 23.31 145.13 21.3085 145.572L21.5238 146.548ZM33.3312 144.269C35.3488 143.939 37.3298 143.648 39.2764 143.395L39.1478 142.404C37.1898 142.658 35.1978 142.95 33.1699 143.282L33.3312 144.269ZM45.232 142.734C47.2688 142.547 49.2672 142.405 51.2297 142.309L51.1806 141.31C49.2035 141.407 47.1909 141.55 45.1406 141.738L45.232 142.734ZM57.2229 142.154C59.2599 142.151 61.258 142.2 63.2203 142.301L63.2716 141.302C61.2911 141.2 59.2754 141.151 57.2213 141.154L57.2229 142.154ZM69.19 142.78C71.2046 143.001 73.1822 143.282 75.1264 143.62L75.298 142.635C73.3327 142.293 71.3343 142.01 69.2993 141.786L69.19 142.78ZM80.9869 144.841C82.9396 145.316 84.8605 145.855 86.7539 146.455L87.0562 145.502C85.1412 144.895 83.1982 144.35 81.2234 143.869L80.9869 144.841ZM92.3963 148.46C94.2501 149.191 96.0804 149.985 97.8912 150.842L98.3189 149.938C96.4885 149.072 94.6379 148.269 92.7631 147.53L92.3963 148.46ZM103.224 153.577C104.956 154.533 106.673 155.55 108.38 156.626L108.913 155.78C107.191 154.694 105.457 153.668 103.708 152.701L103.224 153.577ZM113.369 159.959C114.98 161.096 116.586 162.287 118.188 163.531L118.801 162.742C117.188 161.488 115.57 160.288 113.946 159.142L113.369 159.959ZM122.852 167.311C123.613 167.953 124.375 168.607 125.137 169.273L125.795 168.52C125.029 167.85 124.263 167.192 123.497 166.546L122.852 167.311ZM125.137 169.273C125.899 169.939 126.66 170.596 127.42 171.242L128.068 170.481C127.312 169.837 126.554 169.184 125.795 168.52L125.137 169.273ZM132.02 175.046C133.595 176.311 135.164 177.534 136.727 178.715L137.33 177.917C135.775 176.742 134.214 175.525 132.646 174.266L132.02 175.046ZM141.546 182.239C143.198 183.408 144.842 184.53 146.478 185.608L147.028 184.773C145.401 183.701 143.766 182.585 142.124 181.423L141.546 182.239ZM151.523 188.811C153.253 189.866 154.973 190.873 156.683 191.832L157.172 190.96C155.473 190.007 153.764 189.006 152.044 187.957L151.523 188.811ZM161.953 194.66C163.758 195.583 165.551 196.455 167.331 197.278L167.751 196.37C165.983 195.553 164.202 194.687 162.409 193.769L161.953 194.66ZM172.812 199.673C174.686 200.445 176.544 201.164 178.387 201.831L178.727 200.89C176.898 200.228 175.053 199.515 173.193 198.749L172.812 199.673ZM184.047 203.736C185.984 204.34 187.902 204.888 189.8 205.383L190.052 204.416C188.17 203.924 186.267 203.381 184.344 202.782L184.047 203.736ZM195.629 206.757C197.613 207.174 199.573 207.535 201.506 207.843L201.664 206.856C199.746 206.55 197.803 206.192 195.835 205.778L195.629 206.757ZM207.438 208.639C209.459 208.858 211.447 209.022 213.403 209.135L213.461 208.137C211.522 208.025 209.55 207.862 207.546 207.644L207.438 208.639ZM219.381 209.329C221.417 209.343 223.412 209.305 225.365 209.219L225.321 208.22C223.385 208.305 221.406 208.343 219.388 208.329L219.381 209.329ZM231.338 208.807C233.369 208.615 235.348 208.376 237.273 208.097L237.13 207.107C235.221 207.384 233.258 207.621 231.244 207.811L231.338 208.807ZM243.169 207.094C245.19 206.699 247.14 206.265 249.015 205.804L248.776 204.833C246.916 205.291 244.982 205.721 242.977 206.112L243.169 207.094ZM254.787 204.242C255.764 203.953 256.715 203.659 257.641 203.362L257.335 202.41C256.417 202.704 255.473 202.996 254.504 203.283L254.787 204.242ZM257.641 203.362C258.621 203.048 259.592 202.723 260.553 202.39L260.225 201.445C259.272 201.776 258.308 202.098 257.335 202.41L257.641 203.362ZM266.305 200.241C268.232 199.468 270.114 198.66 271.95 197.821L271.534 196.911C269.713 197.744 267.845 198.546 265.933 199.312L266.305 200.241ZM277.474 195.134C279.326 194.177 281.122 193.191 282.861 192.182L282.359 191.317C280.634 192.318 278.852 193.296 277.015 194.246L277.474 195.134ZM288.091 188.964C289.849 187.819 291.536 186.653 293.147 185.475L292.556 184.668C290.96 185.835 289.289 186.991 287.545 188.126L288.091 188.964ZM298 181.701C299.639 180.346 301.177 178.984 302.609 177.627L301.921 176.901C300.506 178.242 298.985 179.589 297.363 180.931L298 181.701ZM306.908 173.218C308.368 171.588 309.662 169.981 310.78 168.419L309.967 167.837C308.872 169.367 307.601 170.945 306.163 172.551L306.908 173.218ZM313.984 163.114C314.465 162.118 314.856 161.152 315.153 160.224L314.2 159.919C313.92 160.797 313.547 161.72 313.083 162.68L313.984 163.114ZM315.153 160.224C315.531 159.04 315.828 157.87 316.045 156.718L315.062 156.533C314.853 157.643 314.567 158.774 314.2 159.919L315.153 160.224ZM316.329 149.488C316.011 146.939 315.219 144.607 313.973 142.61L313.125 143.14C314.286 145 315.034 147.191 315.337 149.612L316.329 149.488ZM308.656 137.628C307.614 137.068 306.476 136.618 305.245 136.29L304.987 137.256C306.146 137.565 307.212 137.987 308.183 138.508L308.656 137.628ZM305.245 136.29C304.31 136.04 303.369 135.9 302.435 135.863L302.394 136.862C303.256 136.897 304.124 137.026 304.987 137.256L305.245 136.29ZM296.875 136.855C295.139 137.566 293.543 138.637 292.195 139.999L292.905 140.703C294.16 139.434 295.644 138.44 297.254 137.78L296.875 136.855ZM289.084 144.698C288.731 145.554 288.453 146.458 288.259 147.404L289.238 147.605C289.42 146.721 289.68 145.877 290.009 145.079L289.084 144.698ZM288.259 147.404C288.037 148.484 287.921 149.564 287.899 150.638L288.899 150.657C288.919 149.643 289.029 148.624 289.238 147.605L288.259 147.404ZM288.867 157.034C289.522 159.081 290.482 161.037 291.665 162.844L292.501 162.297C291.364 160.558 290.444 158.682 289.819 156.729L288.867 157.034ZM295.807 167.771C296.599 168.514 297.429 169.205 298.286 169.834L298.878 169.028C298.054 168.423 297.255 167.758 296.492 167.042L295.807 167.771ZM298.286 169.834C299.095 170.428 299.924 171.01 300.773 171.579L301.33 170.749C300.493 170.187 299.675 169.613 298.878 169.028L298.286 169.834ZM305.944 174.766C307.677 175.748 309.472 176.687 311.321 177.583L311.758 176.684C309.927 175.796 308.151 174.867 306.437 173.896L305.944 174.766ZM316.855 180.072C318.7 180.842 320.588 181.572 322.51 182.264L322.849 181.323C320.941 180.637 319.069 179.912 317.24 179.149L316.855 180.072ZM328.261 184.184C330.178 184.777 332.122 185.333 334.087 185.852L334.343 184.885C332.391 184.369 330.46 183.817 328.556 183.228L328.261 184.184ZM339.976 187.284C341.942 187.722 343.923 188.124 345.913 188.49L346.094 187.507C344.116 187.143 342.147 186.743 340.193 186.308L339.976 187.284ZM351.89 189.477C353.891 189.77 355.896 190.027 357.899 190.248L358.008 189.254C356.017 189.035 354.024 188.779 352.035 188.488L351.89 189.477ZM363.93 190.802C365.956 190.951 367.975 191.063 369.98 191.136L370.016 190.136C368.024 190.064 366.018 189.953 364.004 189.805L363.93 190.802ZM376.038 191.24C378.081 191.235 380.102 191.188 382.097 191.1L382.053 190.101C380.073 190.189 378.065 190.235 376.036 190.24L376.038 191.24ZM388.145 190.698C389.16 190.607 390.165 190.504 391.16 190.39L391.046 189.396C390.059 189.51 389.062 189.612 388.055 189.702L388.145 190.698ZM391.16 190.39C392.177 190.273 393.191 190.149 394.2 190.018L394.071 189.026C393.067 189.156 392.058 189.28 391.046 189.396L391.16 190.39ZM400.246 189.144C402.268 188.821 404.273 188.471 406.263 188.094L406.077 187.112C404.097 187.487 402.101 187.835 400.088 188.156L400.246 189.144ZM412.246 186.872C414.245 186.434 416.227 185.969 418.192 185.479L417.95 184.509C415.994 184.997 414.022 185.459 412.032 185.895L412.246 186.872ZM424.095 183.919C426.067 183.368 428.021 182.793 429.957 182.193L429.662 181.238C427.734 181.835 425.789 182.408 423.826 182.956L424.095 183.919ZM435.769 180.308C437.706 179.65 439.625 178.969 441.526 178.266L441.179 177.328C439.287 178.028 437.376 178.706 435.447 179.361L435.769 180.308ZM447.226 176.073C449.126 175.314 451.006 174.535 452.867 173.735L452.472 172.816C450.619 173.612 448.746 174.389 446.855 175.145L447.226 176.073ZM458.445 171.257C460.304 170.403 462.144 169.53 463.964 168.64L463.525 167.742C461.712 168.628 459.88 169.497 458.027 170.348L458.445 171.257ZM469.42 165.894C471.237 164.952 473.034 163.995 474.81 163.023L474.33 162.146C472.56 163.114 470.771 164.068 468.96 165.006L469.42 165.894ZM480.131 160.035C481.905 159.014 483.657 157.98 485.388 156.934L484.871 156.078C483.146 157.12 481.4 158.151 479.632 159.169L480.131 160.035ZM490.584 153.722C492.316 152.627 494.025 151.523 495.712 150.41L495.161 149.575C493.48 150.684 491.776 151.786 490.05 152.877L490.584 153.722ZM500.772 147.005C502.464 145.844 504.132 144.676 505.776 143.505L505.196 142.69C503.556 143.858 501.893 145.023 500.206 146.18L500.772 147.005ZM510.718 139.921C512.369 138.703 513.994 137.482 515.595 136.263L514.989 135.467C513.392 136.684 511.771 137.901 510.125 139.116L510.718 139.921ZM520.425 132.524C522.043 131.253 523.633 129.985 525.196 128.723L524.568 127.945C523.008 129.205 521.421 130.47 519.808 131.737L520.425 132.524ZM529.919 124.86C530.706 124.209 531.486 123.56 532.258 122.913L531.616 122.147C530.845 122.792 530.067 123.44 529.282 124.09L529.919 124.86ZM532.258 122.913C532.978 122.31 533.696 121.696 534.411 121.073L533.754 120.319C533.044 120.938 532.331 121.548 531.616 122.147L532.258 122.913ZM538.61 117.266C539.978 115.977 541.33 114.654 542.66 113.302L541.947 112.601C540.626 113.944 539.283 115.258 537.924 116.539L538.61 117.266ZM546.557 109.187C547.83 107.79 549.077 106.367 550.293 104.924L549.528 104.28C548.321 105.713 547.082 107.125 545.818 108.513L546.557 109.187ZM553.857 100.516C555.021 99.0141 556.148 97.4944 557.232 95.9611L556.416 95.3836C555.34 96.9046 554.222 98.4126 553.067 99.9035L553.857 100.516ZM560.399 91.2548C561.427 89.6427 562.405 88.0203 563.327 86.3922L562.456 85.8997C561.544 87.5117 560.575 89.1189 559.556 90.7169L560.399 91.2548ZM565.976 81.3699C566.821 79.6415 567.596 77.9116 568.294 76.1856L567.367 75.8106C566.678 77.5135 565.913 79.2221 565.078 80.9308L565.976 81.3699ZM570.215 70.8265C570.789 68.9763 571.266 67.1366 571.636 65.3144L570.656 65.1153C570.293 66.9021 569.825 68.7092 569.26 70.53L570.215 70.8265ZM572.438 59.6609C572.512 58.7024 572.552 57.7509 572.557 56.8076L571.557 56.8021C571.552 57.7206 571.513 58.6483 571.441 59.5839L572.438 59.6609ZM572.557 56.8076C572.563 55.8398 572.547 54.8853 572.51 53.9442L571.51 53.9834C571.547 54.9094 571.563 55.849 571.557 56.8021L572.557 56.8076ZM572.018 48.2465C571.756 46.3095 571.403 44.4364 570.967 42.6271L569.995 42.8615C570.423 44.6374 570.77 46.4769 571.027 48.3804L572.018 48.2465ZM569.33 37.1472C568.672 35.3148 567.926 33.5586 567.101 31.8782L566.203 32.3188C567.012 33.9661 567.744 35.688 568.389 37.4851L569.33 37.1472ZM564.293 26.8922C563.248 25.26 562.127 23.7145 560.942 22.2552L560.166 22.8855C561.327 24.3163 562.427 25.8314 563.451 27.4314L564.293 26.8922ZM557.097 18.0219C555.718 16.6621 554.283 15.3986 552.809 14.2306L552.188 15.0144C553.634 16.1605 555.042 17.4002 556.395 18.7339L557.097 18.0219ZM548.141 10.9225C546.498 9.88457 544.828 8.95453 543.15 8.13156L542.71 9.02935C544.356 9.83673 545.995 10.7494 547.607 11.768L548.141 10.9225ZM537.879 5.89784C536.022 5.23177 534.18 4.69642 532.38 4.29094L532.16 5.26651C533.919 5.6627 535.722 6.18644 537.541 6.83912L537.879 5.89784ZM526.706 3.42919C525.724 3.35613 524.766 3.32706 523.836 3.342L523.852 4.34187C524.75 4.32745 525.678 4.35548 526.632 4.42643L526.706 3.42919ZM523.836 3.342C522.892 3.35716 521.936 3.40508 520.972 3.48578L521.055 4.4823C521.998 4.40343 522.931 4.35667 523.852 4.34187L523.836 3.342ZM515.307 4.31713C513.481 4.69741 511.635 5.18856 509.778 5.79099L510.087 6.74217C511.91 6.15055 513.721 5.6688 515.51 5.29612L515.307 4.31713ZM504.435 7.82415C502.724 8.57205 501.012 9.41396 499.309 10.3503L499.79 11.2266C501.468 10.3046 503.152 9.47608 504.836 8.74047L504.435 7.82415ZM494.427 13.3111C492.871 14.3463 491.328 15.4627 489.805 16.6608L490.423 17.4467C491.926 16.2649 493.447 15.164 494.981 14.1437L494.427 13.3111ZM485.458 20.3581C484.08 21.6224 482.724 22.958 481.397 24.365L482.124 25.0512C483.435 23.6616 484.773 22.343 486.134 21.0951L485.458 20.3581ZM477.631 28.6458C477.033 29.3754 476.441 30.121 475.858 30.8826L476.652 31.4907C477.228 30.7379 477.813 30.0011 478.404 29.2801L477.631 28.6458ZM475.858 30.8827C475.383 31.5024 474.935 32.1146 474.511 32.7199L475.331 33.2929C475.745 32.7001 476.185 32.0996 476.652 31.4906L475.858 30.8827ZM472.097 36.5929C471.323 38.016 470.696 39.4054 470.21 40.7699L471.152 41.1055C471.619 39.7949 472.223 38.453 472.975 37.0709L472.097 36.5929ZM469.102 45.2393C468.995 46.0127 468.935 46.7802 468.919 47.5434L469.919 47.5644C469.934 46.84 469.991 46.111 470.092 45.3754L469.102 45.2393ZM468.919 47.5434C468.89 48.9271 468.991 50.2647 469.194 51.5262L470.181 51.3677C469.988 50.1635 469.891 48.8859 469.919 47.5644L468.919 47.5434ZM472.057 58.9771C473.077 60.376 474.317 61.3486 475.565 61.3358L475.555 60.3359C474.817 60.3434 473.842 59.7271 472.865 58.3878L472.057 58.9771ZM475.555 61.3358C476.178 61.3422 476.822 61.0892 477.436 60.6852C478.055 60.2777 478.68 59.6933 479.275 58.9762L478.505 58.3376C477.956 59.0002 477.402 59.5102 476.886 59.8498C476.365 60.1928 475.917 60.3395 475.565 60.3359L475.555 61.3358ZM482.777 51.3864C483.056 50.0571 483.205 48.6498 483.174 47.2037L482.175 47.2247C482.203 48.589 482.063 49.9203 481.799 51.1811L482.777 51.3864ZM483.174 47.2036C483.158 46.4323 483.086 45.6621 482.961 44.8894L481.974 45.0494C482.092 45.778 482.159 46.5018 482.175 47.2247L483.174 47.2036ZM481.694 40.4536C481.158 39.114 480.483 37.7491 479.683 36.342L478.814 36.8364C479.596 38.2125 480.249 39.5361 480.766 40.8254L481.694 40.4536ZM477.265 32.4862C476.852 31.876 476.418 31.2558 475.967 30.6244L475.153 31.2064C475.601 31.8317 476.029 32.445 476.438 33.0474L477.265 32.4862ZM475.967 30.6244C475.397 29.8281 474.82 29.0467 474.237 28.2803L473.441 28.886C474.018 29.6445 474.589 30.418 475.153 31.2064L475.967 30.6244ZM470.57 23.7597C469.278 22.2661 467.958 20.8413 466.613 19.4866L465.903 20.1911C467.232 21.5291 468.536 22.9372 469.814 24.414L470.57 23.7597ZM462.357 15.5051C460.863 14.21 459.342 12.9971 457.799 11.8682L457.208 12.6754C458.729 13.7875 460.228 14.9832 461.703 16.2609L462.357 15.5051ZM452.939 8.63737C451.245 7.62034 449.528 6.70101 447.792 5.88155L447.365 6.78585C449.07 7.59071 450.758 8.49428 452.424 9.49475L452.939 8.63737ZM442.383 3.67345C440.523 3.03072 438.646 2.50074 436.756 2.08602L436.542 3.06276C438.392 3.46896 440.232 3.9883 442.057 4.61864L442.383 3.67345ZM430.978 1.1828C430.006 1.09197 429.032 1.03166 428.056 1.00217L428.026 2.00171C428.98 2.03056 429.933 2.08958 430.884 2.17846L430.978 1.1828ZM428.056 1.00217C426.997 0.970187 425.905 0.991507 424.786 1.06671L424.853 2.06446C425.941 1.99132 427.001 1.97076 428.026 2.00172L428.056 1.00217ZM418.331 2.04782C416.281 2.52611 414.193 3.16823 412.104 3.97815L412.466 4.91053C414.512 4.11732 416.555 3.48915 418.558 3.02166L418.331 2.04782ZM406.198 6.73384C404.33 7.76075 402.49 8.92936 400.706 10.2429L401.299 11.0482C403.047 9.76137 404.85 8.61635 406.68 7.61012L406.198 6.73384ZM395.726 14.4479C394.192 15.931 392.729 17.5419 391.36 19.2832L392.146 19.9012C393.486 18.1965 394.919 16.6193 396.421 15.167L395.726 14.4479ZM387.69 24.6734C386.619 26.5042 385.645 28.4464 384.787 30.502L385.709 30.8874C386.55 28.8733 387.504 26.971 388.553 25.1785L387.69 24.6734ZM382.668 36.6647C382.11 38.6977 381.657 40.8223 381.322 43.0398L382.31 43.1892C382.64 41.0101 383.084 38.924 383.632 36.9295L382.668 36.6647ZM380.7 49.5136C380.654 50.5793 380.633 51.6635 380.639 52.7665L381.639 52.761C381.633 51.6741 381.654 50.6061 381.699 49.557L380.7 49.5136ZM380.639 52.7665C380.645 53.793 380.679 54.8228 380.74 55.8552L381.738 55.7962C381.678 54.7813 381.645 53.7694 381.639 52.761L380.639 52.7665ZM381.417 61.9958C381.74 64.0072 382.161 66.0235 382.677 68.04L383.646 67.7924C383.137 65.8042 382.722 63.8176 382.405 61.8373L381.417 61.9958ZM384.454 73.9493C385.118 75.8706 385.865 77.7881 386.69 79.6976L387.608 79.3009C386.792 77.4136 386.055 75.5195 385.399 73.6226L384.454 73.9493ZM389.329 85.2656C390.262 87.0716 391.263 88.8667 392.329 90.6475L393.187 90.1337C392.131 88.3705 391.14 86.5937 390.218 84.807L389.329 85.2656ZM395.65 95.8359C396.795 97.5162 397.999 99.18 399.258 100.824L400.052 100.216C398.804 98.5864 397.611 96.9374 396.476 95.2727L395.65 95.8359ZM403.127 105.614C404.447 107.164 405.816 108.693 407.232 110.198L407.96 109.513C406.556 108.02 405.197 106.503 403.888 104.966L403.127 105.614ZM411.555 114.579C412.291 115.289 413.037 115.994 413.794 116.691L414.471 115.956C413.721 115.264 412.98 114.565 412.25 113.859L411.555 114.579ZM413.794 116.691C414.548 117.387 415.313 118.086 416.088 118.787L416.759 118.045C415.986 117.347 415.224 116.65 414.472 115.956L413.794 116.691ZM420.752 122.923C422.298 124.268 423.879 125.618 425.491 126.969L426.133 126.203C424.526 124.856 422.95 123.51 421.409 122.169L420.752 122.923ZM430.309 130.933C431.908 132.224 433.535 133.514 435.189 134.801L435.803 134.012C434.154 132.729 432.532 131.442 430.937 130.155L430.309 130.933ZM440.144 138.585C441.795 139.823 443.47 141.055 445.166 142.278L445.751 141.467C444.06 140.247 442.39 139.019 440.743 137.785L440.144 138.585ZM450.253 145.876C451.953 147.055 453.673 148.223 455.41 149.379L455.964 148.546C454.232 147.394 452.518 146.229 450.823 145.054L450.253 145.876ZM460.634 152.782C462.382 153.896 464.146 154.995 465.924 156.078L466.444 155.224C464.672 154.145 462.914 153.049 461.172 151.939L460.634 152.782ZM471.282 159.264C473.079 160.306 474.889 161.329 476.71 162.332L477.192 161.456C475.378 160.457 473.574 159.437 471.784 158.399L471.282 159.264ZM482.206 165.276C484.052 166.236 485.908 167.174 487.773 168.087L488.213 167.188C486.355 166.28 484.507 165.346 482.668 164.389L482.206 165.276ZM493.41 170.754C495.305 171.621 497.208 172.459 499.117 173.268L499.507 172.347C497.607 171.542 495.713 170.707 493.826 169.845L493.41 170.754ZM504.898 175.616C506.844 176.373 508.795 177.096 510.749 177.784L511.082 176.841C509.138 176.157 507.197 175.437 505.261 174.684L504.898 175.616ZM516.668 179.756C518.663 180.382 520.66 180.969 522.658 181.515L522.922 180.55C520.936 180.007 518.951 179.424 516.967 178.802L516.668 179.756ZM528.713 183.04C530.752 183.509 532.789 183.933 534.824 184.309L535.006 183.326C532.986 182.953 530.962 182.532 528.938 182.065L528.713 183.04ZM540.994 185.3C542.028 185.441 543.06 185.568 544.091 185.682L544.201 184.688C543.178 184.575 542.154 184.449 541.129 184.309L540.994 185.3ZM544.091 185.682C545.085 185.792 546.074 185.888 547.058 185.972L547.143 184.975C546.167 184.893 545.187 184.797 544.201 184.688L544.091 185.682ZM552.978 186.324C554.974 186.393 556.951 186.41 558.908 186.381L558.893 185.381C556.952 185.41 554.992 185.393 553.013 185.325L552.978 186.324ZM564.843 186.151C566.832 186.027 568.802 185.858 570.755 185.649L570.648 184.655C568.709 184.863 566.754 185.03 564.781 185.153L564.843 186.151ZM576.635 184.896C578.6 184.605 580.548 184.276 582.482 183.916L582.299 182.933C580.377 183.291 578.44 183.617 576.488 183.907L576.635 184.896ZM588.292 182.736C590.227 182.312 592.149 181.861 594.059 181.389L593.819 180.418C591.917 180.888 590.004 181.337 588.078 181.76L588.292 182.736ZM599.792 179.904C601.702 179.389 603.603 178.857 605.494 178.316L605.219 177.354C603.331 177.895 601.436 178.425 599.531 178.939L599.792 179.904ZM611.172 176.659C613.067 176.097 614.956 175.531 616.838 174.966L616.551 174.008C614.668 174.573 612.781 175.139 610.888 175.7L611.172 176.659ZM622.501 173.275C624.394 172.714 626.283 172.161 628.17 171.622L627.895 170.66C626.004 171.201 624.112 171.755 622.217 172.316L622.501 173.275ZM633.859 170.044C635.763 169.533 637.667 169.044 639.574 168.58L639.338 167.609C637.423 168.074 635.511 168.566 633.6 169.078L633.859 170.044ZM645.322 167.272C647.246 166.866 649.174 166.494 651.108 166.161L650.939 165.175C648.991 165.511 647.05 165.886 645.116 166.294L645.322 167.272ZM656.932 165.286C658.874 165.04 660.825 164.838 662.785 164.689L662.709 163.692C660.731 163.843 658.764 164.046 656.806 164.294L656.932 165.286ZM668.659 164.404C670.609 164.364 672.569 164.381 674.544 164.46L674.584 163.461C672.589 163.381 670.608 163.364 668.639 163.404L668.659 164.404ZM680.4 164.877C681.372 164.977 682.348 165.094 683.328 165.226L683.462 164.236C682.472 164.101 681.485 163.984 680.503 163.882L680.4 164.877ZM683.328 165.226C684.419 165.375 685.492 165.535 686.546 165.707L686.708 164.72C685.644 164.547 684.563 164.385 683.462 164.236L683.328 165.226ZM692.917 166.941C695.095 167.433 697.186 167.981 699.198 168.581L699.484 167.623C697.45 167.016 695.337 166.462 693.138 165.966L692.917 166.941ZM705.338 170.666C707.409 171.46 709.389 172.316 711.288 173.23L711.722 172.329C709.798 171.403 707.793 170.536 705.696 169.733L705.338 170.666ZM716.998 176.29C718.887 177.411 720.69 178.595 722.42 179.837L723.003 179.025C721.251 177.766 719.423 176.566 717.508 175.43L716.998 176.29ZM727.519 183.834C729.173 185.243 730.76 186.709 732.292 188.225L732.995 187.514C731.447 185.982 729.842 184.499 728.168 183.073L727.519 183.834ZM736.756 192.938C737.475 193.745 738.184 194.564 738.885 195.392L739.649 194.747C738.943 193.912 738.228 193.087 737.502 192.273L736.756 192.938ZM738.885 195.393C739.462 196.075 740.004 196.758 740.512 197.439L741.314 196.841C740.793 196.143 740.239 195.445 739.648 194.747L738.885 195.393ZM743.332 201.808C744.21 203.413 744.908 204.996 745.44 206.545L746.386 206.22C745.834 204.616 745.114 202.98 744.209 201.328L743.332 201.808ZM746.622 211.569C746.847 213.368 746.845 215.09 746.643 216.707L747.636 216.831C747.848 215.128 747.85 213.323 747.614 211.445L746.622 211.569ZM745.291 221.633C744.572 223.242 743.617 224.664 742.472 225.857L743.193 226.549C744.421 225.27 745.44 223.751 746.204 222.041L745.291 221.633ZM738.35 228.78C737.585 229.126 736.782 229.4 735.946 229.597L736.175 230.57C737.074 230.358 737.938 230.063 738.762 229.692L738.35 228.78ZM735.946 229.597C735.06 229.805 734.104 229.935 733.111 229.968L733.144 230.967C734.202 230.932 735.224 230.794 736.175 230.57L735.946 229.597ZM727.489 229.059C725.788 228.418 724.156 227.415 722.742 225.969L722.027 226.668C723.55 228.227 725.309 229.306 727.136 229.995L727.489 229.059ZM719.661 221.174C719.318 220.332 719.021 219.417 718.779 218.425L717.807 218.662C718.06 219.699 718.372 220.661 718.735 221.552L719.661 221.174ZM718.779 218.425C718.558 217.52 718.446 216.609 718.434 215.694L717.434 215.707C717.447 216.695 717.568 217.682 717.807 218.662L718.779 218.425ZM719.431 210.255C720.047 208.574 720.923 206.901 721.998 205.259L721.161 204.712C720.054 206.404 719.139 208.145 718.492 209.911L719.431 210.255ZM725.458 200.776C726.083 200.072 726.733 199.38 727.405 198.702L726.694 197.998C726.011 198.688 725.347 199.394 724.71 200.112L725.458 200.776ZM727.405 198.702C728.061 198.039 728.778 197.397 729.55 196.775L728.922 195.996C728.124 196.639 727.379 197.307 726.694 197.998L727.405 198.702ZM734.363 193.536C735.998 192.608 737.753 191.749 739.595 190.966L739.203 190.045C737.331 190.842 735.54 191.717 733.869 192.667L734.363 193.536ZM745.072 188.933C746.915 188.339 748.803 187.816 750.706 187.367L750.477 186.394C748.549 186.849 746.635 187.379 744.765 187.981L745.072 188.933ZM756.446 186.242C758.409 185.936 760.356 185.712 762.255 185.574L762.183 184.577C760.255 184.716 758.281 184.943 756.292 185.254L756.446 186.242ZM768.089 185.434C769.086 185.462 770.056 185.52 770.993 185.607L771.086 184.611C770.126 184.522 769.134 184.463 768.117 184.434L768.089 185.434ZM770.993 185.607C771.955 185.696 772.905 185.793 773.844 185.896L773.954 184.902C773.009 184.798 772.053 184.701 771.086 184.611L770.993 185.607ZM779.495 186.62C781.418 186.901 783.295 187.211 785.129 187.547L785.309 186.563C783.464 186.225 781.575 185.913 779.639 185.63L779.495 186.62ZM790.713 188.677C792.606 189.096 794.453 189.542 796.259 190.011L796.511 189.044C794.693 188.571 792.834 188.122 790.929 187.701L790.713 188.677ZM801.756 191.542C803.608 192.092 805.419 192.665 807.195 193.254L807.51 192.305C805.725 191.712 803.904 191.137 802.041 190.584L801.756 191.542ZM812.583 195.127C814.396 195.784 816.177 196.455 817.932 197.135L818.293 196.202C816.532 195.521 814.745 194.847 812.924 194.187L812.583 195.127ZM823.246 199.239C825.028 199.958 826.79 200.68 828.541 201.398L828.92 200.473C827.169 199.755 825.405 199.032 823.62 198.312L823.246 199.239ZM833.839 203.563C835.613 204.283 837.384 204.991 839.16 205.682L839.523 204.75C837.753 204.062 835.986 203.355 834.214 202.636L833.839 203.563ZM844.526 207.7C846.319 208.347 848.125 208.97 849.953 209.561L850.261 208.61C848.445 208.022 846.649 207.403 844.866 206.759L844.526 207.7ZM855.451 211.215C857.277 211.722 859.131 212.191 861.022 212.618L861.242 211.643C859.368 211.22 857.53 210.754 855.718 210.251L855.451 211.215ZM866.661 213.738C867.598 213.899 868.545 214.048 869.503 214.186L869.645 213.196C868.696 213.06 867.758 212.912 866.83 212.753L866.661 213.738ZM869.503 214.186C870.48 214.326 871.455 214.452 872.427 214.564L872.541 213.571C871.578 213.46 870.613 213.335 869.645 213.196L869.503 214.186ZM878.285 215.076C880.257 215.194 882.219 215.258 884.169 215.269L884.176 214.269C882.243 214.258 880.299 214.195 878.345 214.078L878.285 215.076ZM890.049 215.15C892.019 215.059 893.976 214.917 895.918 214.729L895.821 213.734C893.896 213.921 891.956 214.061 890.003 214.151L890.049 215.15ZM901.756 214.018C903.705 213.733 905.638 213.403 907.552 213.032L907.362 212.05C905.462 212.418 903.545 212.746 901.611 213.029L901.756 214.018ZM913.299 211.784C915.215 211.324 917.11 210.824 918.983 210.29L918.709 209.329C916.849 209.859 914.967 210.355 913.065 210.811L913.299 211.784ZM924.604 208.565C926.477 207.949 928.326 207.301 930.149 206.625L929.801 205.687C927.99 206.359 926.153 207.003 924.291 207.615L924.604 208.565ZM935.621 204.482C937.449 203.728 939.247 202.949 941.014 202.15L940.602 201.239C938.845 202.034 937.057 202.808 935.24 203.557L935.621 204.482ZM946.323 199.644C948.105 198.768 949.851 197.874 951.557 196.969L951.089 196.086C949.391 196.986 947.654 197.875 945.882 198.746L946.323 199.644ZM956.703 194.144C958.437 193.16 960.124 192.169 961.763 191.178L961.245 190.322C959.614 191.309 957.935 192.295 956.21 193.275L956.703 194.144ZM966.75 188.07C968.448 186.98 970.083 185.9 971.652 184.837L971.091 184.009C969.529 185.067 967.901 186.143 966.21 187.228L966.75 188.07ZM976.469 181.487C977.284 180.906 978.076 180.334 978.844 179.773L978.254 178.966C977.489 179.525 976.7 180.094 975.889 180.673L976.469 181.487ZM978.844 179.773C979.656 179.179 980.463 178.593 981.263 178.013L980.677 177.203C979.875 177.784 979.068 178.371 978.254 178.966L978.844 179.773ZM986.06 174.573C987.694 173.413 989.303 172.283 990.888 171.183L990.319 170.361C988.73 171.463 987.118 172.595 985.481 173.757L986.06 174.573ZM995.757 167.851C997.422 166.728 999.06 165.64 1000.67 164.585L1000.13 163.748C998.509 164.805 996.866 165.896 995.198 167.022L995.757 167.851ZM1005.65 161.398C1007.35 160.327 1009.03 159.296 1010.68 158.305L1010.17 157.448C1008.51 158.443 1006.82 159.477 1005.11 160.552L1005.65 161.398ZM1015.78 155.325C1017.54 154.331 1019.26 153.384 1020.96 152.482L1020.49 151.599C1018.78 152.505 1017.05 153.457 1015.29 154.456L1015.78 155.325ZM1026.22 149.803C1028.02 148.923 1029.8 148.095 1031.56 147.321L1031.16 146.406C1029.39 147.186 1027.6 148.019 1025.78 148.905L1026.22 149.803ZM1036.99 145.068C1038.86 144.341 1040.71 143.676 1042.54 143.072L1042.23 142.122C1040.38 142.732 1038.51 143.403 1036.63 144.135L1036.99 145.068ZM1048.18 141.388C1050.1 140.874 1052 140.428 1053.9 140.048L1053.71 139.068C1051.79 139.452 1049.86 139.903 1047.92 140.422L1048.18 141.388ZM1059.7 139.086C1061.65 138.83 1063.6 138.642 1065.55 138.521L1065.49 137.523C1063.52 137.645 1061.55 137.835 1059.57 138.094L1059.7 139.086ZM1071.43 138.359C1073.38 138.371 1075.33 138.447 1077.3 138.585L1077.37 137.588C1075.38 137.448 1073.4 137.371 1071.43 137.359L1071.43 138.359ZM1083.16 139.172C1085.08 139.421 1087.01 139.725 1088.98 140.084L1089.16 139.101C1087.18 138.739 1085.22 138.432 1083.28 138.181L1083.16 139.172ZM1094.74 141.275C1096.62 141.706 1098.52 142.184 1100.46 142.707L1100.72 141.742C1098.77 141.216 1096.86 140.735 1094.96 140.3L1094.74 141.275ZM1106.14 144.342C1107.98 144.902 1109.85 145.5 1111.75 146.135L1112.06 145.186C1110.16 144.549 1108.28 143.949 1106.43 143.385L1106.14 144.342ZM1117.32 148.065C1118.25 148.396 1119.18 148.735 1120.12 149.081L1120.46 148.143C1119.52 147.795 1118.59 147.456 1117.66 147.124L1117.32 148.065ZM1120.12 149.081C1121.06 149.427 1122 149.79 1122.95 150.169L1123.32 149.24C1122.36 148.858 1121.41 148.492 1120.46 148.143L1120.12 149.081ZM1128.6 152.562C1130.43 153.38 1132.28 154.247 1134.15 155.156L1134.58 154.257C1132.7 153.344 1130.84 152.472 1129.01 151.649L1128.6 152.562ZM1139.62 157.897C1141.41 158.819 1143.22 159.772 1145.05 160.749L1145.52 159.868C1143.69 158.888 1141.87 157.933 1140.08 157.008L1139.62 157.897ZM1150.44 163.677C1152.21 164.653 1154 165.647 1155.81 166.653L1156.29 165.78C1154.49 164.773 1152.7 163.778 1150.92 162.801L1150.44 163.677ZM1161.16 169.652C1162.94 170.647 1164.73 171.649 1166.52 172.654L1167.01 171.781C1165.21 170.777 1163.43 169.775 1161.65 168.78L1161.16 169.652ZM1171.89 175.639C1173.68 176.626 1175.48 177.61 1177.28 178.589L1177.76 177.709C1175.96 176.732 1174.16 175.749 1172.38 174.764L1171.89 175.639ZM1182.71 181.485C1184.52 182.438 1186.34 183.381 1188.17 184.309L1188.62 183.417C1186.8 182.492 1184.98 181.551 1183.17 180.6L1182.71 181.485ZM1193.68 187.043C1195.52 187.938 1197.38 188.814 1199.24 189.666L1199.66 188.757C1197.8 187.908 1195.95 187.035 1194.11 186.143L1193.68 187.043ZM1204.87 192.156C1206.76 192.963 1208.66 193.742 1210.56 194.489L1210.93 193.558C1209.03 192.815 1207.14 192.04 1205.26 191.236L1204.87 192.156ZM1216.33 196.639C1218.27 197.324 1220.22 197.972 1222.18 198.576L1222.47 197.621C1220.53 197.021 1218.6 196.377 1216.66 195.696L1216.33 196.639ZM1228.1 200.27C1230.1 200.792 1232.1 201.265 1234.1 201.685L1234.3 200.706C1232.32 200.29 1230.33 199.821 1228.35 199.302L1228.1 200.27ZM1240.17 202.784C1242.21 203.094 1244.25 203.344 1246.29 203.528L1246.38 202.532C1244.36 202.35 1242.34 202.102 1240.32 201.795L1240.17 202.784ZM1252.45 203.882C1254.51 203.93 1256.57 203.908 1258.63 203.81L1258.58 202.811C1256.54 202.908 1254.51 202.93 1252.48 202.882L1252.45 203.882ZM1264.78 203.286C1266.81 203.035 1268.84 202.705 1270.87 202.292L1270.67 201.312C1268.67 201.72 1266.66 202.045 1264.65 202.293L1264.78 203.286ZM1276.87 200.823C1278.82 200.262 1280.78 199.618 1282.73 198.889L1282.38 197.952C1280.45 198.673 1278.52 199.308 1276.59 199.862L1276.87 200.823ZM1288.43 196.509C1289.36 196.076 1290.29 195.622 1291.23 195.148L1290.77 194.257C1289.85 194.726 1288.93 195.174 1288.01 195.601L1288.43 196.509Z" fill="#4A7B8F"/>
</svg>
