<svg width="148" height="62" viewBox="0 0 148 62" fill="none" xmlns="http://www.w3.org/2000/svg">
<mask id="path-1-inside-1_2001_2733" fill="white">
<path fill-rule="evenodd" clip-rule="evenodd" d="M127.515 40.9425C128.117 39.4973 129.224 38.2809 130.288 37.1113L130.289 37.1113C130.455 36.9289 130.619 36.7476 130.781 36.5667C130.912 36.4158 131.044 36.2659 131.177 36.1169C131.278 35.9998 131.376 35.8826 131.472 35.7651C133.068 33.8189 134.844 32.0649 136.836 30.2771C136.998 30.1313 137.161 29.9857 137.324 29.8401C138.552 28.7406 139.78 27.6413 140.895 26.444C143.053 23.6456 144.463 20.199 143.989 15.1174C143.649 11.485 140.467 8.89261 136.438 8.43999C129.502 7.65921 125.68 11.6322 123.383 15.7397C123.394 16.0452 123.224 15.9547 123.258 15.7397C124.226 13.4409 125.239 11.2589 126.873 9.49782C127.44 8.72586 128.083 7.99989 128.836 7.30642C131.201 5.14515 134.924 3.24413 139.45 3.68543C144.055 4.13806 147.224 8.32483 147.563 13.0434C148.021 19.1481 145.905 22.9746 142.976 26.1171C141.548 27.9688 139.795 29.5424 138.003 31.095C137.316 31.6892 136.616 32.274 135.916 32.8593C132.069 36.075 128.202 39.3066 126.393 44.1984C126.549 43.0039 126.963 41.9334 127.515 40.9425ZM108 16.292C108.272 11.7205 111.989 7.68737 117.16 7.61948C120.589 7.57422 122.899 9.42053 124.953 11.3094C123.451 10.368 121.316 9.28046 119.152 9.11314C113.551 8.70578 109.448 11.8449 108 16.292ZM124.953 11.3094L125.018 11.35C125.278 11.4858 125.09 11.5702 124.954 11.3099L124.953 11.3094Z"/>
</mask>
<path fill-rule="evenodd" clip-rule="evenodd" d="M127.515 40.9425C128.117 39.4973 129.224 38.2809 130.288 37.1113L130.289 37.1113C130.455 36.9289 130.619 36.7476 130.781 36.5667C130.912 36.4158 131.044 36.2659 131.177 36.1169C131.278 35.9998 131.376 35.8826 131.472 35.7651C133.068 33.8189 134.844 32.0649 136.836 30.2771C136.998 30.1313 137.161 29.9857 137.324 29.8401C138.552 28.7406 139.78 27.6413 140.895 26.444C143.053 23.6456 144.463 20.199 143.989 15.1174C143.649 11.485 140.467 8.89261 136.438 8.43999C129.502 7.65921 125.68 11.6322 123.383 15.7397C123.394 16.0452 123.224 15.9547 123.258 15.7397C124.226 13.4409 125.239 11.2589 126.873 9.49782C127.44 8.72586 128.083 7.99989 128.836 7.30642C131.201 5.14515 134.924 3.24413 139.45 3.68543C144.055 4.13806 147.224 8.32483 147.563 13.0434C148.021 19.1481 145.905 22.9746 142.976 26.1171C141.548 27.9688 139.795 29.5424 138.003 31.095C137.316 31.6892 136.616 32.274 135.916 32.8593C132.069 36.075 128.202 39.3066 126.393 44.1984C126.549 43.0039 126.963 41.9334 127.515 40.9425ZM108 16.292C108.272 11.7205 111.989 7.68737 117.16 7.61948C120.589 7.57422 122.899 9.42053 124.953 11.3094C123.451 10.368 121.316 9.28046 119.152 9.11314C113.551 8.70578 109.448 11.8449 108 16.292ZM124.953 11.3094L125.018 11.35C125.278 11.4858 125.09 11.5702 124.954 11.3099L124.953 11.3094Z" fill="#01A7E1"/>
<path d="M130.288 37.1113L126.84 33.6624L126.758 33.7436L126.681 33.8286L130.288 37.1113ZM127.515 40.9425L131.777 43.3144L131.911 43.0738L132.017 42.8196L127.515 40.9425ZM130.289 37.1113L133.737 40.5603L133.819 40.479L133.896 40.3941L130.289 37.1113ZM130.781 36.5667L134.416 39.8196L134.443 39.7895L134.469 39.7589L130.781 36.5667ZM131.177 36.1169L134.816 39.365L134.846 39.3312L134.875 39.2969L131.177 36.1169ZM131.472 35.7651L127.7 32.6729L127.697 32.6765L131.472 35.7651ZM136.836 30.2771L140.094 33.9066L140.095 33.9061L136.836 30.2771ZM137.324 29.8401L134.07 26.2059L134.07 26.2059L137.324 29.8401ZM140.895 26.444L144.464 29.7677L144.619 29.6019L144.757 29.4225L140.895 26.444ZM143.989 15.1174L148.845 14.6644L148.845 14.6635L143.989 15.1174ZM136.438 8.43999L135.893 13.2869L135.894 13.287L136.438 8.43999ZM123.383 15.7397L119.126 13.359L118.458 14.5531L118.509 15.9202L123.383 15.7397ZM123.258 15.7397L118.763 13.8469L118.533 14.3934L118.441 14.979L123.258 15.7397ZM126.873 9.49782L130.449 12.8155L130.639 12.6103L130.805 12.3846L126.873 9.49782ZM128.836 7.30642L125.545 3.70592L125.538 3.71259L125.531 3.7193L128.836 7.30642ZM139.45 3.68543L139.927 -1.16873L139.923 -1.16909L139.45 3.68543ZM147.563 13.0434L142.698 13.3934L142.699 13.4007L142.699 13.4081L147.563 13.0434ZM142.976 26.1171L139.408 22.7917L139.253 22.958L139.114 23.138L142.976 26.1171ZM138.003 31.095L141.195 34.783L141.196 34.7821L138.003 31.095ZM135.916 32.8593L139.044 36.6018L139.044 36.6018L135.916 32.8593ZM126.393 44.1984L121.556 43.5667L130.968 45.8904L126.393 44.1984ZM117.16 7.61948L117.224 12.4966L117.225 12.4966L117.16 7.61948ZM108 16.292L103.131 16.0027L112.638 17.8025L108 16.292ZM119.152 9.11314L119.528 4.2501L119.517 4.24925L119.506 4.24844L119.152 9.11314ZM125.018 11.35L122.421 15.4784L122.587 15.5833L122.762 15.6744L125.018 11.35ZM124.954 11.3099L129.278 9.05374L128.884 8.2981L128.257 7.72094L124.954 11.3099ZM126.681 33.8286C125.735 34.8683 123.998 36.7022 123.013 39.0653L132.017 42.8196C132.236 42.2925 132.714 41.6935 133.896 40.3941L126.681 33.8286ZM126.84 33.6624L126.84 33.6624L133.737 40.5603L133.737 40.5603L126.84 33.6624ZM127.147 33.3139C127.001 33.4772 126.849 33.6436 126.681 33.8286L133.896 40.3941C134.06 40.2142 134.238 40.018 134.416 39.8196L127.147 33.3139ZM134.469 39.7589C134.583 39.6272 134.699 39.4959 134.816 39.365L127.538 32.8688C127.389 33.0359 127.241 33.2045 127.093 33.3746L134.469 39.7589ZM127.697 32.6765C127.63 32.7583 127.558 32.8447 127.478 32.9369L134.875 39.2969C134.997 39.1548 135.122 39.0068 135.247 38.8538L127.697 32.6765ZM133.578 26.6475C131.483 28.5275 129.51 30.465 127.7 32.6729L135.244 38.8574C136.625 37.1727 138.205 35.6024 140.094 33.9066L133.578 26.6475ZM134.07 26.2059C133.908 26.351 133.743 26.4992 133.577 26.648L140.095 33.9061C140.254 33.7633 140.414 33.6203 140.577 33.4742L134.07 26.2059ZM137.325 23.1202C136.387 24.1278 135.327 25.0808 134.07 26.2059L140.577 33.4742C141.776 32.4004 143.173 31.1549 144.464 29.7677L137.325 23.1202ZM144.757 29.4225C147.608 25.7259 149.442 21.0699 148.845 14.6644L139.132 15.5703C139.483 19.3281 138.497 21.5654 137.032 23.4655L144.757 29.4225ZM148.845 14.6635C148.23 8.07848 142.588 4.22271 136.983 3.59294L135.894 13.287C137.045 13.4164 137.894 13.8333 138.409 14.2776C138.892 14.6947 139.091 15.1282 139.132 15.5712L148.845 14.6635ZM136.984 3.59305C132.4 3.07708 128.553 4.13627 125.462 6.20068C122.479 8.19273 120.486 10.9269 119.126 13.359L127.64 18.1204C128.577 16.4449 129.643 15.1389 130.88 14.3128C132.008 13.559 133.54 13.0221 135.893 13.2869L136.984 3.59305ZM118.509 15.9202C118.5 15.6931 118.48 14.8802 118.904 13.9226C119.122 13.4314 119.615 12.5483 120.643 11.866C121.825 11.0822 123.328 10.8365 124.747 11.2731C127.058 11.9844 127.765 13.9355 127.907 14.3746C128.165 15.1734 128.169 15.9133 128.076 16.5004L118.441 14.979C118.331 15.6736 118.344 16.5055 118.624 17.3722C118.787 17.8791 119.529 19.8741 121.878 20.5968C123.315 21.0389 124.836 20.7908 126.036 19.9953C127.082 19.3014 127.591 18.3973 127.823 17.8751C128.275 16.8553 128.271 15.9391 128.257 15.5592L118.509 15.9202ZM127.754 17.6325C128.719 15.3407 129.456 13.8848 130.449 12.8155L123.298 6.18015C121.022 8.63293 119.734 11.5411 118.763 13.8469L127.754 17.6325ZM125.531 3.7193C124.543 4.62929 123.691 5.59054 122.942 6.61103L130.805 12.3846C131.189 11.8612 131.623 11.3705 132.141 10.8935L125.531 3.7193ZM139.923 -1.16909C133.712 -1.77466 128.676 0.844672 125.545 3.70592L132.126 10.9069C133.725 9.44562 136.135 8.26292 138.976 8.53996L139.923 -1.16909ZM152.428 12.6934C151.968 6.29534 147.525 -0.422023 139.927 -1.16873L138.973 8.5396C140.586 8.69814 142.479 10.3543 142.698 13.3934L152.428 12.6934ZM146.545 29.4425C150.199 25.5211 153.007 20.4098 152.427 12.6788L142.699 13.4081C143.035 17.8865 141.611 20.4282 139.408 22.7917L146.545 29.4425ZM139.114 23.138C138.016 24.5616 136.604 25.8541 134.81 27.4079L141.196 34.7821C142.987 33.2307 145.08 31.376 146.838 29.0962L139.114 23.138ZM134.811 27.4069C134.161 27.969 133.494 28.5269 132.788 29.1168L139.044 36.6018C139.739 36.021 140.471 35.4093 141.195 34.783L134.811 27.4069ZM132.788 29.1168C129.111 32.1898 124.15 36.2024 121.818 42.5064L130.968 45.8904C132.255 42.4107 135.026 39.9602 139.044 36.6018L132.788 29.1168ZM131.229 44.8301C131.287 44.3849 131.449 43.9036 131.777 43.3144L123.253 38.5706C122.478 39.9633 121.81 41.623 121.556 43.5667L131.229 44.8301ZM117.096 2.74235C109.225 2.8457 103.546 9.02525 103.131 16.0027L112.869 16.5812C112.998 14.4157 114.754 12.529 117.224 12.4966L117.096 2.74235ZM128.255 7.71923C126.103 5.74024 122.556 2.67028 117.096 2.74236L117.225 12.4966C118.621 12.4782 119.696 13.1008 121.652 14.8996L128.255 7.71923ZM118.776 13.9762C119.196 14.0086 119.756 14.1465 120.436 14.428C121.104 14.7043 121.766 15.0678 122.363 15.4422L127.544 7.17661C125.855 6.11775 122.897 4.51057 119.528 4.2501L118.776 13.9762ZM112.638 17.8025C113.399 15.4643 115.459 13.735 118.798 13.9778L119.506 4.24844C111.642 3.67655 105.497 8.22554 103.362 14.7814L112.638 17.8025ZM127.615 7.22159L127.551 7.18098L122.356 15.4378L122.421 15.4784L127.615 7.22159ZM120.63 13.5661C120.919 14.1217 121.353 14.7195 121.982 15.2306C122.291 15.4813 122.712 15.7639 123.25 15.985C123.679 16.161 124.688 16.509 125.978 16.2826C126.678 16.1597 127.646 15.8276 128.509 15.005C129.423 14.1339 129.891 13.0223 130 11.9651C130.187 10.1467 129.322 8.89705 129.071 8.55457C128.406 7.64633 127.598 7.19477 127.274 7.02566L122.762 15.6744C122.568 15.5732 121.835 15.1831 121.203 14.3207C120.968 14.0012 120.11 12.7706 120.296 10.9662C120.404 9.91596 120.869 8.81009 121.779 7.94331C122.637 7.12505 123.599 6.79595 124.291 6.67439C125.565 6.45075 126.552 6.79535 126.955 6.96064C127.467 7.17091 127.858 7.43547 128.134 7.65961C128.697 8.11753 129.056 8.62834 129.278 9.05374L120.63 13.5661ZM121.65 14.8984L121.651 14.8989L128.257 7.72094L128.256 7.72042L121.65 14.8984Z" fill="#01A7E1" mask="url(#path-1-inside-1_2001_2733)"/>
<path d="M1.68624 39V17.5388H4.66015L12.8154 32.4083L20.9707 17.5388H23.9446V39H21.4919V21.4631L13.7352 35.5662H11.8956L4.13895 21.4631V39H1.68624ZM36.1142 31.9178L31.73 32.439C29.6657 32.7047 28.6335 33.4916 28.6335 34.7997C28.6335 35.4947 28.9196 36.0567 29.4919 36.486C30.0642 36.8948 30.8307 37.0991 31.7913 37.0991C33.0994 37.0991 34.1418 36.7108 34.9185 35.9341C35.7157 35.1574 36.1142 34.1355 36.1142 32.8682H37.1873C37.1873 34.7282 36.615 36.2714 35.4704 37.4977C34.3258 38.7241 32.8951 39.3372 31.1782 39.3372C29.727 39.3372 28.5211 38.9285 27.5604 38.1109C26.6202 37.2729 26.1501 36.1998 26.1501 34.8917C26.1705 33.6449 26.6202 32.6127 27.4991 31.7952C28.3984 30.9776 29.635 30.4768 31.2088 30.2929L36.1142 29.741V29.1278C36.1142 28.1876 35.7463 27.3701 35.0105 26.6751C34.2951 25.9802 33.4163 25.6327 32.3739 25.6327C31.4336 25.6327 30.5956 25.8882 29.8598 26.3992C29.1445 26.9102 28.6948 27.5745 28.5108 28.392L26.1808 27.6562C26.5895 26.3685 27.3458 25.3261 28.4495 24.529C29.5737 23.7319 30.8409 23.3333 32.2512 23.3333C33.9681 23.3333 35.45 23.8852 36.6968 24.9889C37.9435 26.0722 38.5669 27.3701 38.5669 28.8826V39H36.1142V31.9178ZM41.4803 23.6706H43.933V45.1318H41.4803V23.6706ZM45.6192 27.135C44.495 28.2387 43.933 29.649 43.933 31.3659C43.933 33.0624 44.495 34.4625 45.6192 35.5662C46.7638 36.6699 48.1537 37.2218 49.7888 37.2218C51.424 37.2218 52.8036 36.6699 53.9278 35.5662C55.0724 34.4625 55.6447 33.0624 55.6447 31.3659C55.6447 29.649 55.0724 28.2387 53.9278 27.135C52.8036 26.0313 51.424 25.4794 49.7888 25.4794C48.1537 25.4794 46.7638 26.0313 45.6192 27.135ZM44.9447 37.2831C43.4935 35.7093 42.7679 33.7369 42.7679 31.3659C42.7679 28.9745 43.4935 27.0022 44.9447 25.4488C46.3959 23.8954 48.1843 23.1187 50.31 23.1187C52.497 23.1187 54.3365 23.8954 55.8286 25.4488C57.3411 27.0022 58.0974 28.9745 58.0974 31.3659C58.0974 33.7369 57.3411 35.7093 55.8286 37.2831C54.3365 38.8365 52.497 39.6132 50.31 39.6132C48.1843 39.6132 46.3959 38.8365 44.9447 37.2831ZM74.2146 39H71.7619V26.7365L63.3307 39H60.4181V23.6706H62.8708V35.6275L71.2713 23.6706H74.2146V39Z" fill="#01A7E1"/>
<path d="M77.0484 36.6699C78.4791 36.6699 79.5828 36.2305 80.3595 35.3516C81.1362 34.4523 81.5246 33.3179 81.5246 31.9485V17.5388H94.5546V39H92.1019V19.8689H83.9773V32.531C83.9773 34.2888 83.3641 35.8115 82.1377 37.0991C80.9318 38.3664 79.3682 39 77.4469 39H76.4045V36.6699H77.0484ZM106.776 31.9178L102.392 32.439C100.327 32.7047 99.295 33.4916 99.295 34.7997C99.295 35.4947 99.5811 36.0567 100.153 36.486C100.726 36.8948 101.492 37.0991 102.453 37.0991C103.761 37.0991 104.803 36.7108 105.58 35.9341C106.377 35.1574 106.776 34.1355 106.776 32.8682H107.849C107.849 34.7282 107.277 36.2714 106.132 37.4977C104.987 38.7241 103.557 39.3372 101.84 39.3372C100.388 39.3372 99.1826 38.9285 98.2219 38.1109C97.2817 37.2729 96.8116 36.1998 96.8116 34.8917C96.832 33.6449 97.2817 32.6127 98.1606 31.7952C99.0599 30.9776 100.297 30.4768 101.87 30.2929L106.776 29.741V29.1278C106.776 28.1876 106.408 27.3701 105.672 26.6751C104.957 25.9802 104.078 25.6327 103.035 25.6327C102.095 25.6327 101.257 25.8882 100.521 26.3992C99.806 26.9102 99.3563 27.5745 99.1723 28.392L96.8423 27.6562C97.2511 26.3685 98.0073 25.3261 99.111 24.529C100.235 23.7319 101.502 23.3333 102.913 23.3333C104.63 23.3333 106.111 23.8852 107.358 24.9889C108.605 26.0722 109.228 27.3701 109.228 28.8826V39H106.776V31.9178ZM120.757 25.9087H114.594V30.2316H121.033C121.728 30.2316 122.31 30.0476 122.78 29.6797C123.25 29.2914 123.486 28.811 123.486 28.2387C123.486 27.5642 123.22 27.0124 122.688 26.5832C122.177 26.1335 121.534 25.9087 120.757 25.9087ZM121.063 32.2857H114.594V36.7619H121.063C121.84 36.7619 122.484 36.5575 122.995 36.1487C123.526 35.7195 123.792 35.1983 123.792 34.5851C123.792 33.9106 123.526 33.3588 122.995 32.9295C122.484 32.5003 121.84 32.2857 121.063 32.2857ZM121.37 39H112.142V23.6706H121.063C122.453 23.6706 123.608 24.0793 124.528 24.8969C125.468 25.694 125.938 26.7058 125.938 27.9321C125.938 28.6066 125.754 29.23 125.386 29.8023C125.039 30.3542 124.548 30.7834 123.915 31.09C124.63 31.4375 125.192 31.9382 125.601 32.5923C126.03 33.2464 126.245 33.9822 126.245 34.7997C126.245 35.9852 125.775 36.9867 124.835 37.8043C123.915 38.6014 122.76 39 121.37 39Z" fill="#164057"/>
<path d="M12.4202 57.7326V48.8908H13.4307V52.8317H13.8601L17.7 48.8908H19.0515L14.7569 53.337L19.0515 57.7326H17.7L13.8601 53.8675H13.4307V57.7326H12.4202ZM20.1287 56.7474C20.4824 56.7474 20.7561 56.6379 20.9498 56.419C21.1434 56.1916 21.2403 55.9053 21.2403 55.56V51.417H25.7244V57.7326H24.7139V52.4022H22.2508V55.7242C22.2508 56.2716 22.0655 56.7432 21.695 57.1389C21.3245 57.5347 20.8445 57.7326 20.2551 57.7326H19.8635V56.7474H20.1287ZM32.857 57.7326H31.8465V52.6801L28.373 57.7326H27.173V51.417H28.1835V56.3432L31.6444 51.417H32.857V57.7326ZM34.3151 57.7326V51.417H35.3255V54.0822H39.2665V51.417H40.277V57.7326H39.2665V55.0422H35.3255V57.7326H34.3151ZM47.4125 57.7326H46.402V52.6801L42.9284 57.7326H41.7285V51.417H42.739V56.3432L46.1999 51.417H47.4125V57.7326ZM48.8705 57.7326V51.417H49.881V54.0696H50.2094L52.7862 51.417H54.0998L51.0936 54.5748L54.0998 57.7326H52.7862L50.2094 55.118H49.881V57.7326H48.8705ZM60.8825 57.7326H59.872V52.6801L56.3984 57.7326H55.1985V51.417H56.209V56.3432L59.6699 51.417H60.8825V57.7326ZM65.745 57.7326V51.417H66.7555V54.0696H67.0839L69.6607 51.417H70.9743L67.9681 54.5748L70.9743 57.7326H69.6607L67.0839 55.118H66.7555V57.7326H65.745ZM72.0729 51.417H73.0834V60.2588H72.0729V51.417ZM73.7782 52.8443C73.315 53.2991 73.0834 53.8801 73.0834 54.5874C73.0834 55.2864 73.315 55.8632 73.7782 56.3179C74.2497 56.7726 74.8223 57 75.496 57C76.1697 57 76.7381 56.7726 77.2012 56.3179C77.6728 55.8632 77.9086 55.2864 77.9086 54.5874C77.9086 53.8801 77.6728 53.2991 77.2012 52.8443C76.7381 52.3896 76.1697 52.1623 75.496 52.1623C74.8223 52.1623 74.2497 52.3896 73.7782 52.8443ZM73.5003 57.0253C72.9024 56.3769 72.6035 55.5643 72.6035 54.5874C72.6035 53.6022 72.9024 52.7896 73.5003 52.1496C74.0981 51.5096 74.835 51.1897 75.7107 51.1897C76.6117 51.1897 77.3696 51.5096 77.9843 52.1496C78.6075 52.7896 78.919 53.6022 78.919 54.5874C78.919 55.5643 78.6075 56.3769 77.9843 57.0253C77.3696 57.6652 76.6117 57.9852 75.7107 57.9852C74.835 57.9852 74.0981 57.6652 73.5003 57.0253ZM83.9677 54.8148L82.1614 55.0295C81.3109 55.139 80.8857 55.4632 80.8857 56.0021C80.8857 56.2884 81.0036 56.52 81.2393 56.6969C81.4751 56.8653 81.7909 56.9495 82.1867 56.9495C82.7256 56.9495 83.1551 56.7895 83.4751 56.4695C83.8035 56.1495 83.9677 55.7285 83.9677 55.2064H84.4098C84.4098 55.9727 84.174 56.6084 83.7024 57.1137C83.2309 57.6189 82.6414 57.8716 81.9341 57.8716C81.3362 57.8716 80.8394 57.7031 80.4436 57.3663C80.0562 57.0211 79.8625 56.579 79.8625 56.04C79.871 55.5264 80.0562 55.1011 80.4183 54.7643C80.7888 54.4274 81.2983 54.2211 81.9467 54.1454L83.9677 53.918V53.6654C83.9677 53.278 83.8161 52.9412 83.513 52.6549C83.2182 52.3686 82.8561 52.2254 82.4267 52.2254C82.0393 52.2254 81.6941 52.3307 81.3909 52.5412C81.0962 52.7517 80.9109 53.0254 80.8351 53.3622L79.8752 53.0591C80.0436 52.5286 80.3552 52.0991 80.8099 51.7707C81.273 51.4423 81.7951 51.2781 82.3761 51.2781C83.0835 51.2781 83.694 51.5054 84.2077 51.9602C84.7213 52.4065 84.9782 52.9412 84.9782 53.5643V57.7326H83.9677V54.8148ZM87.871 52.8317C87.4163 53.278 87.1889 53.8548 87.1889 54.5622C87.1889 55.2695 87.4163 55.8506 87.871 56.3053C88.3257 56.7516 88.8815 56.9747 89.5383 56.9747C90.0099 56.9747 90.4351 56.8611 90.8141 56.6337C91.193 56.4063 91.4835 56.0863 91.6856 55.6737L92.6077 56.0906C92.3298 56.6632 91.9172 57.1179 91.3699 57.4547C90.8225 57.7916 90.212 57.96 89.5383 57.96C88.5952 57.96 87.7994 57.64 87.151 57C86.5026 56.36 86.1784 55.5474 86.1784 54.5622C86.1784 53.5769 86.5026 52.7643 87.151 52.1244C87.7994 51.4844 88.5952 51.1644 89.5383 51.1644C90.2204 51.1644 90.8393 51.337 91.3951 51.6823C91.9509 52.0275 92.3635 52.4991 92.633 53.097L91.7109 53.5138C91.5172 53.0843 91.2267 52.7517 90.8393 52.5159C90.452 52.2717 90.0183 52.1496 89.5383 52.1496C88.8815 52.1496 88.3257 52.377 87.871 52.8317ZM95.2847 52.8317C94.8216 53.278 94.59 53.8548 94.59 54.5622C94.59 55.2695 94.8216 55.8506 95.2847 56.3053C95.7563 56.7516 96.3289 56.9747 97.0026 56.9747C97.6762 56.9747 98.2446 56.7516 98.7078 56.3053C99.1793 55.8506 99.4151 55.2695 99.4151 54.5622C99.4151 53.8548 99.1793 53.278 98.7078 52.8317C98.2446 52.377 97.6762 52.1496 97.0026 52.1496C96.3289 52.1496 95.7563 52.377 95.2847 52.8317ZM94.5648 57C93.9079 56.36 93.5795 55.5474 93.5795 54.5622C93.5795 53.5769 93.9079 52.7643 94.5648 52.1244C95.23 51.4844 96.0426 51.1644 97.0026 51.1644C97.9625 51.1644 98.7709 51.4844 99.4278 52.1244C100.093 52.7643 100.426 53.5769 100.426 54.5622C100.426 55.5474 100.093 56.36 99.4278 57C98.7709 57.64 97.9625 57.96 97.0026 57.96C96.0426 57.96 95.23 57.64 94.5648 57ZM106.592 51.417V52.377H104.444V57.7326H103.434V52.377H101.287V51.417H106.592ZM114.467 57.7326V51.417H115.477V57.7326H114.467ZM111.296 54.9032H108.682V56.7474H111.296C111.616 56.7474 111.882 56.6632 112.092 56.4948C112.303 56.3179 112.408 56.1032 112.408 55.8506C112.408 55.5811 112.303 55.3579 112.092 55.1811C111.882 54.9959 111.616 54.9032 111.296 54.9032ZM111.423 53.9433C111.987 53.9433 112.459 54.1285 112.837 54.499C113.225 54.8695 113.418 55.3243 113.418 55.8632C113.418 56.3937 113.225 56.84 112.837 57.2021C112.459 57.5558 111.987 57.7326 111.423 57.7326H107.671V51.417H108.682V53.9433H111.423Z" fill="#718590"/>
</svg>
