<?xml version="1.0" encoding="utf-8"?>
<!-- Generator: Adobe Illustrator 27.5.0, SVG Export Plug-In . SVG Version: 6.00 Build 0)  -->
<!DOCTYPE svg PUBLIC "-//W3C//DTD SVG 1.1//EN" "http://www.w3.org/Graphics/SVG/1.1/DTD/svg11.dtd" [
	<!ENTITY ns_extend "http://ns.adobe.com/Extensibility/1.0/">
	<!ENTITY ns_ai "http://ns.adobe.com/AdobeIllustrator/10.0/">
	<!ENTITY ns_graphs "http://ns.adobe.com/Graphs/1.0/">
	<!ENTITY ns_vars "http://ns.adobe.com/Variables/1.0/">
	<!ENTITY ns_imrep "http://ns.adobe.com/ImageReplacement/1.0/">
	<!ENTITY ns_sfw "http://ns.adobe.com/SaveForWeb/1.0/">
	<!ENTITY ns_custom "http://ns.adobe.com/GenericCustomNamespace/1.0/">
	<!ENTITY ns_adobe_xpath "http://ns.adobe.com/XPath/1.0/">
]>
<svg version="1.1" id="Слой_2" xmlns:x="&ns_extend;" xmlns:i="&ns_ai;" xmlns:graph="&ns_graphs;"
	 xmlns="http://www.w3.org/2000/svg" xmlns:xlink="http://www.w3.org/1999/xlink" x="0px" y="0px" viewBox="0 0 425.2 159.7"
	 style="enable-background:new 0 0 425.2 159.7;" xml:space="preserve">
<style type="text/css">
	.st0{fill:#0595B7;}
</style>
<metadata>
	<sfw  xmlns="&ns_sfw;">
		<slices></slices>
		<sliceSourceBounds  bottomLeftOrigin="true" height="159.7" width="425.2" x="208.3" y="-377.5"></sliceSourceBounds>
	</sfw>
</metadata>
<g>
	<g>
		<path class="st0" d="M86.8,66c-1.3,0.8-2.9,2-4.8,3.5c-1.9,1.5-3.9,3.2-6,5.1c-2.1,1.9-4.3,3.9-6.5,5.9c-2.2,2.1-4.2,4-6,5.9
			c-3.7,3.8-7.3,7.8-10.8,11.9c-3.5,4.1-7,7.9-10.6,11.3c-3.6,3.4-7.3,6.2-11.2,8.4c-3.9,2.2-8.1,3.3-12.6,3.3
			c-1.9,0-3.9-0.4-6.1-1.1c-2.1-0.7-4.1-1.8-6-3.2c-1.8-1.4-3.3-3.2-4.6-5.4c-1.2-2.2-1.8-4.7-1.8-7.5c0-2.5,0.6-4.8,1.7-7.1
			c1.1-2.3,2.7-4.2,4.6-5.9s4.2-3,6.8-4.1c2.6-1,5.3-1.5,8.2-1.5c2.6,0,4.9,0.4,6.9,1.1c2,0.7,3.7,1.6,5,2.8
			c1.3,1.2,2.4,2.5,3.1,4.1c0.7,1.5,1.1,3.2,1.1,4.9c0,2.1-0.5,4.1-1.4,5.8c-0.9,1.7-2.2,3.2-3.7,4.4c-1.5,1.2-3.3,2.2-5.3,2.8
			c-2,0.7-4,1-6.1,1c-1.1,0-2.3-0.1-3.5-0.4s-2.3-0.5-3.3-0.8c-1-0.3-1.8-0.6-2.5-0.9c-0.6-0.3-1-0.5-1-0.7c0-0.3,0.2-0.5,0.5-0.5
			c0.1,0,0.4,0.1,0.9,0.4c0.5,0.3,1.1,0.5,2,0.8c0.8,0.3,1.8,0.5,3,0.8s2.5,0.4,4,0.4c1.7,0,3.5-0.3,5.3-0.8
			c1.8-0.5,3.4-1.3,4.8-2.4c1.4-1,2.6-2.3,3.5-3.9c0.9-1.5,1.3-3.3,1.3-5.3c0-1.2-0.3-2.5-0.8-3.7c-0.5-1.2-1.4-2.3-2.4-3.3
			c-1.1-1-2.5-1.8-4.2-2.4c-1.7-0.6-3.7-0.9-6.1-0.9c-2.3,0-4.7,0.4-7.1,1.1c-2.4,0.7-4.7,1.7-6.7,3.1c-2,1.3-3.7,3-5,5.1
			c-1.3,2-1.9,4.4-1.9,7c0,2.1,0.5,4.1,1.4,6s2.2,3.5,3.8,4.9c1.5,1.4,3.3,2.5,5.3,3.3c2,0.8,4,1.2,6,1.2c4.6,0,8.8-1.2,12.7-3.6
			c3.9-2.4,7.7-5.4,11.4-9.2c3.7-3.7,7.5-7.8,11.3-12.3c3.8-4.5,7.9-8.9,12.2-13.1c3.4-3.3,6.6-6.2,9.6-8.8c3-2.5,5.6-4.6,7.8-6.3
			c2.3-1.7,4.1-3,5.4-3.8c1.4-0.9,2.2-1.3,2.4-1.3c0.4,0,0.7,0.1,0.7,0.4c0,0.1-0.2,0.4-0.6,0.8c-0.4,0.4-1,1.1-1.9,2
			c-0.8,0.9-1.9,2.2-3.2,3.8c-1.3,1.6-2.9,3.7-4.8,6.3c-1.9,2.6-4,5.8-6.4,9.5s-5.1,8.1-8.2,13.3c-0.9,1.5-1.8,3.2-2.8,5.1
			c-1,1.9-1.8,3.7-2.7,5.5s-1.5,3.3-2,4.6c-0.5,1.3-0.8,2.1-0.8,2.4c0,0.5,0.3,0.7,0.8,0.7c0.4,0,0.9-0.2,1.4-0.6
			c0.5-0.4,1.4-1.2,2.6-2.5c1.2-1.3,2.8-3.2,4.9-5.7c2.1-2.5,4.9-5.9,8.4-10.2c5.1-6.2,9.7-11.6,13.9-16c4.1-4.4,7.7-8.1,10.6-10.9
			c3-2.8,5.3-4.9,7-6.3c1.7-1.3,2.8-2,3-2c0.1,0,0.2,0.1,0.3,0.2c0.1,0.1,0.2,0.2,0.2,0.3c0,0.1-0.5,0.8-1.4,2.2
			c-1,1.3-2.3,3.3-4.1,6c-1.8,2.7-4,6-6.5,10.1c-2.6,4.1-5.5,8.9-8.7,14.6c-3.4,6-5.7,10.8-6.9,14.5c-1.2,3.7-1.9,6.2-1.9,7.5
			c0,0.9,0.2,1.5,0.5,1.9c0.3,0.4,0.9,0.5,1.7,0.5c0.9,0,1.9-0.3,3-0.8c1.1-0.6,2.1-1.3,3.2-2.1c1.1-0.8,2.1-1.8,3.1-2.8
			s1.9-1.9,2.7-2.8c0.8-0.8,1.5-1.5,2-2.1c0.5-0.6,0.8-0.8,0.9-0.8c0.3,0,0.4,0.2,0.4,0.5c0,0.1-0.3,0.4-0.8,1.1
			c-0.5,0.7-1.2,1.5-2.1,2.4c-0.9,0.9-1.9,1.9-3,3c-1.1,1.1-2.3,2.1-3.5,3c-1.2,0.9-2.4,1.7-3.5,2.3c-1.2,0.6-2.2,0.9-3.2,0.9
			c-4.1,0-6.1-2.4-6.1-7.3c0-1.7,0.5-4,1.4-6.8c0.9-2.8,2.6-6.1,4.9-10c2.3-3.9,5.5-8.5,9.5-13.6c4-5.2,9-11.1,15-17.6l-0.2-0.2
			c-4.5,3.7-8.8,7.7-12.9,11.9c-4.1,4.2-8,8.6-11.8,13c-3.8,4.4-7.5,8.9-11.1,13.3s-7.1,8.6-10.6,12.5c-1.6,1.9-2.9,3-3.8,3.5
			c-0.9,0.5-1.7,0.8-2.4,0.8c-0.7,0-1.3-0.3-1.8-0.9c-0.5-0.6-0.7-1.5-0.7-2.7c0-3,1-6.7,3-10.9c2-4.2,4.7-8.7,7.9-13.4
			c3.2-4.7,6.9-9.3,10.8-14c4-4.6,8-8.9,12-12.8L86.8,66z"/>
		<path class="st0" d="M129.6,97.8c-0.4,0.5-1,1.2-1.7,2.3c-0.8,1.1-1.6,2.3-2.5,3.7c-0.9,1.4-1.8,2.8-2.7,4.3
			c-0.9,1.5-1.8,3-2.6,4.4c-0.8,1.4-1.4,2.6-1.9,3.7c-0.5,1.1-0.7,1.9-0.7,2.4c0,0.8,0.5,1.2,1.4,1.2c1.3,0,3-1,5.1-2.9
			c2.1-1.9,4.4-4.3,6.9-7.2c0.5-0.6,0.8-1,0.9-1.1c0.1-0.1,0.2-0.2,0.3-0.2c0.2,0,0.3,0.1,0.4,0.2c0.1,0.1,0.1,0.2,0.1,0.3
			c0,0.1-0.2,0.3-0.5,0.6c-0.3,0.4-0.7,0.8-1.1,1.3c-0.5,0.5-0.9,1.1-1.5,1.7c-0.5,0.6-1.1,1.2-1.6,1.7c-2,2-3.7,3.6-5.3,4.9
			c-1.6,1.2-2.9,1.8-4.1,1.8c-1.1,0-2-0.4-2.7-1.2c-0.7-0.8-1-2.3-1-4.6c0-0.3,0-0.5,0-0.8c0-0.3,0-0.5,0-0.7
			c-0.6,0.6-1.4,1.4-2.2,2.2c-0.9,0.8-1.8,1.6-2.7,2.4c-1,0.8-1.9,1.4-2.9,1.9c-1,0.5-1.8,0.8-2.6,0.8c-1.1,0-2-0.2-2.7-0.7
			c-0.7-0.5-1.3-1-1.6-1.7c-0.4-0.7-0.7-1.5-0.8-2.4c-0.1-0.9-0.2-1.9-0.2-2.8c0-0.7,0-1.3,0.1-2c0.1-0.6,0.2-1.3,0.3-2
			c-0.1,0-0.2,0-0.3,0.1c-0.1,0.1-0.1,0.1-0.3,0.1c-0.2,0-0.3-0.1-0.3-0.4c0-0.2,0.1-0.3,0.3-0.5c0.2-0.2,0.5-0.6,1.1-1.3
			c1.1-1.4,2.4-2.7,3.8-3.9s2.9-2.2,4.3-3.1c1.5-0.9,3-1.6,4.6-2.1c1.5-0.5,3.1-0.8,4.5-0.8c1.3,0,2.2,0.4,2.8,1.2
			c0.6,0.8,0.8,1.8,0.8,2.9c0,1-0.1,1.8-0.3,2.3l0.2,0.2c0.7-1.2,1.3-2.2,1.7-3c0.4-0.8,0.8-1.4,1.1-1.8c0.3-0.4,0.5-0.7,0.8-0.9
			c0.3-0.2,0.6-0.3,1.1-0.3L129.6,97.8z M102.6,117.1c0,0.8,0.2,1.4,0.5,1.9c0.3,0.5,0.8,0.8,1.5,0.8c1.2,0,2.7-0.7,4.5-2
			c1.7-1.3,3.4-2.9,5.1-4.9c1.6-1.9,3-3.9,4.2-6c1.2-2.1,1.7-4,1.7-5.5c0-0.8-0.2-1.6-0.6-2.2c-0.4-0.6-1.1-0.9-2-0.9
			c-1.7,0-3.4,0.7-5.2,2.1c-1.8,1.4-3.4,3.1-4.8,5c-1.4,2-2.6,4-3.5,6.2C103,113.8,102.6,115.6,102.6,117.1z"/>
		<path class="st0" d="M155.6,82.5l-18,30.5l0.2,0.2c0.8-0.9,1.9-2.2,3.4-4c1.5-1.8,3.1-3.5,4.8-5.3c1.7-1.7,3.5-3.3,5.2-4.6
			c1.8-1.3,3.3-1.9,4.7-1.9c1.1,0,1.9,0.4,2.4,1.3c0.5,0.9,0.7,1.9,0.7,3.1c0,1.3-0.5,2.8-1.4,4.3c-0.9,1.5-2,3-3.1,4.5
			c-1.2,1.5-2.2,3-3.1,4.4c-0.9,1.4-1.4,2.6-1.4,3.7c0,0.8,0.4,1.2,1.3,1.2c0.5,0,1-0.1,1.6-0.3c0.6-0.2,1.3-0.6,2.1-1.1
			c0.8-0.5,1.7-1.3,2.7-2.2c1-1,2.2-2.2,3.5-3.6c0.8-1,1.5-1.7,2-2.3c0.5-0.6,0.8-1,1.1-1.3c0.3-0.3,0.4-0.5,0.5-0.6
			c0.1-0.1,0.2-0.1,0.3-0.1c0.3,0,0.4,0.1,0.4,0.4c0,0.1,0,0.2-0.1,0.3c-0.1,0.1-0.2,0.2-0.3,0.4c-0.2,0.2-0.4,0.5-0.8,0.8
			c-0.3,0.4-0.8,0.9-1.4,1.6c-2.9,3.4-5.2,5.8-7.1,7c-1.9,1.3-3.4,1.9-4.6,1.9c-1.3,0-2.2-0.5-2.8-1.5c-0.6-1-0.8-2.3-0.8-3.9
			c0-1.7,0.5-3.3,1.4-4.9c0.9-1.5,2-3,3.1-4.3c1.2-1.3,2.2-2.6,3.1-3.8c0.9-1.2,1.4-2.2,1.4-3c0-0.7-0.4-1.1-1.1-1.1
			c-0.8,0-2.1,0.6-4,1.9c-1.9,1.3-4.1,3.3-6.6,5.9c-2.5,2.6-5.3,6-8.3,10c-3,4-6,8.7-9.1,14.1l-7,12.3l-5.7,0.3l29-47l-0.2-0.2
			c-1.1,1.3-2.3,2.7-3.6,4.3c-1.3,1.6-2.5,3.1-3.7,4.5c-1.2,1.4-2.2,2.6-3,3.5c-0.8,1-1.3,1.4-1.3,1.4c-0.3,0-0.5-0.1-0.5-0.4
			c0-0.1,0-0.2,0.1-0.3c0.1-0.1,0.3-0.4,0.6-0.7c0.3-0.4,0.8-0.9,1.5-1.7c0.7-0.8,1.6-1.9,2.8-3.3c1.3-1.6,2.4-3,3.4-4.2
			c1-1.2,1.9-2.2,2.6-3.2c0.8-1,1.4-1.8,2.1-2.7c0.6-0.8,1.3-1.7,1.9-2.6c0.6-0.9,1.3-2,2.1-3.1c0.8-1.1,1.6-2.5,2.7-4L155.6,82.5z"
			/>
		<path class="st0" d="M194,100.1c-0.8,1.1-1.6,2.4-2.6,3.7c-1,1.3-1.9,2.8-2.9,4.2c-1,1.5-1.9,2.9-2.7,4.2c-0.8,1.3-1.5,2.5-2,3.6
			c-0.5,1.1-0.8,2-0.8,2.6c0,1,0.5,1.4,1.4,1.4c0.6,0,1.6-0.4,3-1.3c1.4-0.9,3-2.4,5-4.5c1.2-1.3,2.2-2.3,2.9-3.1
			c0.7-0.8,1.2-1.3,1.6-1.7c0.3-0.4,0.5-0.6,0.6-0.7c0.1-0.1,0.2-0.2,0.3-0.2c0.3,0,0.4,0.1,0.4,0.4c0,0.1-0.2,0.3-0.5,0.7
			c-0.3,0.4-0.8,0.9-1.3,1.5c-0.5,0.6-1.1,1.2-1.6,1.8c-0.6,0.6-1.1,1.2-1.6,1.7c-2.1,2.2-3.9,3.8-5.4,4.9c-1.4,1-2.7,1.6-3.8,1.6
			c-0.7,0-1.3-0.2-1.8-0.5c-0.5-0.4-0.8-0.8-1.1-1.4c-0.3-0.6-0.4-1.2-0.5-1.8s-0.1-1.2-0.1-1.7c0-1.1,0.2-2.1,0.6-3.2l-0.2-0.2
			c-0.6,0.7-1.4,1.5-2.3,2.5c-0.9,1-1.9,1.9-3,2.9c-1.1,0.9-2.2,1.7-3.2,2.4c-1.1,0.7-2.1,1-3.1,1c-1.3,0-2.3-0.4-3-1.3
			c-0.6-0.9-0.9-2-0.9-3.2c0-1.6,0.3-3.1,0.9-4.5c0.6-1.4,1.3-2.8,2.2-4.1c0.9-1.3,1.9-2.5,2.9-3.7c1-1.2,1.9-2.4,2.7-3.6l-0.2-0.2
			c-1.2,1-2.5,2.1-3.8,3.5c-1.3,1.4-2.6,2.8-3.9,4.1c-0.6,0.6-0.9,1-1,1.2c-0.1,0.2-0.3,0.3-0.4,0.3c-0.2,0-0.3-0.2-0.3-0.5
			c0-0.1,0-0.2,0.1-0.3s0.3-0.4,0.5-0.7c0.3-0.3,0.7-0.8,1.3-1.4c0.6-0.6,1.4-1.4,2.3-2.4c0.8-0.9,1.8-1.9,2.9-3
			c1.1-1.1,2.4-2.2,3.8-3.4l4.7-0.3c-2.6,4.2-4.7,7.4-6.3,9.8c-1.6,2.4-2.8,4.3-3.7,5.7c-0.9,1.4-1.5,2.4-1.8,3.2
			c-0.3,0.7-0.5,1.5-0.5,2.4c0,0.5,0.2,0.9,0.5,1.1c0.3,0.2,0.6,0.3,1,0.3c1.1,0,2.5-0.7,4.3-2.2c1.8-1.5,3.8-3.3,5.8-5.5
			c2-2.2,4-4.6,5.9-7.2c1.9-2.6,3.6-5,4.9-7.3l5.4-0.3C195.3,98,194.8,98.9,194,100.1z"/>
		<path d="M280.1,81.7c-1.5,2.6-2.9,5.1-4.2,7.6c-1.4,2.5-2.7,5-4.1,7.6c-1.6,2.9-2.9,5.4-4.1,7.5c-1.2,2.1-2.1,4-2.8,5.7
			c-0.7,1.6-1.3,3.1-1.6,4.3c-0.4,1.2-0.5,2.3-0.5,3.3c0,0.6,0.2,1.1,0.5,1.6c0.3,0.4,0.8,0.6,1.4,0.6c1.1,0,2.4-0.5,3.8-1.5
			c1.4-1,3-2.3,4.6-3.9c2.1-2,3.7-3.6,4.6-4.8s1.5-1.9,1.7-1.9c0.4,0,0.6,0.1,0.6,0.4c0,0.1-0.1,0.3-0.4,0.6
			c-0.3,0.3-0.7,0.8-1.1,1.3c-0.5,0.5-1,1.1-1.6,1.8c-0.6,0.6-1.1,1.3-1.6,1.8c-0.6,0.7-1.4,1.4-2.3,2.3c-0.9,0.8-1.9,1.6-2.9,2.4
			c-1,0.7-2,1.3-2.9,1.8c-1,0.5-1.8,0.7-2.4,0.7c-1.3,0-2.2-0.4-2.8-1.3c-0.6-0.9-0.8-2.1-0.8-3.6c0-2.5,0.2-4.9,0.5-7.3
			c0.4-2.4,1.2-4.9,2.4-7.4c0.7-1.5,1.4-2.9,2.2-4.2c0.7-1.4,1.4-2.6,2.1-3.7c1.2-2.1,2.7-4.3,4.3-6.7c1.6-2.4,3.3-4.8,5.2-7.3
			c1.9-2.5,3.9-5,6-7.5c2.1-2.5,4.4-4.8,6.8-7l-0.2-0.2c-1,0.3-2.1,0.7-3.1,1.3c-1.1,0.6-2.1,1.3-3.1,2.1c-1.7,1.3-3.5,2.7-5.3,4.1
			c-1.8,1.4-3.5,2.8-5.1,4.2c-1.6,1.4-3.1,2.8-4.6,4.1c-1.4,1.3-2.7,2.5-3.8,3.6c-4.4,4.4-8.7,8.8-12.8,13.1
			c-4.1,4.3-8.4,8.4-12.8,12.5c-1.9,1.7-3.7,3.3-5.4,4.7c-1.7,1.4-3.5,2.7-5.3,3.8c-1.9,1.1-3.9,1.9-6,2.5c-2.2,0.6-4.7,0.9-7.5,0.9
			c-2.7,0-5.2-0.4-7.4-1.2c-2.3-0.8-4.2-2-5.8-3.5c-1.6-1.5-2.8-3.3-3.7-5.4c-0.9-2.1-1.3-4.4-1.3-6.9c0-3.1,0.7-5.8,2.1-8.2
			s3.2-4.4,5.3-6.1c2.1-1.7,4.5-2.9,7-3.8c2.5-0.9,4.9-1.3,7-1.3c2.6,0,4.9,0.4,6.8,1.1c2,0.7,3.6,1.6,5,2.8c1.3,1.2,2.4,2.5,3,4.1
			c0.7,1.5,1,3.1,1,4.8c0,2.2-0.5,4.2-1.6,5.9c-1,1.7-2.4,3.2-4,4.4c-1.6,1.2-3.5,2.1-5.5,2.8c-2,0.6-4,1-6,1
			c-1.7,0-2.8-0.1-3.2-0.2c-0.4-0.1-0.6-0.3-0.6-0.6c0-0.3,0.2-0.5,0.5-0.5c0.2,0,0.5,0,0.9,0.1c0.4,0.1,0.9,0.1,1.6,0.1
			c2.2,0,4.3-0.3,6.3-0.9c2-0.6,3.8-1.4,5.3-2.6c1.5-1.1,2.7-2.5,3.6-4.1c0.9-1.6,1.3-3.4,1.3-5.4c0-2.9-1.1-5.2-3.2-7
			c-2.2-1.8-5.4-2.7-9.7-2.7c-2.4,0-4.9,0.4-7.3,1.3c-2.5,0.9-4.7,2.1-6.7,3.6c-2,1.5-3.6,3.4-4.9,5.6c-1.3,2.2-1.9,4.6-1.9,7.2
			c0,2.1,0.4,4,1.3,5.8c0.8,1.8,2,3.3,3.5,4.6c1.5,1.3,3.2,2.3,5.3,3c2,0.7,4.2,1.1,6.7,1.1c2.1,0,4-0.2,5.7-0.7
			c1.7-0.5,3.5-1.2,5.2-2.2c1.7-1,3.5-2.2,5.4-3.6c1.9-1.4,3.9-3.1,6.2-5.1c4-3.6,7.7-7.1,11-10.5c3.3-3.4,6.2-6.4,8.8-9.2
			c4.4-4.8,8.6-9,12.4-12.4c3.8-3.4,7.2-6.2,10.1-8.4c3-2.2,5.5-3.8,7.6-4.8c2.1-1,3.7-1.5,4.7-1.5c0.3,0,0.4,0.2,0.4,0.6
			c0,0.1-0.3,0.5-1,1.3c-0.7,0.8-1.6,1.9-2.8,3.4c-1.2,1.5-2.7,3.5-4.3,5.9C284,75.5,282.2,78.3,280.1,81.7z"/>
		<path d="M309.8,97.8c-0.4,0.5-1,1.2-1.7,2.3c-0.8,1.1-1.6,2.3-2.5,3.7c-0.9,1.4-1.8,2.8-2.7,4.3c-0.9,1.5-1.8,3-2.6,4.4
			c-0.8,1.4-1.4,2.6-1.9,3.7c-0.5,1.1-0.7,1.9-0.7,2.4c0,0.8,0.5,1.2,1.4,1.2c1.3,0,3-1,5.1-2.9c2.1-1.9,4.4-4.3,6.9-7.2
			c0.5-0.6,0.8-1,0.9-1.1c0.1-0.1,0.2-0.2,0.3-0.2c0.2,0,0.3,0.1,0.4,0.2c0.1,0.1,0.1,0.2,0.1,0.3c0,0.1-0.2,0.3-0.5,0.6
			c-0.3,0.4-0.7,0.8-1.1,1.3c-0.5,0.5-0.9,1.1-1.5,1.7c-0.5,0.6-1.1,1.2-1.6,1.7c-2,2-3.7,3.6-5.3,4.9c-1.6,1.2-2.9,1.8-4.1,1.8
			c-1.1,0-2-0.4-2.7-1.2c-0.7-0.8-1-2.3-1-4.6c0-0.3,0-0.5,0-0.8c0-0.3,0-0.5,0-0.7c-0.6,0.6-1.4,1.4-2.2,2.2
			c-0.9,0.8-1.8,1.6-2.7,2.4c-1,0.8-1.9,1.4-2.9,1.9c-1,0.5-1.8,0.8-2.6,0.8c-1.1,0-2-0.2-2.7-0.7c-0.7-0.5-1.3-1-1.6-1.7
			c-0.4-0.7-0.7-1.5-0.8-2.4c-0.1-0.9-0.2-1.9-0.2-2.8c0-0.7,0-1.3,0.1-2c0.1-0.6,0.2-1.3,0.3-2c-0.1,0-0.2,0-0.3,0.1
			c-0.1,0.1-0.1,0.1-0.3,0.1c-0.2,0-0.3-0.1-0.3-0.4c0-0.2,0.1-0.3,0.3-0.5c0.2-0.2,0.5-0.6,1.1-1.3c1.1-1.4,2.4-2.7,3.8-3.9
			c1.4-1.2,2.9-2.2,4.3-3.1c1.5-0.9,3-1.6,4.6-2.1c1.5-0.5,3.1-0.8,4.5-0.8c1.3,0,2.2,0.4,2.8,1.2c0.6,0.8,0.8,1.8,0.8,2.9
			c0,1-0.1,1.8-0.3,2.3l0.2,0.2c0.7-1.2,1.3-2.2,1.7-3c0.4-0.8,0.8-1.4,1.1-1.8c0.3-0.4,0.5-0.7,0.8-0.9c0.3-0.2,0.6-0.3,1.1-0.3
			L309.8,97.8z M282.8,117.1c0,0.8,0.2,1.4,0.5,1.9c0.3,0.5,0.8,0.8,1.5,0.8c1.2,0,2.7-0.7,4.5-2c1.7-1.3,3.4-2.9,5.1-4.9
			c1.6-1.9,3-3.9,4.2-6c1.2-2.1,1.7-4,1.7-5.5c0-0.8-0.2-1.6-0.6-2.2c-0.4-0.6-1.1-0.9-2-0.9c-1.7,0-3.4,0.7-5.2,2.1
			c-1.8,1.4-3.4,3.1-4.8,5c-1.4,2-2.6,4-3.5,6.2C283.2,113.8,282.8,115.6,282.8,117.1z"/>
		<path d="M336.9,100.6c0,1.3-0.3,2.6-0.8,3.9c-0.5,1.3-1.1,2.6-1.8,3.8c-0.7,1.2-1.4,2.3-2.1,3.2c-0.7,1-1.3,1.7-1.6,2.1
			c0.2,0.1,0.4,0.1,0.8,0.1c1.3,0,2.6-0.4,3.9-1.1c1.3-0.7,2.4-1.6,3.3-2.6c0.8-0.8,1.2-1.3,1.3-1.5c0.1-0.2,0.2-0.3,0.3-0.3
			c0.3,0,0.4,0.1,0.4,0.4c0,0.2-0.1,0.4-0.3,0.6c-0.2,0.3-0.6,0.6-1,1.1c-1.2,1.4-2.6,2.5-4.2,3.2c-1.6,0.7-3.1,1.1-4.6,1.1
			c-0.3,0-0.5,0-0.6,0c-0.1,0-0.2,0-0.3,0c-0.5,0.5-1.2,1.1-2,1.8c-0.8,0.7-1.8,1.4-2.8,2c-1,0.6-2.1,1.2-3.3,1.6
			c-1.2,0.5-2.4,0.7-3.5,0.7c-1.8,0-3.1-0.6-3.8-1.7c-0.8-1.1-1.1-2.5-1.1-4.2c0-1.5,0.4-3.1,1.3-4.7c0.8-1.6,1.8-3.2,2.7-4.6
			c1-1.4,1.9-2.7,2.7-3.7c0.8-1,1.3-1.7,1.3-1.9c0-0.1-0.1-0.2-0.2-0.2c-0.1,0-0.5,0.4-1.1,1.2c-0.6,0.8-1.7,2-3.2,3.5
			c-1.1,1.2-2,2.2-2.6,3c-0.6,0.7-1.1,1.3-1.4,1.6c-0.3,0.4-0.5,0.6-0.6,0.7c-0.1,0.1-0.2,0.1-0.3,0.1c-0.3,0-0.4-0.1-0.4-0.3
			c0-0.1,0.4-0.6,1.1-1.5c0.7-0.9,1.6-1.9,2.6-3c1-1.1,2-2.2,3-3.2c1-1,1.7-1.8,2.2-2.3c0.9-1,1.9-2.3,3.1-4.2
			c1.2-1.8,2.5-3.8,3.8-6c1.4-2.2,2.8-4.4,4.3-6.7c1.5-2.3,3.1-4.4,4.7-6.2c1.6-1.9,3.2-3.4,4.9-4.6c1.7-1.2,3.3-1.8,4.9-1.8
			c2.8,0,4.1,1.3,4.1,4.1c0,1.2-0.4,2.5-1.2,3.9c-0.8,1.4-1.9,2.8-3.3,4.3c-1.4,1.5-3,3.1-4.8,4.7c-1.8,1.6-3.7,3.2-5.6,4.8
			c-1.9,1.6-3.8,3.2-5.7,4.9c-1.9,1.6-3.6,3.2-5.2,4.8c-0.5,0.8-1.2,2-2.2,3.5c-0.9,1.5-1.8,3.2-2.7,4.8c-0.9,1.7-1.6,3.2-2.3,4.7
			c-0.7,1.5-1,2.5-1,3.1c0,0.6,0.1,1.1,0.4,1.6c0.3,0.4,0.8,0.6,1.6,0.6c1.4,0,3-0.4,4.6-1.2c1.7-0.8,3.3-1.9,4.7-3.5
			c1.5-1.5,2.7-3.4,3.6-5.6c1-2.2,1.4-4.7,1.4-7.6c0-1.6,0.2-2.7,0.5-3.4c0.3-0.7,1-1.1,2.1-1.1c0.7,0,1.3,0.3,1.6,0.9
			S336.9,99.8,336.9,100.6z M325.5,98.9l0.2,0.2l10.4-8.9c1.1-1,2.4-2.1,3.8-3.4c1.4-1.3,2.7-2.7,3.9-4.2c1.2-1.5,2.2-3,3.1-4.6
			c0.8-1.6,1.3-3.1,1.3-4.6c0-0.6-0.2-1.1-0.5-1.6c-0.4-0.5-0.8-0.8-1.4-0.8c-1.7,0-3.4,0.7-5,2.2c-1.6,1.5-3.1,3.2-4.5,5.4
			c-1.4,2.1-2.7,4.3-3.9,6.7c-1.2,2.4-2.3,4.4-3.2,6.2L325.5,98.9z"/>
	</g>
	<g>
		<path d="M137,146.3h-3.8v7.6H132v-16h1.2v7.3h3.9l5.7-7.3h1.3l-6.1,7.8l6.5,8.2h-1.4L137,146.3z"/>
		<path d="M156.4,142v11.9h-1.1V143h-6.2l-0.2,3.2c-0.1,1.6-0.2,3-0.4,4.1c-0.2,1.1-0.5,2-0.9,2.7c-0.4,0.7-1.1,1-1.8,1
			c-0.2,0-0.6-0.1-1-0.2l0.1-1c0.2,0.1,0.4,0.1,0.5,0.1c0.6,0,1.1-0.3,1.5-0.9c0.3-0.6,0.6-1.4,0.7-2.3c0.1-0.9,0.2-2.1,0.3-3.6
			l0.2-4.1H156.4z"/>
		<path d="M161.3,142h1.1v10.2L171,142h1v11.9h-1.1v-10.2l-8.5,10.2h-1V142z"/>
		<path d="M176.9,142h1.1v5.4h8.1V142h1.1v11.9h-1.1v-5.5H178v5.5h-1.1V142z"/>
		<path d="M192.2,142h1.1v10.2l8.5-10.2h1v11.9h-1.1v-10.2l-8.5,10.2h-1V142z"/>
		<path d="M211.8,148.4h-2.9v5.5h-1.1V142h1.1v5.4h2.9l4.5-5.4h1.3l-4.8,5.8l5.2,6.1h-1.4L211.8,148.4z"/>
		<path d="M227.8,143c0.8,0.8,1.2,1.9,1.2,3.3v7.6h-1.1v-2.1c-0.4,0.7-0.9,1.2-1.7,1.6c-0.7,0.4-1.6,0.6-2.6,0.6
			c-1.3,0-2.4-0.3-3.1-0.9c-0.8-0.6-1.2-1.4-1.2-2.5c0-1,0.4-1.8,1.1-2.4c0.7-0.6,1.8-0.9,3.4-0.9h4.1v-1c0-1.1-0.3-2-0.9-2.5
			c-0.6-0.6-1.5-0.9-2.6-0.9c-0.8,0-1.5,0.1-2.3,0.4c-0.7,0.3-1.3,0.6-1.8,1.1l-0.6-0.8c0.6-0.5,1.3-0.9,2.1-1.2
			c0.8-0.3,1.7-0.4,2.6-0.4C225.9,141.9,227.1,142.3,227.8,143z M226.3,152.3c0.7-0.5,1.2-1.1,1.6-2v-2.2h-4.1c-1.2,0-2,0.2-2.5,0.6
			c-0.5,0.4-0.8,1-0.8,1.8c0,0.8,0.3,1.4,0.9,1.8c0.6,0.4,1.4,0.7,2.4,0.7C224.8,153,225.6,152.8,226.3,152.3z"/>
		<path d="M243.6,148.4h-2.9v5.5h-1.1V142h1.1v5.4h2.9l4.5-5.4h1.3l-4.8,5.8l5.2,6.1h-1.4L243.6,148.4z"/>
		<path d="M261.5,142.7c0.9,0.5,1.6,1.2,2.1,2.1c0.5,0.9,0.8,2,0.8,3.1c0,1.2-0.3,2.2-0.8,3.1s-1.2,1.6-2.1,2.1
			c-0.9,0.5-1.9,0.8-3,0.8c-1.1,0-2-0.2-2.9-0.7c-0.9-0.5-1.5-1.2-2-2.1v7.1h-1.1V142h1.1v2.8c0.5-0.9,1.1-1.6,2-2.1
			c0.9-0.5,1.8-0.8,2.9-0.8C259.6,141.9,260.6,142.1,261.5,142.7z M260.9,152.3c0.7-0.4,1.3-1,1.7-1.8c0.4-0.8,0.6-1.6,0.6-2.6
			c0-1-0.2-1.8-0.6-2.6c-0.4-0.8-1-1.4-1.7-1.8c-0.7-0.4-1.6-0.6-2.5-0.6s-1.7,0.2-2.5,0.6c-0.7,0.4-1.3,1-1.7,1.8
			c-0.4,0.8-0.6,1.6-0.6,2.6c0,1,0.2,1.8,0.6,2.6c0.4,0.8,1,1.4,1.7,1.8c0.7,0.4,1.5,0.6,2.5,0.6S260.2,152.7,260.9,152.3z"/>
		<path d="M275.4,143c0.8,0.8,1.2,1.9,1.2,3.3v7.6h-1.1v-2.1c-0.4,0.7-0.9,1.2-1.7,1.6c-0.7,0.4-1.6,0.6-2.6,0.6
			c-1.3,0-2.4-0.3-3.1-0.9c-0.8-0.6-1.2-1.4-1.2-2.5c0-1,0.4-1.8,1.1-2.4c0.7-0.6,1.8-0.9,3.4-0.9h4.1v-1c0-1.1-0.3-2-0.9-2.5
			c-0.6-0.6-1.5-0.9-2.6-0.9c-0.8,0-1.5,0.1-2.3,0.4c-0.7,0.3-1.3,0.6-1.8,1.1l-0.6-0.8c0.6-0.5,1.3-0.9,2.1-1.2
			c0.8-0.3,1.7-0.4,2.6-0.4C273.5,141.9,274.6,142.3,275.4,143z M273.9,152.3c0.7-0.5,1.2-1.1,1.6-2v-2.2h-4.1c-1.2,0-2,0.2-2.5,0.6
			c-0.5,0.4-0.8,1-0.8,1.8c0,0.8,0.3,1.4,0.9,1.8c0.6,0.4,1.4,0.7,2.4,0.7C272.4,153,273.2,152.8,273.9,152.3z"/>
		<path d="M282.9,153.2c-0.9-0.5-1.6-1.2-2.1-2.2c-0.5-0.9-0.8-2-0.8-3.1c0-1.2,0.3-2.2,0.8-3.1c0.5-0.9,1.2-1.6,2.1-2.1
			c0.9-0.5,1.9-0.8,3.1-0.8c1,0,1.8,0.2,2.6,0.6c0.8,0.4,1.4,0.9,1.9,1.6l-0.8,0.6c-0.4-0.6-1-1-1.6-1.3c-0.6-0.3-1.3-0.4-2.1-0.4
			c-0.9,0-1.8,0.2-2.5,0.6c-0.7,0.4-1.3,1-1.7,1.8c-0.4,0.8-0.6,1.6-0.6,2.6s0.2,1.9,0.6,2.6c0.4,0.8,1,1.4,1.7,1.8
			c0.7,0.4,1.6,0.6,2.5,0.6c0.8,0,1.5-0.1,2.1-0.4c0.6-0.3,1.2-0.7,1.6-1.3l0.8,0.6c-0.5,0.7-1.1,1.3-1.9,1.6
			c-0.8,0.4-1.7,0.6-2.6,0.6C284.9,154,283.9,153.7,282.9,153.2z"/>
		<path d="M295.4,153.2c-0.9-0.5-1.6-1.2-2.1-2.2c-0.5-0.9-0.8-2-0.8-3.1s0.3-2.2,0.8-3.1c0.5-0.9,1.2-1.6,2.1-2.2s1.9-0.8,3-0.8
			c1.1,0,2.1,0.3,3,0.8c0.9,0.5,1.6,1.2,2.1,2.2c0.5,0.9,0.8,2,0.8,3.1s-0.3,2.2-0.8,3.1c-0.5,0.9-1.2,1.6-2.1,2.2
			c-0.9,0.5-1.9,0.8-3,0.8C297.4,154,296.3,153.7,295.4,153.2z M300.9,152.3c0.7-0.4,1.3-1,1.7-1.8c0.4-0.8,0.6-1.6,0.6-2.6
			c0-1-0.2-1.8-0.6-2.6c-0.4-0.8-1-1.4-1.7-1.8c-0.7-0.4-1.5-0.6-2.5-0.6c-0.9,0-1.7,0.2-2.5,0.6c-0.7,0.4-1.3,1-1.7,1.8
			c-0.4,0.8-0.6,1.6-0.6,2.6c0,1,0.2,1.8,0.6,2.6c0.4,0.8,1,1.4,1.7,1.8c0.7,0.4,1.5,0.6,2.5,0.6
			C299.4,152.9,300.2,152.7,300.9,152.3z"/>
		<path d="M315.7,143H311v10.9h-1.1V143h-4.7v-1h10.5V143z"/>
		<path d="M326.2,147.3c0.8,0.6,1.2,1.6,1.2,2.8c0,1.3-0.4,2.2-1.2,2.9c-0.8,0.7-2,1-3.6,1l-4.5,0V142h1.1v4.3l3.6,0
			C324.3,146.3,325.4,146.6,326.2,147.3z M325.3,152.3c0.6-0.5,0.9-1.2,0.9-2.2c0-1-0.3-1.7-0.9-2.1c-0.6-0.5-1.5-0.7-2.8-0.7
			l-3.3,0v5.8l3.3,0C323.7,153,324.7,152.8,325.3,152.3z M329.6,142h1.1v11.9h-1.1V142z"/>
	</g>
	<g>
		<path class="st0" d="M261.2,50.2c0,0,17.1-47,72-19.5c0,0-23.1-21.4-46.9-12.2C262,28,261.2,50.2,261.2,50.2z"/>
		<path class="st0" d="M343.8,159.7c0,0,3.4-23.5,38.7-50.7c46.1-35.5,43.1-93.4,7.2-99.4c-40.3-6.8-58.8,34.2-58.8,34.2
			s12.9-45.9,57.9-43.7c44.1,2.1,52.8,69.5,0.1,108.3C369.3,122.9,351.8,138.8,343.8,159.7z"/>
	</g>
</g>
</svg>
