<svg width="37" height="36" viewBox="0 0 37 36" fill="none" xmlns="http://www.w3.org/2000/svg">
<circle cx="18.9121" cy="18" r="18" fill="#C11616" fill-opacity="0.15"/>
<path d="M13.0405 9.44123L19.3757 15.7764L25.678 9.47405C25.8172 9.32588 25.9849 9.20734 26.1711 9.12555C26.3572 9.04377 26.5579 9.00041 26.7612 8.99809C27.1965 8.99809 27.614 9.17101 27.9218 9.4788C28.2296 9.78659 28.4025 10.204 28.4025 10.6393C28.4063 10.8405 28.369 11.0404 28.2928 11.2267C28.2166 11.413 28.1031 11.5817 27.9593 11.7225L21.5749 18.0249L27.9593 24.4093C28.2298 24.6739 28.3885 25.0323 28.4025 25.4104C28.4025 25.8457 28.2296 26.2632 27.9218 26.571C27.614 26.8787 27.1965 27.0517 26.7612 27.0517C26.5521 27.0603 26.3434 27.0254 26.1484 26.9491C25.9535 26.8729 25.7765 26.7569 25.6288 26.6085L19.3757 20.2734L13.0569 26.5921C12.9183 26.7354 12.7526 26.8497 12.5695 26.9286C12.3864 27.0075 12.1895 27.0493 11.9901 27.0517C11.5549 27.0517 11.1374 26.8787 10.8296 26.571C10.5218 26.2632 10.3489 25.8457 10.3489 25.4104C10.3451 25.2092 10.3824 25.0093 10.4586 24.8231C10.5348 24.6368 10.6483 24.4681 10.792 24.3272L17.1764 18.0249L10.792 11.6405C10.5215 11.3758 10.3629 11.0175 10.3489 10.6393C10.3489 10.204 10.5218 9.78659 10.8296 9.4788C11.1374 9.17101 11.5549 8.99809 11.9901 8.99809C12.384 9.00302 12.7615 9.16222 13.0405 9.44123Z" fill="#F91B1B"/>
</svg>
