<svg width="36" height="36" viewBox="0 0 36 36" fill="none" xmlns="http://www.w3.org/2000/svg">
<circle cx="18" cy="18" r="18" fill="#4CAF50" fill-opacity="0.15"/>
<path fill-rule="evenodd" clip-rule="evenodd" d="M28.1641 10.9548C28.4526 11.2434 28.6146 11.6347 28.6146 12.0427C28.6146 12.4507 28.4526 12.8419 28.1641 13.1305L16.6314 24.6632C16.479 24.8157 16.298 24.9366 16.0989 25.0191C15.8997 25.1016 15.6863 25.1441 15.4707 25.1441C15.2551 25.1441 15.0417 25.1016 14.8425 25.0191C14.6434 24.9366 14.4625 24.8157 14.31 24.6632L8.58009 18.9343C8.43313 18.7924 8.31591 18.6226 8.23527 18.4349C8.15463 18.2471 8.11218 18.0452 8.11041 17.8409C8.10863 17.6366 8.14757 17.434 8.22493 17.2449C8.3023 17.0558 8.41655 16.884 8.56101 16.7396C8.70548 16.5951 8.87728 16.4808 9.06637 16.4035C9.25547 16.3261 9.45808 16.2872 9.66238 16.289C9.86668 16.2907 10.0686 16.3332 10.2563 16.4138C10.444 16.4945 10.6138 16.6117 10.7557 16.7586L15.4702 21.4731L25.9874 10.9548C26.1303 10.8118 26.3 10.6984 26.4867 10.621C26.6735 10.5436 26.8736 10.5038 27.0758 10.5038C27.2779 10.5038 27.4781 10.5436 27.6648 10.621C27.8516 10.6984 28.0212 10.8118 28.1641 10.9548Z" fill="#4CAF50"/>
</svg>
