<svg width="175" height="30" viewBox="0 0 175 30" fill="none" xmlns="http://www.w3.org/2000/svg">
<g clip-path="url(#clip0_217_1921)">
<path d="M11.6166 0C5.20076 0 0 5.20076 0 11.6166C0 14.8234 1.29932 17.727 3.40077 19.829C5.5028 21.9322 10.455 24.9757 10.7454 28.1703C10.7889 28.6492 11.1357 29.0416 11.6166 29.0416C12.0976 29.0416 12.4443 28.6492 12.4879 28.1703C12.7783 24.9757 17.7305 21.9322 19.8325 19.829C21.9339 17.727 23.2332 14.8234 23.2332 11.6166C23.2332 5.20076 18.0325 0 11.6166 0Z" fill="#EB1414"/>
<path d="M11.6166 15.6829C13.8621 15.6829 15.6824 13.8626 15.6824 11.6171C15.6824 9.37159 13.8621 7.55127 11.6166 7.55127C9.37111 7.55127 7.55078 9.37159 7.55078 11.6171C7.55078 13.8626 9.37111 15.6829 11.6166 15.6829Z" fill="white"/>
<path d="M43.4972 21.4929H46.565V3.87207H42.1028C37.6152 3.87207 35.2573 6.17926 35.2573 9.57668C35.2573 12.2895 36.5502 13.8868 38.8574 15.5348L34.8516 21.4929H38.1729L42.6351 14.8248L41.0885 13.7854C39.2124 12.5177 38.2997 11.5289 38.2997 9.39919C38.2997 7.52302 39.618 6.25534 42.1281 6.25534H43.4972V21.4929ZM83.7843 20.6308V18.1716C82.8462 18.8054 81.2742 19.3632 79.8037 19.3632C77.598 19.3632 76.7613 18.3238 76.6345 16.194H83.911V14.5967C83.911 10.1598 81.9589 8.48646 78.9417 8.48646C75.2654 8.48646 73.516 11.3007 73.516 15.1545C73.516 19.5914 75.6965 21.7465 79.5502 21.7465C81.4771 21.7465 82.8969 21.2394 83.7843 20.6308ZM102.647 21.7465C104.042 21.7465 105.031 21.4929 105.766 20.9605V18.5012C105.005 19.0336 104.093 19.3632 102.825 19.3632C100.67 19.3632 99.7825 17.6898 99.7825 15.0531C99.7825 12.2895 100.873 10.8697 102.85 10.8697C104.017 10.8697 105.158 11.2754 105.766 11.6557V9.09495C105.132 8.74 104.017 8.48646 102.521 8.48646C98.6669 8.48646 96.6639 11.25 96.6639 15.1292C96.6639 19.3886 98.6162 21.7465 102.647 21.7465ZM56.1488 8.74V13.7854H52.1175V8.74H49.1004V21.4929H52.1175V16.1686H56.1488V21.4929H59.1657V8.74H56.1488ZM72.7807 19.1096H71.437V8.74H62.6393V9.83021C62.6393 12.9487 62.4364 16.98 61.3716 19.1096H60.4335V24.4086H63.2224V21.4929H69.9919V24.4086H72.7807V19.1096ZM93.4187 21.4929H96.8415L91.9988 14.622L96.2584 8.74H93.2158L88.9564 14.622V8.74H85.9393V21.4929H88.9564V15.2306L93.4187 21.4929ZM78.8911 10.8697C80.3868 10.8697 80.8432 12.112 80.8432 13.7093V13.9629H76.6345C76.7106 11.9346 77.4458 10.8697 78.8911 10.8697ZM68.42 19.1096H64.1605C64.9971 17.1827 65.2254 13.7093 65.2254 11.5036V11.1233H68.42V19.1096Z" fill="#1F4250"/>
<path d="M121.333 21.4929H124.908L118.62 12.2135L124.502 3.87207H121.46L115.755 11.9853V3.87207H112.688V21.4929H115.755V13.2276L121.333 21.4929Z" fill="#1F4250"/>
<path d="M135.081 12.7965C135.081 9.70339 133.509 8.53711 130.314 8.53711C128.311 8.53711 126.739 9.17096 125.827 9.70339V12.2134C126.638 11.6049 128.413 10.9457 129.959 10.9457C131.405 10.9457 132.064 11.4528 132.064 12.8219V13.5318H131.582C126.968 13.5318 124.914 15.0531 124.914 17.6391C124.914 20.2252 126.486 21.6703 128.819 21.6703C130.593 21.6703 131.354 21.0872 131.937 20.4788H132.064C132.089 20.8084 132.191 21.2394 132.292 21.4929H135.233C135.132 20.4533 135.081 19.4138 135.081 18.3744V12.7965ZM132.064 18.4505C131.684 19.0082 130.974 19.4646 129.909 19.4646C128.641 19.4646 128.007 18.704 128.007 17.563C128.007 16.0672 129.047 15.5347 131.633 15.5347H132.064V18.4505Z" fill="#1F4250"/>
<path d="M140.207 8.74036H137.418V25.1695H140.435V19.9974C141.196 21.1384 142.311 21.7468 143.604 21.7468C146.545 21.7468 148.574 19.3889 148.574 15.1042C148.574 10.8447 146.596 8.48682 143.756 8.48682C142.337 8.48682 141.17 9.14602 140.359 10.3884L140.207 8.74036ZM142.844 19.3635C141.246 19.3635 140.435 18.0706 140.435 15.1296C140.435 12.1631 141.297 10.8701 142.996 10.8701C144.644 10.8701 145.455 12.1631 145.455 15.1042C145.455 18.0706 144.593 19.3635 142.844 19.3635Z" fill="#1F4250"/>
<path d="M159.089 11.1235V8.74023H148.973V11.1235H152.522V21.4932H155.539V11.1235H159.089Z" fill="#1F4250"/>
<path d="M160.785 8.74023V21.4932H165.375C168.342 21.4932 170.446 19.972 170.446 16.9803C170.446 14.1406 168.57 12.6447 165.426 12.6447H163.803V8.74023H160.785ZM171.561 8.74023V21.4932H174.578V8.74023H171.561ZM165.197 19.1099H163.803V15.0279H165.274C166.566 15.0279 167.327 15.6111 167.327 17.0816C167.327 18.5521 166.49 19.1099 165.197 19.1099Z" fill="#1F4250"/>
</g>
<defs>
<clipPath id="clip0_217_1921">
<rect width="174.685" height="29.0416" fill="white"/>
</clipPath>
</defs>
</svg>
