<svg width="77" height="77" viewBox="0 0 77 77" fill="none" xmlns="http://www.w3.org/2000/svg">
<circle cx="38.5" cy="38.5" r="38" stroke="#D6E9F0"/>
<path d="M37.0518 51.9997C36.952 51.9997 36.8532 51.9805 36.7618 51.9434C36.6703 51.9062 36.5881 51.8519 36.5204 51.7838L22.1923 37.3883C22.0968 37.2923 22.0334 37.1726 22.0101 37.0437C21.9867 36.9148 22.0043 36.7824 22.0607 36.6627C22.117 36.5429 22.2098 36.441 22.3275 36.3695C22.4453 36.298 22.583 36.2599 22.7237 36.2599H29.6204C29.724 36.2599 29.8263 36.2805 29.9206 36.3204C30.0148 36.3603 30.0987 36.4184 30.1667 36.491L34.9552 41.6078C35.4727 40.5803 36.4745 38.8695 38.2325 36.7849C40.8314 33.703 45.6655 29.1705 53.9362 25.0789C54.096 24.9998 54.282 24.9793 54.4573 25.0214C54.6327 25.0634 54.7847 25.1651 54.8833 25.3061C54.9819 25.4472 55.02 25.6175 54.99 25.7834C54.96 25.9493 54.8642 26.0988 54.7214 26.2022C54.6898 26.2251 51.5009 28.5575 47.831 32.8298C44.4533 36.7613 39.9634 43.1899 37.7541 51.4892C37.7153 51.635 37.625 51.7645 37.4977 51.8571C37.3703 51.9497 37.2135 51.9997 37.0518 51.9997Z" fill="#01A7E1"/>
</svg>
