<svg width="17" height="17" viewBox="0 0 17 17" fill="none" xmlns="http://www.w3.org/2000/svg">
<path d="M0.75 7.91442C0.75 4.29402 0.75 2.48384 1.87471 1.35913C2.99942 0.234425 4.8096 0.234425 8.43 0.234425H9.07C12.6904 0.234425 14.5006 0.234425 15.6253 1.35913C16.75 2.48384 16.75 4.29402 16.75 7.91442V8.55442C16.75 12.1748 16.75 13.985 15.6253 15.1097C14.5006 16.2344 12.6904 16.2344 9.07 16.2344H8.43C4.8096 16.2344 2.99942 16.2344 1.87471 15.1097C0.75 13.985 0.75 12.1748 0.75 8.55442V7.91442Z" fill="#38A4E1"/>
<path d="M9.26252 11.7612C5.61585 11.7612 3.53589 9.26115 3.44922 5.10115H5.27589C5.33589 8.15449 6.68252 9.44782 7.74919 9.71449V5.10115H9.46925V7.73449C10.5226 7.62115 11.6291 6.42115 12.0025 5.10115H13.7225C13.4358 6.72782 12.2358 7.92782 11.3825 8.42115C12.2358 8.82115 13.6026 9.86782 14.1226 11.7612H12.2292C11.8225 10.4945 10.8093 9.51449 9.46925 9.38115V11.7612H9.26252Z" fill="white"/>
</svg>
