<svg width="75" height="76" viewBox="0 0 75 76" fill="none" xmlns="http://www.w3.org/2000/svg">
<path d="M0.886719 36.4793C0.886719 19.2823 0.886719 10.6839 6.08218 5.34143C11.2776 -0.000976562 19.6396 -0.000976562 36.3635 -0.000976562H39.3199C56.0438 -0.000976562 64.4058 -0.000976562 69.6013 5.34143C74.7967 10.6839 74.7967 19.2823 74.7967 36.4793V39.5193C74.7967 56.7162 74.7967 65.3147 69.6013 70.6571C64.4058 75.9995 56.0438 75.9995 39.3199 75.9995H36.3635C19.6396 75.9995 11.2776 75.9995 6.08218 70.6571C0.886719 65.3147 0.886719 56.7162 0.886719 39.5193V36.4793Z" fill="#01A7E1"/>
<path d="M40.2132 54.7524C23.3679 54.7524 13.7597 42.8773 13.3594 23.1172H21.7974C22.0745 37.6206 28.2952 43.7639 33.2225 45.0306V23.1172H41.1681V35.6255C46.0338 35.0872 51.1453 29.3872 52.8699 23.1172H60.8154C59.4912 30.8439 53.9479 36.5439 50.0061 38.8872C53.9479 40.7872 60.2614 45.7589 62.6635 54.7524H53.9172C52.0387 48.7357 47.358 44.0806 41.1681 43.4472V54.7524H40.2132Z" fill="white"/>
</svg>
