<svg width="74" height="76" viewBox="0 0 74 76" fill="none" xmlns="http://www.w3.org/2000/svg">
<path d="M0.0898438 36.4802C0.0898438 19.2833 0.0898438 10.6848 5.2853 5.34241C10.4808 0 18.8427 0 35.5666 0H38.523C55.2469 0 63.6089 0 68.8044 5.34241C73.9998 10.6848 73.9998 19.2833 73.9998 36.4802V39.5203C73.9998 56.7172 73.9998 65.3157 68.8044 70.6581C63.6089 76.0005 55.2469 76.0005 38.523 76.0005H35.5666C18.8427 76.0005 10.4808 76.0005 5.2853 70.6581C0.0898438 65.3157 0.0898438 56.7172 0.0898438 39.5203V36.4802Z" fill="#4CAF50"/>
<g clip-path="url(#clip0_404_13883)">
<path d="M38.0971 15.5098H38.0859C25.6855 15.5098 15.6016 25.5965 15.6016 37.9997C15.6016 42.9194 17.1871 47.4792 19.8831 51.1816L17.0803 59.5366L25.7248 56.7732C29.2811 59.129 33.5232 60.4896 38.0971 60.4896C50.4975 60.4896 60.5814 50.4001 60.5814 37.9997C60.5814 25.5993 50.4975 15.5098 38.0971 15.5098Z" fill="#FAFAFA"/>
<path d="M51.182 47.2682C50.6395 48.8003 48.4861 50.071 46.7684 50.4421C45.5933 50.6923 44.0584 50.8919 38.8913 48.7497C32.2821 46.0115 28.0258 39.2955 27.6941 38.8597C27.3764 38.424 25.0234 35.3035 25.0234 32.0762C25.0234 28.8489 26.6624 27.2774 27.323 26.6027C27.8656 26.0489 28.7624 25.7959 29.6226 25.7959C29.9009 25.7959 30.1511 25.81 30.376 25.8212C31.0367 25.8493 31.3684 25.8887 31.8042 26.9316C32.3467 28.2389 33.668 31.4662 33.8254 31.7979C33.9857 32.1296 34.1459 32.5794 33.921 33.0152C33.7102 33.465 33.5246 33.6646 33.1929 34.0469C32.8612 34.4292 32.5463 34.7216 32.2146 35.132C31.911 35.4891 31.568 35.8714 31.9503 36.532C32.3327 37.1786 33.654 39.3348 35.5993 41.0666C38.1098 43.3015 40.1451 44.0156 40.8732 44.3192C41.4158 44.5441 42.0624 44.4907 42.4588 44.069C42.962 43.5264 43.5833 42.6268 44.2158 41.7413C44.6656 41.1059 45.2335 41.0272 45.8294 41.2521C46.4367 41.4629 49.6499 43.0513 50.3106 43.3802C50.9712 43.7119 51.4069 43.8694 51.5672 44.1477C51.7246 44.426 51.7246 45.7332 51.182 47.2682Z" fill="#4CAF50"/>
</g>
<defs>
<clipPath id="clip0_404_13883">
<rect width="44.9799" height="44.9799" fill="white" transform="translate(15.6016 15.5098)"/>
</clipPath>
</defs>
</svg>
