<svg width="24" height="24" viewBox="0 0 24 24" fill="none" xmlns="http://www.w3.org/2000/svg">
<path d="M6.64566 23.0626H2.8125C1.77698 23.0626 0.9375 22.2231 0.9375 21.1876V2.81262C0.9375 1.77711 1.77698 0.937622 2.8125 0.937622H11.8125C12.3302 0.937622 12.799 1.14748 13.1383 1.48681L15.0133 3.36181C15.3526 3.70109 15.5625 4.16984 15.5625 4.68762V9.85226M4.6875 8.06262H11.8125M4.6875 11.8126H11.8125M4.6875 15.5626H8.0625M19.8617 10.8556C20.5939 10.1233 21.7811 10.1233 22.5133 10.8556C23.2455 11.5878 23.2455 12.775 22.5133 13.5072L14.7634 21.2571C14.6275 21.393 14.4716 21.5072 14.301 21.5957L11.6754 22.9577C11.3223 23.1408 10.8772 23.0843 10.5809 22.788C10.2846 22.4918 10.2281 22.0466 10.4112 21.6935L11.7732 19.0679C11.8617 18.8973 11.9759 18.7414 12.1118 18.6055L19.8617 10.8556Z" stroke="white" stroke-width="1.5" stroke-miterlimit="10" stroke-linecap="round" stroke-linejoin="round"/>
</svg>
