<svg width="122" height="41" viewBox="0 0 122 41" fill="none" xmlns="http://www.w3.org/2000/svg">
<path fill-rule="evenodd" clip-rule="evenodd" d="M4.23007 0.12684C2.50491 0.693975 1.28939 1.69649 0.447742 3.24691C0.0854806 3.91423 -0.00260391 4.59222 5.7996e-05 6.68913C0.00368787 9.62284 0.518646 11.9498 2.78417 19.271C5.56877 28.2694 8.30787 34.7194 10.1214 36.5474C13.1063 39.5566 15.986 39.4887 31.1419 36.0529L35.1844 35.1363L36.2238 36.1856C38.5084 38.4914 42.0616 40.9926 43.053 40.9926C44.1587 40.9926 44.036 38.4608 42.7329 34.3833C42.2431 32.8507 42.1235 32.1318 42.2711 31.6091C42.6566 30.2441 43.424 25.6441 43.8344 22.2384C44.3573 17.8963 44.4386 8.38649 43.9656 6.85364C43.5472 5.49765 42.2503 4.13073 40.8027 3.51991C38.3664 2.49152 29.779 1.12366 21.8969 0.508095C16.4114 0.0798361 5.11479 -0.163967 4.23007 0.12684ZM20.4256 12.5153C21.6762 15.132 22.7799 17.1886 22.8784 17.0851C22.9769 16.9816 23.9998 14.9208 25.1514 12.5053C26.3033 10.0898 27.3303 8.03017 27.4339 7.92856C27.5375 7.82672 29.1029 7.77331 30.913 7.80986L34.2039 7.8761L30.4704 14.8355L26.7367 21.7952V25.9337V30.0724H22.7439H18.751L18.7459 25.8587L18.7408 21.645L15.026 14.7012L11.311 7.7574H14.7315H18.1521L20.4256 12.5153ZM52.3273 23.5954C51.5285 23.7141 51.5055 23.9664 52.0355 26.7822C52.4883 29.1867 53.4175 32.4694 54.0651 33.9512C54.5379 35.0335 54.5379 35.0606 54.0711 37.7201C53.8127 39.1936 53.6002 40.537 53.5995 40.7053C53.5983 40.9366 54.0881 40.9949 55.5942 40.9427L57.5906 40.8739L58.0925 38.0021C58.5787 35.2196 58.6358 35.0717 59.9319 33.2542C62.1023 30.2099 65.6562 24.0182 65.3854 23.7525C65.3298 23.6979 64.4213 23.588 63.3663 23.5083L61.4482 23.3632L60.8229 24.7847C59.9902 26.6775 57.4951 31.022 57.2402 31.022C56.9818 31.022 56.3446 28.2592 55.9751 25.5375L55.6886 23.4254L54.3407 23.461C53.5992 23.4805 52.6932 23.541 52.3273 23.5954ZM65.7211 24.667C65.2865 26.8042 63.0355 40.146 63.0355 40.5857C63.0355 40.9715 63.4059 40.9976 68.0461 40.938L73.0568 40.8739L73.2199 40.043C73.3097 39.586 73.4437 38.8116 73.5178 38.3219L73.6526 37.4317H70.6429C67.2209 37.4317 67.4218 37.5945 67.9087 35.2161C68.1841 33.8708 68.1841 33.8708 69.0821 33.8708C69.576 33.8708 70.8225 33.801 71.8517 33.7155C73.9652 33.5403 74.0083 33.4971 74.313 31.2433L74.4783 30.0214L71.6608 30.194C70.111 30.2889 68.8432 30.2825 68.8432 30.1797C68.8432 30.0767 68.9628 29.3194 69.109 28.4964L69.3744 27.0001L72.4192 26.9339L75.4639 26.8676L75.6418 26.2141C75.7395 25.8547 75.8562 25.1069 75.9007 24.5523L75.982 23.5441L70.9788 23.48L65.9756 23.4159L65.7211 24.667ZM78.1832 24.0782C77.8494 25.6759 75.377 40.2213 75.377 40.5859C75.377 40.9555 75.7952 40.9926 79.9703 40.9926C85.1927 40.9926 84.6199 41.2521 85.0245 38.7027L85.2183 37.481L84.351 37.3403C83.8741 37.2629 82.7437 37.1983 81.8394 37.1969L80.1948 37.1943L80.3395 36.4227C81.2615 31.5077 82.5526 23.7426 82.4708 23.6035C82.4132 23.5056 81.4556 23.4254 80.3427 23.4254C78.3298 23.4254 78.3187 23.4287 78.1832 24.0782ZM88.8184 23.7222C88.7664 23.8855 88.1082 27.651 87.3561 32.0903C86.604 36.5296 85.9349 40.3485 85.8693 40.5771C85.7587 40.9627 86.0905 40.9926 90.4652 40.9926H95.1802L95.4422 39.794C95.8727 37.8248 95.8096 37.5117 94.9481 37.3426C94.5321 37.261 93.4431 37.1943 92.5282 37.1943C91.6132 37.1943 90.8645 37.114 90.8647 37.0162C90.8647 36.9184 91.3531 34.0607 91.95 30.6659C92.5468 27.2712 93.0368 24.2532 93.0388 23.9595C93.0422 23.447 92.9587 23.4254 90.978 23.4254C89.5381 23.4254 88.8847 23.5151 88.8184 23.7222ZM114.278 29.3166C113.516 29.4025 113.615 29.1034 112.77 33.8912C111.965 38.4572 111.974 39.1198 112.857 40.0893C113.498 40.7925 113.697 40.8632 115.29 40.9515C118.257 41.1158 119.983 40.0867 120.596 37.7878C120.985 36.3306 122.116 29.5521 121.99 29.4293C121.795 29.2375 119.612 29.3135 119.422 29.5186C119.322 29.6273 118.931 31.5277 118.554 33.7416C117.779 38.2858 117.57 38.6944 116.078 38.5728C115.271 38.5068 115.177 38.4278 115.11 37.7479C115.069 37.3341 115.314 35.4335 115.655 33.5239C115.995 31.6146 116.274 29.9086 116.274 29.7332C116.274 29.389 115.348 29.1957 114.278 29.3166ZM102.893 34.761C102.396 37.7313 101.99 40.3542 101.992 40.5895C101.996 40.9563 102.178 41.0071 103.267 40.9456L104.537 40.8739L104.886 38.7967C105.224 36.7838 105.255 36.7195 105.888 36.7195C106.447 36.7195 106.564 36.8432 106.706 37.5902C106.798 38.0691 107.09 39.0305 107.356 39.7268L107.839 40.9926H109.273C110.062 40.9926 110.708 40.9453 110.708 40.8874C110.708 40.8295 110.381 39.8255 109.982 38.6564C109.583 37.4872 109.256 36.4004 109.256 36.2411C109.256 36.0816 109.59 35.5776 109.999 35.1209C111.268 33.7027 111.566 32.8644 111.211 31.7029C111.043 31.1543 110.598 30.4027 110.221 30.0328C109.545 29.37 109.493 29.3603 106.667 29.3603H103.798L102.893 34.761ZM108.505 32.2683C108.918 33.3637 107.818 34.3455 106.178 34.3455C105.735 34.3455 105.624 34.2449 105.718 33.9301C105.786 33.7015 105.914 33.1142 106.003 32.6244C106.16 31.7537 106.187 31.7342 107.234 31.7342C108.122 31.7342 108.338 31.8247 108.505 32.2683Z" fill="#EB1414"/>
</svg>
