<svg width="124" height="30" viewBox="0 0 124 30" fill="none" xmlns="http://www.w3.org/2000/svg">
<path d="M1.08886 0.993188H26.9104C27.5117 0.993188 27.9992 1.4807 27.9992 2.08208V7.16C27.9992 7.83639 27.7057 8.47681 27.1948 8.92L12.7552 21H26.9104C27.5117 21 27.9992 21.4786 27.9992 22.08V27.9096C27.9992 28.511 27.5117 28.9985 26.9104 28.9985H1.08886C0.487499 28.9985 0 28.511 0 27.9096V22.84C0 22.1636 0.293502 21.5232 0.804455 21.08L15.244 9H1.08886C0.487499 9 0 8.50138 0 7.9V2.08208C0 1.4807 0.487499 0.993188 1.08886 0.993188ZM45.9987 0C48.9844 0 51.6462 0.671421 53.8684 1.8984C56.0906 3.12537 57.873 4.90791 59.1 7.13013C60.3269 9.35235 60.9983 12.0143 60.9983 15C60.9983 17.9857 60.3269 20.6477 59.1 22.8699C57.873 25.0921 56.0906 26.8746 53.8684 28.1016C51.6462 29.3286 48.9844 30 45.9987 30C43.0131 30 40.3512 29.3286 38.1291 28.1016C35.9069 26.8746 34.1244 25.0921 32.8975 22.8699C31.6705 20.6477 30.9991 17.9857 30.9991 15C30.9991 12.0143 31.6705 9.35235 32.8975 7.13013C34.1244 4.90791 35.9069 3.12537 38.1291 1.8984C40.3512 0.671421 43.0131 0 45.9987 0ZM45.9987 8C44.5705 8 43.3167 8.3017 42.2797 8.86266C41.2427 9.42361 40.4225 10.2438 39.8616 11.2809C39.3006 12.3179 38.9989 13.5718 38.9989 15C38.9989 16.4282 39.3006 17.6821 39.8616 18.7191C40.4225 19.7562 41.2427 20.5764 42.2797 21.1373C43.3167 21.6983 44.5705 22 45.9987 22C47.4269 22 48.6808 21.6983 49.7178 21.1373C50.7548 20.5764 51.575 19.7562 52.1359 18.7191C52.6969 17.6821 52.9985 16.4282 52.9985 15C52.9985 13.5718 52.6969 12.3179 52.1359 11.2809C51.575 10.2438 50.7548 9.42361 49.7178 8.86266C48.6808 8.3017 47.4269 8 45.9987 8ZM77.9979 0C80.9835 0 83.6454 0.671421 85.8675 1.8984C88.0897 3.12537 89.8722 4.90791 91.0991 7.13013C92.326 9.35235 92.9974 12.0143 92.9974 15C92.9974 17.9857 92.326 20.6477 91.0991 22.8699C89.8722 25.0921 88.0897 26.8746 85.8675 28.1016C83.6454 29.3286 80.9835 30 77.9979 30C75.0122 30 72.3504 29.3286 70.1282 28.1016C67.906 26.8746 66.1236 25.0921 64.8966 22.8699C63.6697 20.6477 62.9983 17.9857 62.9983 15C62.9983 12.0143 63.6697 9.35235 64.8966 7.13013C66.1236 4.90791 67.906 3.12537 70.1282 1.8984C72.3504 0.671421 75.0122 0 77.9979 0ZM77.9979 8C76.5697 8 75.3158 8.3017 74.2788 8.86266C73.2418 9.42361 72.4216 10.2438 71.8607 11.2809C71.2997 12.3179 70.998 13.5718 70.998 15C70.998 16.4282 71.2997 17.6821 71.8607 18.7191C72.4216 19.7562 73.2418 20.5764 74.2788 21.1373C75.3158 21.6983 76.5697 22 77.9979 22C79.4261 22 80.6799 21.6983 81.7169 21.1373C82.7539 20.5764 83.5741 19.7562 84.135 18.7191C84.696 17.6821 84.9977 16.4282 84.9977 15C84.9977 13.5718 84.696 12.3179 84.135 11.2809C83.5741 10.2438 82.7539 9.42361 81.7169 8.86266C80.6799 8.3017 79.4261 8 77.9979 8ZM124 2.08554V27.9092C124 28.5106 123.512 28.9981 122.911 28.9981H117.837C117.16 28.9981 116.52 28.7046 116.077 28.1937L103.997 13.7555V27.9092C103.997 28.5106 103.499 28.9981 102.897 28.9981H97.0829C96.4815 28.9981 95.994 28.5106 95.994 27.9092V2.08554C95.994 1.48413 96.4815 0.996594 97.0829 0.996594H102.157C102.834 0.996594 103.474 1.29018 103.917 1.80127L115.997 16.2445V2.08554C115.997 1.48413 116.475 0.996594 117.077 0.996594H122.911C123.512 0.996594 124 1.48413 124 2.08554Z" fill="url(#paint0_linear_217_1960)"/>
<defs>
<linearGradient id="paint0_linear_217_1960" x1="0" y1="15" x2="124" y2="15" gradientUnits="userSpaceOnUse">
<stop stop-color="#0C2E3F"/>
<stop offset="1" stop-color="#5B32D1"/>
</linearGradient>
</defs>
</svg>
