<svg width="1074" height="248" viewBox="0 0 1074 248" fill="none" xmlns="http://www.w3.org/2000/svg">
<path d="M1074.48 210.132C1074.97 209.866 1075.14 209.258 1074.88 208.774C1074.61 208.29 1074 208.114 1073.52 208.381L1074.48 210.132ZM903.291 159.34L903.661 158.411V158.411L903.291 159.34ZM761.549 192.65L762.169 193.435L762.17 193.435L761.549 192.65ZM652.574 229.822L652.421 230.81L652.574 229.822ZM554.039 198.867L554.14 197.872V197.872L554.039 198.867ZM510.049 213.207L509.311 212.533L509.311 212.533L510.049 213.207ZM501.293 235.077L502.268 234.857L502.268 234.857L501.293 235.077ZM519.061 247.575L519.308 248.544L519.308 248.544L519.061 247.575ZM522.267 209.655L521.478 210.27L521.478 210.27L522.267 209.655ZM466.395 176.797L466.54 175.807L466.395 176.797ZM327.146 198.949L327.265 197.956L327.265 197.956L327.146 198.949ZM197.133 124.371L197.839 123.663L197.839 123.663L197.133 124.371ZM164.139 55.5332L165.139 55.5282V55.5281L164.139 55.5332ZM211.041 0.0153251L211.074 -0.984139L211.074 -0.984141L211.041 0.0153251ZM258.56 31.8709L257.726 32.4222L257.726 32.4222L258.56 31.8709ZM265.674 49.5229L266.674 49.5035V49.5035L265.674 49.5229ZM258.56 64.2755L258.571 63.2756L258.56 63.2755L258.549 63.2756L258.56 64.2755ZM252.419 49.8908L251.419 49.8714V49.8715L252.419 49.8908ZM259.255 32.1646L258.438 31.5872L258.438 31.5873L259.255 32.1646ZM306.844 2.5496L306.861 3.54945L306.844 2.5496ZM355.057 59.9099L354.057 59.9048V59.9048L355.057 59.9099ZM314.937 131.092L315.608 131.833V131.833L314.937 131.092ZM174.103 204.048L173.98 203.055H173.98L174.103 204.048ZM81.582 181.887L80.9595 182.67L80.9595 182.67L81.582 181.887ZM71.7483 158.14L70.7658 157.954L70.7658 157.954L71.7483 158.14ZM88.1161 146.517L87.8386 147.478L87.8387 147.478L88.1161 146.517ZM97.6766 171.75L96.7175 171.467V171.467L97.6766 171.75ZM40.4881 218.119L40.8162 219.064L40.8162 219.064L40.4881 218.119ZM-91.5343 181.308L-90.8467 180.582L-90.8467 180.582L-91.5343 181.308ZM-215.697 163.266C-214.717 162.954 -213.744 162.649 -212.78 162.351L-213.37 160.44C-214.34 160.74 -215.318 161.047 -216.303 161.36L-215.697 163.266ZM-206.971 160.618C-204.993 160.049 -203.048 159.511 -201.133 159.004L-201.644 157.071C-203.574 157.581 -205.533 158.123 -207.524 158.696L-206.971 160.618ZM-195.267 157.528C-193.264 157.05 -191.297 156.61 -189.362 156.205L-189.772 154.247C-191.725 154.656 -193.711 155.101 -195.731 155.582L-195.267 157.528ZM-183.41 155.057C-181.383 154.7 -179.393 154.385 -177.438 154.114L-177.714 152.133C-179.693 152.408 -181.707 152.726 -183.757 153.087L-183.41 155.057ZM-171.455 153.404C-169.405 153.204 -167.395 153.054 -165.422 152.954L-165.523 150.957C-167.528 151.058 -169.569 151.21 -171.649 151.413L-171.455 153.404ZM-159.403 152.804C-157.355 152.808 -155.347 152.869 -153.376 152.987L-153.256 150.991C-155.268 150.87 -157.314 150.808 -159.4 150.804L-159.403 152.804ZM-147.393 153.536C-145.375 153.788 -143.396 154.103 -141.45 154.483L-141.067 152.52C-143.059 152.131 -145.084 151.809 -147.145 151.552L-147.393 153.536ZM-135.599 155.844C-133.657 156.37 -131.747 156.964 -129.864 157.627L-129.2 155.74C-131.129 155.061 -133.086 154.453 -135.075 153.913L-135.599 155.844ZM-124.272 159.825C-122.443 160.621 -120.637 161.484 -118.849 162.415L-117.925 160.641C-119.753 159.689 -121.601 158.806 -123.474 157.991L-124.272 159.825ZM-113.603 165.368C-111.907 166.395 -110.224 167.485 -108.551 168.638L-107.416 166.991C-109.12 165.817 -110.836 164.706 -112.567 163.658L-113.603 165.368ZM-103.678 172.189C-102.107 173.396 -100.542 174.66 -98.9787 175.979L-97.6888 174.45C-99.2738 173.113 -100.863 171.83 -102.459 170.604L-103.678 172.189ZM-94.4424 179.968C-93.7025 180.644 -92.9625 181.333 -92.222 182.034L-90.8467 180.582C-91.5955 179.873 -92.3442 179.176 -93.093 178.491L-94.4424 179.968ZM-92.222 182.034C-91.4752 182.741 -90.7295 183.438 -89.9851 184.124L-88.6295 182.654C-89.3673 181.974 -90.1064 181.283 -90.8467 180.582L-92.222 182.034ZM-85.4786 188.165C-83.9328 189.513 -82.3926 190.816 -80.8582 192.075L-79.5891 190.529C-81.1081 189.282 -82.6333 187.992 -84.1644 186.658L-85.4786 188.165ZM-76.1192 195.845C-74.4915 197.098 -72.8708 198.303 -71.2576 199.462L-70.0908 197.837C-71.6858 196.692 -73.2887 195.5 -74.8991 194.26L-76.1192 195.845ZM-66.2706 202.914C-64.5569 204.055 -62.8523 205.145 -61.1572 206.185L-60.1113 204.481C-61.7849 203.454 -63.4685 202.377 -65.1618 201.249L-66.2706 202.914ZM-55.918 209.26C-54.1185 210.269 -52.3308 211.222 -50.5554 212.122L-49.6512 210.338C-51.4016 209.451 -53.1647 208.511 -54.9402 207.516L-55.918 209.26ZM-45.0743 214.752C-43.1949 215.603 -41.3304 216.396 -39.4819 217.132L-38.7415 215.274C-40.5614 214.549 -42.3976 213.769 -44.2493 212.93L-45.0743 214.752ZM-33.7875 219.245C-31.8393 219.915 -29.9104 220.524 -28.0017 221.075L-27.4466 219.154C-29.3233 218.612 -31.2205 218.013 -33.1373 217.354L-33.7875 219.245ZM-22.1036 222.616C-20.0923 223.085 -18.1058 223.492 -16.1453 223.841L-15.7949 221.872C-17.7206 221.529 -19.6724 221.129 -21.649 220.668L-22.1036 222.616ZM-10.1343 224.743C-8.07974 224.995 -6.05707 225.184 -4.06784 225.317L-3.93486 223.321C-5.88783 223.191 -7.87381 223.005 -9.89134 222.758L-10.1343 224.743ZM2.00629 225.553C4.07832 225.575 6.10936 225.539 8.0975 225.45L8.00829 223.452C6.0564 223.539 4.06247 223.575 2.02834 223.553L2.00629 225.553ZM14.1685 225.011C16.2323 224.804 18.2428 224.544 20.1977 224.24L19.8904 222.264C17.9702 222.562 15.9957 222.818 13.9691 223.021L14.1685 225.011ZM26.1832 223.144C28.2304 222.713 30.205 222.239 32.1035 221.734L31.5899 219.801C29.7233 220.297 27.7825 220.763 25.7708 221.187L26.1832 223.144ZM37.9372 220.025C38.9229 219.709 39.8828 219.388 40.8162 219.064L40.1601 217.175C39.2414 217.494 38.2969 217.81 37.3272 218.12L37.9372 220.025ZM40.8162 219.064C41.823 218.714 42.82 218.354 43.8068 217.982L43.1023 216.11C42.1313 216.476 41.1505 216.831 40.16 217.175L40.8162 219.064ZM49.7002 215.59C51.6685 214.731 53.5906 213.833 55.4642 212.9L54.5724 211.109C52.7289 212.028 50.8376 212.912 48.9008 213.756L49.7002 215.59ZM61.0836 209.919C62.961 208.86 64.7812 207.769 66.5415 206.653L65.4701 204.964C63.7389 206.062 61.9484 207.135 60.1014 208.176L61.0836 209.919ZM71.8176 203.105C73.5869 201.846 75.2826 200.564 76.9012 199.268L75.6512 197.707C74.0622 198.979 72.3965 200.238 70.6575 201.476L71.8176 203.105ZM81.7483 195.144C83.3798 193.667 84.9098 192.183 86.3329 190.705L84.8922 189.318C83.5019 190.762 82.0048 192.214 80.4059 193.661L81.7483 195.144ZM90.5803 185.931C92.0112 184.178 93.2802 182.451 94.377 180.77L92.7018 179.677C91.6478 181.293 90.4217 182.963 89.0311 184.666L90.5803 185.931ZM97.498 175.103C97.9625 174.049 98.3434 173.023 98.6357 172.033L96.7175 171.467C96.4524 172.365 96.1024 173.31 95.6679 174.296L97.498 175.103ZM98.6357 172.033C98.8841 171.192 99.0979 170.356 99.2775 169.527L97.3228 169.103C97.1539 169.883 96.9523 170.672 96.7175 171.467L98.6357 172.033ZM99.96 164.385C100.042 162.575 99.9474 160.828 99.6775 159.17L97.7035 159.491C97.9496 161.003 98.0387 162.612 97.9621 164.294L99.96 164.385ZM98.1769 154.112C97.4238 152.452 96.4376 150.956 95.2237 149.673L93.7708 151.047C94.8217 152.158 95.6874 153.466 96.3556 154.939L98.1769 154.112ZM90.8974 146.511C90.1084 146.13 89.2732 145.811 88.3935 145.557L87.8387 147.478C88.6127 147.701 89.3423 147.981 90.0275 148.312L90.8974 146.511ZM88.3936 145.557C87.3887 145.266 86.3755 145.107 85.3696 145.07L85.2962 147.069C86.14 147.1 86.9914 147.233 87.8386 147.478L88.3936 145.557ZM79.4283 146.298C77.6319 147.136 75.9941 148.372 74.6241 149.927L76.1248 151.249C77.3205 149.892 78.7378 148.827 80.2734 148.111L79.4283 146.298ZM71.567 155.071C71.2263 155.986 70.9563 156.949 70.7658 157.954L72.7308 158.326C72.9004 157.432 73.1402 156.577 73.4414 155.768L71.567 155.071ZM70.7658 157.954C70.5436 159.127 70.4251 160.301 70.4007 161.467L72.4003 161.508C72.4225 160.45 72.5299 159.387 72.7309 158.326L70.7658 157.954ZM71.3366 168.417C71.9858 170.668 72.9444 172.82 74.1288 174.81L75.8474 173.787C74.7437 171.933 73.8566 169.938 73.2583 167.863L71.3366 168.417ZM78.37 180.328C79.1951 181.172 80.062 181.956 80.9595 182.67L82.2045 181.105C81.374 180.444 80.5689 179.716 79.8005 178.93L78.37 180.328ZM80.9595 182.67C81.7575 183.305 82.5754 183.926 83.4123 184.535L84.5891 182.918C83.7747 182.326 82.9794 181.721 82.2045 181.105L80.9595 182.67ZM88.5271 187.959C90.2489 189.021 92.0312 190.036 93.8664 191.005L94.8002 189.236C93.0022 188.287 91.2587 187.294 89.5767 186.257L88.5271 187.959ZM99.3798 193.707C101.224 194.546 103.109 195.342 105.03 196.095L105.761 194.234C103.871 193.492 102.018 192.71 100.208 191.886L99.3798 193.707ZM110.79 198.194C112.713 198.844 114.665 199.453 116.637 200.022L117.192 198.101C115.247 197.54 113.324 196.939 111.429 196.299L110.79 198.194ZM122.556 201.595C124.535 202.076 126.529 202.519 128.533 202.922L128.927 200.961C126.949 200.563 124.981 200.127 123.029 199.651L122.556 201.595ZM134.556 204.009C136.574 204.333 138.596 204.617 140.616 204.861L140.856 202.875C138.861 202.634 136.865 202.354 134.873 202.035L134.556 204.009ZM146.706 205.475C148.753 205.64 150.792 205.764 152.817 205.846L152.898 203.848C150.9 203.767 148.888 203.645 146.868 203.481L146.706 205.475ZM158.94 205.965C161.005 205.961 163.048 205.912 165.065 205.816L164.97 203.819C162.985 203.912 160.971 203.961 158.936 203.965L158.94 205.965ZM171.179 205.378C172.204 205.278 173.221 205.165 174.227 205.04L173.98 203.055C172.992 203.178 171.993 203.289 170.985 203.387L171.179 205.378ZM174.227 205.04C175.263 204.911 176.296 204.774 177.324 204.629L177.045 202.649C176.027 202.792 175.005 202.928 173.98 203.055L174.227 205.04ZM183.48 203.662C185.538 203.305 187.579 202.917 189.603 202.5L189.198 200.541C187.195 200.954 185.175 201.338 183.139 201.692L183.48 203.662ZM195.684 201.146C197.714 200.66 199.726 200.145 201.72 199.603L201.195 197.673C199.22 198.21 197.228 198.72 195.219 199.2L195.684 201.146ZM207.708 197.875C209.704 197.266 211.682 196.629 213.642 195.967L213.001 194.072C211.06 194.728 209.101 195.359 207.124 195.962L207.708 197.875ZM219.515 193.885C221.47 193.16 223.407 192.409 225.324 191.635L224.575 189.78C222.675 190.548 220.756 191.291 218.819 192.01L219.515 193.885ZM231.066 189.223C232.976 188.389 234.867 187.533 236.738 186.656L235.889 184.845C234.034 185.715 232.159 186.564 230.266 187.39L231.066 189.223ZM242.341 183.938C244.205 183.004 246.05 182.049 247.874 181.077L246.933 179.312C245.123 180.277 243.294 181.223 241.445 182.15L242.341 183.938ZM253.332 178.08C255.146 177.055 256.941 176.013 258.714 174.955L257.69 173.238C255.929 174.287 254.149 175.322 252.348 176.339L253.332 178.08ZM264.02 171.709C265.788 170.601 267.534 169.479 269.258 168.344L268.159 166.673C266.446 167.8 264.713 168.914 262.958 170.015L264.02 171.709ZM274.422 164.87C276.141 163.688 277.838 162.496 279.512 161.295L278.346 159.67C276.682 160.863 274.997 162.048 273.289 163.222L274.422 164.87ZM284.529 157.625C286.205 156.375 287.856 155.119 289.485 153.859L288.261 152.277C286.642 153.53 284.999 154.779 283.334 156.021L284.529 157.625ZM294.37 150.012C296.001 148.706 297.607 147.398 299.188 146.091L297.913 144.55C296.34 145.851 294.742 147.152 293.12 148.451L294.37 150.012ZM303.954 142.09C305.548 140.733 307.115 139.378 308.655 138.03L307.338 136.525C305.804 137.868 304.244 139.216 302.657 140.567L303.954 142.09ZM313.307 133.908C314.082 133.214 314.849 132.522 315.608 131.833L314.265 130.351C313.508 131.038 312.743 131.727 311.972 132.419L313.307 133.908ZM315.608 131.833C316.347 131.163 317.084 130.481 317.817 129.788L316.443 128.334C315.72 129.018 314.994 129.69 314.265 130.351L315.608 131.833ZM322.108 125.567C323.502 124.141 324.879 122.678 326.232 121.182L324.749 119.84C323.413 121.317 322.054 122.761 320.678 124.169L322.108 125.567ZM330.186 116.642C331.473 115.105 332.733 113.541 333.961 111.953L332.379 110.729C331.167 112.296 329.923 113.841 328.652 115.358L330.186 116.642ZM337.548 107.117C338.716 105.474 339.846 103.811 340.933 102.134L339.254 101.046C338.184 102.699 337.07 104.338 335.918 105.959L337.548 107.117ZM344.094 97.001C345.117 95.2488 346.089 93.4855 347.003 91.7161L345.227 90.7977C344.329 92.5353 343.373 94.2686 342.367 95.9926L344.094 97.001ZM349.623 86.2769C350.455 84.4104 351.218 82.5422 351.904 80.6779L350.028 79.9867C349.357 81.8069 348.611 83.6341 347.796 85.4626L349.623 86.2769ZM353.782 74.9161C354.341 72.9338 354.805 70.9619 355.165 69.0076L353.198 68.6454C352.851 70.5344 352.401 72.4459 351.857 74.373L353.782 74.9161ZM355.942 62.9639C356.013 61.9402 356.052 60.9235 356.057 59.915L354.057 59.9048C354.052 60.8686 354.015 61.8421 353.946 62.8244L355.942 62.9639ZM356.057 59.915C356.062 58.8985 356.048 57.8954 356.013 56.9057L354.014 56.9751C354.048 57.938 354.062 58.9145 354.057 59.9048L356.057 59.915ZM355.554 50.9138C355.31 48.8739 354.979 46.8982 354.571 44.9864L352.615 45.4046C353.011 47.2562 353.331 49.1718 353.569 51.1519L355.554 50.9138ZM353.031 39.1727C352.408 37.216 351.7 35.3369 350.916 33.5353L349.082 34.3333C349.839 36.0724 350.523 37.8875 351.125 39.7791L353.031 39.1727ZM348.224 28.1441C347.212 26.3613 346.122 24.6699 344.969 23.0696L343.346 24.239C344.458 25.7816 345.508 27.4123 346.485 29.1316L348.224 28.1441ZM341.183 18.3783C339.812 16.8574 338.382 15.4416 336.909 14.13L335.579 15.6236C336.998 16.8874 338.376 18.2518 339.697 19.7174L341.183 18.3783ZM332.189 10.3729C330.51 9.1825 328.8 8.114 327.08 7.1665L326.115 8.9185C327.77 9.82964 329.416 10.8579 331.032 12.0043L332.189 10.3729ZM321.623 4.57175C319.685 3.79112 317.759 3.16202 315.873 2.68386L315.382 4.6225C317.177 5.0778 319.018 5.67858 320.876 6.42691L321.623 4.57175ZM309.879 1.6566C308.836 1.56826 307.816 1.53254 306.826 1.54975L306.861 3.54945C307.779 3.53348 308.731 3.56653 309.711 3.64947L309.879 1.6566ZM306.826 1.54975C305.846 1.5668 304.855 1.62152 303.854 1.71388L304.038 3.70542C304.99 3.61751 305.932 3.56561 306.861 3.54945L306.826 1.54975ZM297.997 2.6625C296.121 3.09403 294.224 3.65049 292.319 4.33205L292.993 6.21517C294.827 5.55907 296.648 5.02497 298.445 4.61162L297.997 2.6625ZM286.869 6.6164C285.137 7.4497 283.406 8.38602 281.684 9.42564L282.718 11.1377C284.387 10.13 286.062 9.22394 287.736 8.41869L286.869 6.6164ZM276.782 12.6893C275.229 13.8218 273.691 15.0413 272.173 16.3479L273.478 17.8636C274.956 16.5915 276.452 15.4055 277.96 14.305L276.782 12.6893ZM267.866 20.3508C266.508 21.711 265.172 23.1456 263.864 24.6549L265.376 25.9647C266.653 24.4906 267.957 23.0905 269.281 21.7641L267.866 20.3508ZM260.173 29.2159C259.587 29.9899 259.009 30.7804 258.438 31.5872L260.071 32.7421C260.63 31.9525 261.195 31.1793 261.768 30.4223L260.173 29.2159ZM258.438 31.5873C257.953 32.2731 257.495 32.9507 257.063 33.6209L258.744 34.7046C259.16 34.0596 259.602 33.4056 260.071 32.742L258.438 31.5873ZM254.61 37.8954C253.829 39.4556 253.198 40.9815 252.708 42.4825L254.609 43.1026C255.066 41.7042 255.658 40.2699 256.398 38.79L254.61 37.8954ZM251.601 47.363C251.495 48.2048 251.435 49.0403 251.419 49.8714L253.419 49.9103C253.433 49.1499 253.489 48.3845 253.586 47.6122L251.601 47.363ZM251.419 49.8715C251.39 51.3668 251.489 52.8133 251.688 54.1799L253.667 53.8924C253.483 52.6302 253.392 51.2928 253.419 49.9102L251.419 49.8715ZM254.55 62.3797C255.1 63.217 255.709 63.9237 256.36 64.4292C257.005 64.9304 257.76 65.2845 258.571 65.2755L258.549 63.2756C258.343 63.2779 258.019 63.1856 257.587 62.8496C257.16 62.5179 256.691 61.9968 256.223 61.2826L254.55 62.3797ZM258.549 65.2755C259.349 65.2844 260.12 64.9271 260.791 64.4387C261.476 63.9403 262.148 63.2404 262.774 62.4046L261.174 61.2057C260.63 61.9313 260.095 62.4722 259.615 62.8214C259.121 63.1806 258.769 63.2778 258.571 63.2756L258.549 65.2755ZM266.286 54.0335C266.56 52.5928 266.705 51.0693 266.674 49.5035L264.675 49.5423C264.702 50.9602 264.571 52.3456 264.321 53.6608L266.286 54.0335ZM266.674 49.5035C266.658 48.6604 266.586 47.8191 266.461 46.976L264.483 47.2691C264.595 48.0312 264.66 48.7876 264.675 49.5424L266.674 49.5035ZM265.192 42.122C264.651 40.6474 263.97 39.1489 263.164 37.6086L261.392 38.536C262.166 40.0152 262.809 41.4334 263.315 42.8112L265.192 42.122ZM260.714 33.3685C260.293 32.6966 259.853 32.014 259.394 31.3195L257.726 32.4222C258.177 33.1045 258.607 33.773 259.018 34.4291L260.714 33.3685ZM259.394 31.3195C258.837 30.4769 258.274 29.6494 257.704 28.8373L256.067 29.986C256.626 30.7827 257.179 31.5948 257.726 32.4222L259.394 31.3195ZM254.115 24.0291C252.844 22.4309 251.547 20.9039 250.224 19.4497L248.745 20.7953C250.036 22.2157 251.305 23.7089 252.549 25.2737L254.115 24.0291ZM246.018 15.148C244.532 13.7383 243.02 12.4159 241.484 11.1825L240.232 12.742C241.723 13.9396 243.194 15.2257 244.642 16.5989L246.018 15.148ZM236.611 7.62112C234.899 6.4894 233.162 5.46451 231.405 4.54912L230.481 6.32291C232.174 7.20516 233.852 8.19467 235.509 9.28968L236.611 7.62112ZM225.886 2.06157C223.972 1.33082 222.04 0.727605 220.093 0.255113L219.622 2.19867C221.484 2.65066 223.335 3.22847 225.172 3.92997L225.886 2.06157ZM214.108 -0.778267C213.099 -0.882214 212.087 -0.950968 211.074 -0.984139L211.009 1.01479C211.975 1.04643 212.94 1.11201 213.903 1.21121L214.108 -0.778267ZM211.074 -0.984141C210.106 -1.0158 209.112 -1.00009 208.097 -0.93679L208.222 1.05933C209.176 0.999795 210.107 0.985298 211.009 1.01479L211.074 -0.984141ZM202.226 -0.0810928C200.364 0.33897 198.468 0.904398 196.564 1.61797L197.266 3.49075C199.087 2.80838 200.896 2.26936 202.666 1.86984L202.226 -0.0810928ZM191.179 4.03563C189.477 4.93029 187.79 5.94721 186.136 7.08878L187.272 8.73466C188.86 7.63899 190.478 6.66352 192.11 5.80583L191.179 4.03563ZM181.491 10.7181C180.046 11.9911 178.646 13.3717 177.306 14.8618L178.793 16.1989C180.08 14.7674 181.425 13.4414 182.813 12.219L181.491 10.7181ZM173.626 19.4627C172.513 21.0307 171.464 22.6928 170.492 24.4505L172.242 25.4183C173.178 23.7266 174.187 22.1279 175.257 20.6205L173.626 19.4627ZM167.928 29.7482C167.188 31.5116 166.522 33.3545 165.937 35.2778L167.851 35.8593C168.416 34.0008 169.059 32.2221 169.772 30.5218L167.928 29.7482ZM164.504 40.9669C164.126 42.8311 163.822 44.7605 163.597 46.7557L165.585 46.9796C165.803 45.0414 166.098 43.1698 166.464 41.3638L164.504 40.9669ZM163.179 52.6019C163.147 53.567 163.134 54.5458 163.139 55.5384L165.139 55.5281C165.134 54.5601 165.147 53.6061 165.177 52.6662L163.179 52.6019ZM163.139 55.5383C163.144 56.4805 163.169 57.425 163.213 58.3716L165.211 58.2779C165.168 57.3588 165.144 56.4421 165.139 55.5282L163.139 55.5383ZM163.705 64.0154C163.94 65.8735 164.247 67.736 164.624 69.5998L166.584 69.2037C166.217 67.3864 165.918 65.5722 165.689 63.7641L163.705 64.0154ZM165.934 75.0999C166.428 76.9024 166.985 78.7034 167.602 80.4999L169.494 79.8503C168.89 78.0926 168.346 76.332 167.863 74.5713L165.934 75.0999ZM169.593 85.7808C170.302 87.5073 171.066 89.2272 171.882 90.938L173.687 90.0771C172.887 88.3988 172.138 86.7126 171.443 85.0209L169.593 85.7808ZM174.442 95.9635C175.332 97.6037 176.269 99.2329 177.252 100.849L178.96 99.81C177.995 98.2215 177.074 96.6207 176.2 95.0099L174.442 95.9635ZM180.291 105.592C181.335 107.14 182.42 108.673 183.545 110.189L185.151 108.997C184.044 107.505 182.976 105.996 181.949 104.474L180.291 105.592ZM186.998 114.637C188.176 116.087 189.39 117.519 190.639 118.931L192.137 117.606C190.906 116.215 189.711 114.804 188.551 113.376L186.998 114.637ZM194.455 123.069C195.104 123.744 195.761 124.414 196.426 125.078L197.839 123.663C197.184 123.008 196.536 122.348 195.897 121.683L194.455 123.069ZM196.426 125.078C197.111 125.763 197.805 126.45 198.507 127.139L199.908 125.711C199.21 125.026 198.52 124.343 197.839 123.663L196.426 125.078ZM202.746 131.224C204.149 132.554 205.582 133.888 207.042 135.224L208.392 133.749C206.941 132.42 205.517 131.094 204.121 129.772L202.746 131.224ZM211.41 139.156C212.866 140.444 214.345 141.732 215.847 143.017L217.148 141.498C215.654 140.22 214.183 138.939 212.736 137.658L211.41 139.156ZM220.345 146.801C221.845 148.041 223.365 149.277 224.904 150.507L226.152 148.944C224.622 147.722 223.111 146.493 221.62 145.26L220.345 146.801ZM229.527 154.136C231.073 155.328 232.636 156.511 234.215 157.685L235.408 156.08C233.839 154.913 232.285 153.737 230.749 152.552L229.527 154.136ZM238.966 161.151C240.556 162.288 242.16 163.414 243.778 164.527L244.911 162.879C243.304 161.774 241.71 160.655 240.13 159.524L238.966 161.151ZM248.655 167.812C250.29 168.89 251.938 169.953 253.597 170.999L254.664 169.308C253.017 168.269 251.38 167.213 249.756 166.142L248.655 167.812ZM258.605 174.084C260.287 175.095 261.979 176.088 263.68 177.059L264.672 175.323C262.984 174.359 261.305 173.374 259.636 172.37L258.605 174.084ZM268.823 179.918C270.553 180.852 272.291 181.764 274.036 182.651L274.943 180.869C273.213 179.989 271.489 179.085 269.774 178.158L268.823 179.918ZM279.32 185.25C281.099 186.095 282.884 186.914 284.674 187.703L285.481 185.873C283.709 185.091 281.941 184.281 280.179 183.444L279.32 185.25ZM290.098 189.997C291.927 190.737 293.759 191.445 295.594 192.119L296.284 190.242C294.47 189.576 292.658 188.875 290.849 188.143L290.098 189.997ZM301.166 194.057C303.044 194.672 304.924 195.25 306.805 195.788L307.355 193.866C305.499 193.335 303.643 192.764 301.789 192.156L301.166 194.057ZM312.509 197.296C314.432 197.761 316.354 198.183 318.274 198.558L318.658 196.595C316.768 196.226 314.874 195.811 312.979 195.352L312.509 197.296ZM324.102 199.554C325.078 199.696 326.053 199.825 327.027 199.942L327.265 197.956C326.308 197.842 325.35 197.714 324.39 197.574L324.102 199.554ZM327.027 199.942C328.029 200.062 329.025 200.167 330.016 200.258L330.199 198.267C329.226 198.177 328.248 198.074 327.265 197.956L327.027 199.942ZM335.982 200.642C337.994 200.716 339.986 200.735 341.959 200.702L341.926 198.703C339.988 198.735 338.032 198.716 336.056 198.643L335.982 200.642ZM347.939 200.449C349.942 200.313 351.925 200.127 353.891 199.898L353.659 197.912C351.724 198.137 349.773 198.319 347.803 198.453L347.939 200.449ZM359.804 199.075C361.778 198.756 363.735 198.397 365.677 198.005L365.28 196.045C363.363 196.432 361.432 196.786 359.485 197.1L359.804 199.075ZM371.501 196.721C373.439 196.26 375.364 195.77 377.275 195.257L376.757 193.325C374.862 193.834 372.956 194.319 371.038 194.775L371.501 196.721ZM383.006 193.648C384.914 193.09 386.811 192.515 388.699 191.93L388.107 190.019C386.227 190.602 384.34 191.174 382.444 191.728L383.006 193.648ZM394.361 190.139C396.25 189.533 398.132 188.922 400.007 188.313L399.389 186.411C397.513 187.02 395.635 187.63 393.75 188.235L394.361 190.139ZM405.646 186.489C407.531 185.884 409.411 185.288 411.289 184.706L410.698 182.796C408.811 183.38 406.924 183.979 405.035 184.585L405.646 186.489ZM416.952 183.004C418.849 182.453 420.744 181.925 422.642 181.425L422.132 179.491C420.216 179.995 418.304 180.529 416.395 181.083L416.952 183.004ZM428.366 180.012C430.284 179.572 432.205 179.169 434.131 178.809L433.764 176.843C431.808 177.209 429.861 177.617 427.919 178.062L428.366 180.012ZM439.936 177.861C441.873 177.594 443.819 177.375 445.773 177.213L445.608 175.22C443.615 175.385 441.633 175.608 439.662 175.88L439.936 177.861ZM451.632 176.902C453.576 176.858 455.531 176.876 457.499 176.96L457.585 174.962C455.572 174.876 453.573 174.858 451.587 174.902L451.632 176.902ZM463.334 177.41C464.302 177.518 465.274 177.643 466.249 177.786L466.54 175.807C465.542 175.661 464.547 175.533 463.556 175.422L463.334 177.41ZM466.249 177.786C467.17 177.921 468.076 178.066 468.969 178.22L469.309 176.249C468.4 176.092 467.477 175.945 466.54 175.807L466.249 177.786ZM474.367 179.298C476.199 179.716 477.97 180.176 479.685 180.677L480.246 178.757C478.492 178.245 476.682 177.775 474.812 177.348L474.367 179.298ZM484.897 182.383C486.654 183.023 488.348 183.71 489.983 184.439L490.798 182.613C489.12 181.864 487.383 181.16 485.582 180.504L484.897 182.383ZM494.9 186.855C496.532 187.734 498.104 188.661 499.619 189.631L500.698 187.947C499.14 186.95 497.526 185.997 495.848 185.094L494.9 186.855ZM504.118 192.758C505.589 193.864 507.007 195.015 508.379 196.208L509.691 194.699C508.285 193.476 506.83 192.295 505.32 191.159L504.118 192.758ZM512.397 199.945C513.698 201.234 514.958 202.563 516.184 203.928L517.672 202.591C516.422 201.2 515.135 199.843 513.806 198.525L512.397 199.945ZM519.76 208.114C520.339 208.824 520.911 209.543 521.478 210.27L523.055 209.039C522.48 208.303 521.899 207.573 521.311 206.851L519.76 208.114ZM521.478 210.27C522.055 211.008 522.596 211.746 523.102 212.482L524.75 211.349C524.22 210.579 523.656 209.809 523.055 209.039L521.478 210.27ZM525.891 217.169C526.75 218.872 527.433 220.551 527.954 222.192L529.86 221.586C529.305 219.84 528.582 218.063 527.677 216.269L525.891 217.169ZM529.112 227.462C529.337 229.338 529.347 231.133 529.17 232.821L531.159 233.029C531.352 231.188 531.34 229.243 531.098 227.223L529.112 227.462ZM527.935 237.986C527.26 239.704 526.355 241.222 525.269 242.496L526.792 243.793C528.03 242.339 529.045 240.628 529.796 238.717L527.935 237.986ZM521.228 245.704C520.462 246.089 519.655 246.392 518.813 246.606L519.308 248.544C520.29 248.294 521.232 247.94 522.125 247.491L521.228 245.704ZM518.814 246.606C517.94 246.829 516.993 246.966 516.009 246.994L516.067 248.993C517.197 248.96 518.29 248.804 519.308 248.544L518.814 246.606ZM510.471 245.955C508.848 245.256 507.293 244.177 505.948 242.626L504.437 243.935C505.986 245.723 507.791 246.978 509.68 247.792L510.471 245.955ZM503.092 237.664C502.773 236.803 502.496 235.869 502.268 234.857L500.317 235.297C500.564 236.39 500.865 237.409 501.216 238.357L503.092 237.664ZM502.268 234.857C502.057 233.921 501.949 232.978 501.934 232.029L499.934 232.06C499.951 233.141 500.075 234.222 500.317 235.297L502.268 234.857ZM502.87 226.351C503.463 224.563 504.316 222.779 505.369 221.02L503.654 219.993C502.54 221.852 501.619 223.77 500.972 225.721L502.87 226.351ZM508.822 216.153C509.451 215.382 510.109 214.625 510.787 213.882L509.311 212.533C508.609 213.3 507.927 214.086 507.273 214.888L508.822 216.153ZM510.787 213.882C511.414 213.197 512.099 212.53 512.835 211.884L511.516 210.381C510.729 211.071 509.992 211.789 509.311 212.533L510.787 213.882ZM517.494 208.465C519.095 207.471 520.817 206.55 522.628 205.707L521.784 203.894C519.909 204.767 518.115 205.725 516.439 206.766L517.494 208.465ZM528.05 203.506C529.884 202.86 531.763 202.29 533.66 201.8L533.159 199.864C531.21 200.368 529.275 200.954 527.386 201.62L528.05 203.506ZM539.395 200.569C541.36 200.232 543.309 199.986 545.208 199.835L545.049 197.841C543.087 197.998 541.079 198.251 539.057 198.598L539.395 200.569ZM551.043 199.676C552.039 199.706 553.006 199.768 553.939 199.862L554.14 197.872C553.157 197.773 552.143 197.708 551.104 197.677L551.043 199.676ZM553.939 199.862C554.904 199.959 555.857 200.064 556.798 200.176L557.036 198.19C556.082 198.076 555.116 197.97 554.14 197.872L553.939 199.862ZM562.462 200.963C564.388 201.268 566.266 201.605 568.102 201.971L568.492 200.009C566.632 199.639 564.727 199.297 562.775 198.987L562.462 200.963ZM573.687 203.198C575.577 203.653 577.421 204.137 579.225 204.646L579.768 202.721C577.94 202.205 576.071 201.715 574.155 201.254L573.687 203.198ZM584.708 206.304C586.552 206.899 588.357 207.518 590.126 208.155L590.804 206.274C589.015 205.629 587.189 205.003 585.322 204.401L584.708 206.304ZM595.488 210.177C597.29 210.886 599.061 211.609 600.807 212.342L601.581 210.498C599.823 209.76 598.038 209.031 596.219 208.316L595.488 210.177ZM606.09 214.609C607.862 215.384 609.614 216.161 611.357 216.935L612.168 215.107C610.426 214.333 608.669 213.554 606.891 212.777L606.09 214.609ZM616.63 219.269C618.398 220.045 620.164 220.811 621.935 221.557L622.711 219.714C620.953 218.973 619.196 218.212 617.434 217.438L616.63 219.269ZM627.295 223.741C629.089 224.443 630.898 225.119 632.729 225.761L633.391 223.874C631.585 223.241 629.799 222.573 628.024 221.878L627.295 223.741ZM638.25 227.562C640.087 228.115 641.954 228.628 643.858 229.094L644.334 227.152C642.466 226.694 640.633 226.19 638.826 225.647L638.25 227.562ZM649.549 230.32C650.496 230.496 651.453 230.659 652.421 230.81L652.728 228.833C651.779 228.686 650.842 228.526 649.914 228.354L649.549 230.32ZM652.421 230.81C653.412 230.964 654.402 231.102 655.389 231.225L655.637 229.241C654.669 229.12 653.699 228.985 652.728 228.833L652.421 230.81ZM661.342 231.785C663.347 231.913 665.341 231.981 667.323 231.991L667.333 229.991C665.39 229.981 663.435 229.915 661.469 229.789L661.342 231.785ZM673.298 231.849C675.3 231.744 677.287 231.584 679.259 231.371L679.045 229.383C677.108 229.591 675.158 229.749 673.194 229.851L673.298 231.849ZM685.18 230.574C687.155 230.255 689.113 229.886 691.051 229.473L690.634 227.517C688.727 227.924 686.802 228.286 684.861 228.599L685.18 230.574ZM696.858 228.086C698.792 227.576 700.704 227.024 702.593 226.433L701.997 224.524C700.135 225.106 698.252 225.65 696.348 226.152L696.858 228.086ZM708.248 224.532C710.13 223.854 711.987 223.142 713.817 222.4L713.066 220.546C711.259 221.279 709.427 221.982 707.571 222.65L708.248 224.532ZM719.297 220.055C721.124 219.232 722.922 218.382 724.688 217.511L723.803 215.717C722.057 216.579 720.281 217.418 718.476 218.231L719.297 220.055ZM729.98 214.787C731.753 213.837 733.49 212.869 735.189 211.889L734.189 210.157C732.508 211.127 730.789 212.085 729.035 213.025L729.98 214.787ZM740.3 208.836C742.019 207.775 743.691 206.707 745.315 205.64L744.217 203.968C742.608 205.026 740.951 206.083 739.249 207.134L740.3 208.836ZM750.243 202.305C751.919 201.138 753.534 199.98 755.083 198.842L753.899 197.23C752.362 198.359 750.762 199.507 749.1 200.664L750.243 202.305ZM759.831 195.263C760.633 194.643 761.413 194.033 762.169 193.435L760.929 191.866C760.178 192.46 759.404 193.066 758.609 193.68L759.831 195.263ZM762.17 193.435C762.968 192.803 763.761 192.178 764.548 191.56L763.314 189.987C762.524 190.606 761.729 191.233 760.928 191.866L762.17 193.435ZM769.263 187.897C770.869 186.661 772.451 185.457 774.01 184.285L772.808 182.686C771.243 183.864 769.655 185.072 768.043 186.312L769.263 187.897ZM778.8 180.73C780.44 179.529 782.056 178.365 783.647 177.236L782.49 175.605C780.89 176.74 779.267 177.91 777.618 179.116L778.8 180.73ZM788.55 173.824C790.229 172.677 791.882 171.573 793.51 170.51L792.417 168.835C790.776 169.906 789.112 171.018 787.422 172.172L788.55 173.824ZM798.546 167.309C800.279 166.237 801.986 165.215 803.668 164.242L802.666 162.511C800.966 163.494 799.243 164.527 797.494 165.608L798.546 167.309ZM808.877 161.341C810.669 160.384 812.435 159.485 814.178 158.642L813.307 156.841C811.539 157.697 809.749 158.608 807.935 159.577L808.877 161.341ZM819.573 156.182C821.434 155.387 823.273 154.658 825.093 153.994L824.407 152.115C822.552 152.792 820.68 153.534 818.787 154.343L819.573 156.182ZM830.721 152.13C832.641 151.56 834.546 151.063 836.441 150.638L836.003 148.686C834.063 149.122 832.114 149.63 830.151 150.213L830.721 152.13ZM842.258 149.551C844.218 149.259 846.173 149.043 848.131 148.9L847.986 146.906C845.978 147.052 843.972 147.274 841.964 147.573L842.258 149.551ZM854.039 148.692C855.998 148.695 857.967 148.77 859.952 148.914L860.097 146.919C858.066 146.772 856.05 146.696 854.042 146.692L854.039 148.692ZM865.838 149.536C867.768 149.801 869.719 150.129 871.696 150.517L872.081 148.554C870.068 148.159 868.08 147.825 866.11 147.554L865.838 149.536ZM877.481 151.804C879.367 152.271 881.28 152.789 883.225 153.357L883.785 151.437C881.816 150.862 879.876 150.337 877.961 149.863L877.481 151.804ZM888.921 155.13C890.763 155.737 892.635 156.386 894.54 157.074L895.22 155.193C893.298 154.499 891.408 153.844 889.547 153.231L888.921 155.13ZM900.121 159.167C901.046 159.525 901.979 159.893 902.92 160.268L903.661 158.411C902.714 158.033 901.775 157.663 900.844 157.302L900.121 159.167ZM902.92 160.268C903.796 160.618 904.678 160.984 905.566 161.365L906.355 159.528C905.452 159.14 904.554 158.767 903.661 158.411L902.92 160.268ZM910.834 163.766C912.543 164.587 914.272 165.455 916.02 166.365L916.943 164.59C915.178 163.672 913.43 162.794 911.7 161.963L910.834 163.766ZM921.138 169.109C922.808 170.03 924.493 170.981 926.195 171.957L927.19 170.223C925.481 169.241 923.785 168.285 922.103 167.358L921.138 169.109ZM931.215 174.883C932.868 175.859 934.533 176.854 936.211 177.862L937.242 176.148C935.56 175.138 933.89 174.14 932.232 173.161L931.215 174.883ZM941.194 180.873C942.843 181.873 944.502 182.882 946.173 183.896L947.211 182.186C945.542 181.173 943.881 180.163 942.231 179.163L941.194 180.873ZM951.159 186.915C952.817 187.914 954.484 188.915 956.161 189.913L957.183 188.194C955.511 187.199 953.847 186.2 952.192 185.202L951.159 186.915ZM961.185 192.875C962.863 193.853 964.549 194.825 966.244 195.786L967.231 194.046C965.544 193.09 963.865 192.122 962.193 191.147L961.185 192.875ZM971.344 198.631C973.053 199.567 974.77 200.489 976.494 201.393L977.422 199.622C975.71 198.724 974.004 197.808 972.305 196.877L971.344 198.631ZM981.7 204.055C983.45 204.925 985.207 205.773 986.97 206.596L987.816 204.783C986.069 203.968 984.327 203.127 982.591 202.264L981.7 204.055ZM992.311 208.995C994.11 209.772 995.916 210.518 997.726 211.229L998.458 209.368C996.669 208.665 994.884 207.928 993.103 207.159L992.311 208.995ZM1003.22 213.272C1005.08 213.921 1006.94 214.529 1008.8 215.093L1009.38 213.179C1007.54 212.624 1005.71 212.024 1003.88 211.384L1003.22 213.272ZM1014.46 216.661C1016.37 217.14 1018.28 217.568 1020.19 217.941L1020.58 215.978C1018.7 215.612 1016.82 215.192 1014.95 214.721L1014.46 216.661ZM1026 218.896C1027.95 219.156 1029.9 219.355 1031.86 219.488L1031.99 217.493C1030.08 217.363 1028.17 217.168 1026.26 216.913L1026 218.896ZM1037.75 219.683C1039.71 219.678 1041.67 219.602 1043.64 219.45L1043.48 217.456C1041.57 217.604 1039.65 217.678 1037.74 217.683L1037.75 219.683ZM1049.5 218.767C1051.43 218.465 1053.35 218.086 1055.28 217.624L1054.82 215.679C1052.94 216.128 1051.06 216.497 1049.19 216.791L1049.5 218.767ZM1060.96 216.023C1062.81 215.422 1064.65 214.743 1066.49 213.98L1065.73 212.132C1063.93 212.875 1062.14 213.537 1060.34 214.121L1060.96 216.023ZM1071.85 211.522C1072.73 211.079 1073.6 210.616 1074.48 210.132L1073.52 208.381C1072.66 208.852 1071.8 209.304 1070.95 209.737L1071.85 211.522Z" fill="url(#paint0_linear_217_515)" fill-opacity="0.5"/>
<defs>
<linearGradient id="paint0_linear_217_515" x1="-216" y1="124" x2="1074" y2="124" gradientUnits="userSpaceOnUse">
<stop stop-color="#DFECF1"/>
<stop offset="1" stop-color="#83D1ED"/>
</linearGradient>
</defs>
</svg>
