<svg width="148" height="62" viewBox="0 0 148 62" fill="none" xmlns="http://www.w3.org/2000/svg">
<mask id="path-1-inside-1_217_516" fill="white">
<path fill-rule="evenodd" clip-rule="evenodd" d="M127.515 40.9423C128.117 39.4972 129.224 38.2808 130.288 37.1112L130.289 37.1112C130.455 36.9288 130.619 36.7475 130.781 36.5666C130.912 36.4157 131.044 36.2658 131.177 36.1168C131.278 35.9996 131.376 35.8825 131.472 35.765C133.068 33.8187 134.844 32.0648 136.836 30.277C136.998 30.1311 137.161 29.9855 137.324 29.8399C138.552 28.7405 139.78 27.6412 140.895 26.4438C143.053 23.6455 144.463 20.1989 143.989 15.1172C143.649 11.4849 140.467 8.89249 136.438 8.43986C129.502 7.65909 125.68 11.632 123.383 15.7396C123.394 16.0451 123.224 15.9546 123.258 15.7396C124.226 13.4408 125.239 11.2588 126.873 9.4977C127.44 8.72573 128.083 7.99977 128.836 7.3063C131.201 5.14502 134.924 3.244 139.45 3.68531C144.055 4.13794 147.224 8.32471 147.563 13.0433C148.021 19.148 145.905 22.9745 142.976 26.117C141.548 27.9687 139.795 29.5423 138.003 31.0949C137.316 31.689 136.616 32.2738 135.916 32.8592C132.069 36.0749 128.202 39.3064 126.393 44.1983C126.549 43.0038 126.963 41.9333 127.515 40.9423ZM108 16.2918C108.272 11.7203 111.989 7.68725 117.16 7.61936C120.589 7.5741 122.899 9.42041 124.953 11.3093C123.451 10.3679 121.316 9.28034 119.152 9.11302C113.551 8.70565 109.448 11.8448 108 16.2918ZM124.953 11.3093L125.018 11.3499C125.278 11.4857 125.09 11.5701 124.954 11.3098L124.953 11.3093Z"/>
</mask>
<path fill-rule="evenodd" clip-rule="evenodd" d="M127.515 40.9423C128.117 39.4972 129.224 38.2808 130.288 37.1112L130.289 37.1112C130.455 36.9288 130.619 36.7475 130.781 36.5666C130.912 36.4157 131.044 36.2658 131.177 36.1168C131.278 35.9996 131.376 35.8825 131.472 35.765C133.068 33.8187 134.844 32.0648 136.836 30.277C136.998 30.1311 137.161 29.9855 137.324 29.8399C138.552 28.7405 139.78 27.6412 140.895 26.4438C143.053 23.6455 144.463 20.1989 143.989 15.1172C143.649 11.4849 140.467 8.89249 136.438 8.43986C129.502 7.65909 125.68 11.632 123.383 15.7396C123.394 16.0451 123.224 15.9546 123.258 15.7396C124.226 13.4408 125.239 11.2588 126.873 9.4977C127.44 8.72573 128.083 7.99977 128.836 7.3063C131.201 5.14502 134.924 3.244 139.45 3.68531C144.055 4.13794 147.224 8.32471 147.563 13.0433C148.021 19.148 145.905 22.9745 142.976 26.117C141.548 27.9687 139.795 29.5423 138.003 31.0949C137.316 31.689 136.616 32.2738 135.916 32.8592C132.069 36.0749 128.202 39.3064 126.393 44.1983C126.549 43.0038 126.963 41.9333 127.515 40.9423ZM108 16.2918C108.272 11.7203 111.989 7.68725 117.16 7.61936C120.589 7.5741 122.899 9.42041 124.953 11.3093C123.451 10.3679 121.316 9.28034 119.152 9.11302C113.551 8.70565 109.448 11.8448 108 16.2918ZM124.953 11.3093L125.018 11.3499C125.278 11.4857 125.09 11.5701 124.954 11.3098L124.953 11.3093Z" fill="#01A7E1"/>
<path d="M130.288 37.1112L126.84 33.6623L126.758 33.7435L126.681 33.8285L130.288 37.1112ZM127.515 40.9423L131.777 43.3142L131.911 43.0736L132.017 42.8195L127.515 40.9423ZM130.289 37.1112L133.737 40.5601L133.819 40.4789L133.896 40.3939L130.289 37.1112ZM130.781 36.5666L134.416 39.8195L134.443 39.7893L134.469 39.7587L130.781 36.5666ZM131.177 36.1168L134.816 39.3649L134.846 39.3311L134.875 39.2967L131.177 36.1168ZM131.472 35.765L127.7 32.6728L127.697 32.6764L131.472 35.765ZM136.836 30.277L140.094 33.9065L140.095 33.906L136.836 30.277ZM137.324 29.8399L134.07 26.2057L134.07 26.2058L137.324 29.8399ZM140.895 26.4438L144.464 29.7676L144.619 29.6018L144.757 29.4224L140.895 26.4438ZM143.989 15.1172L148.845 14.6643L148.845 14.6634L143.989 15.1172ZM136.438 8.43986L135.893 13.2868L135.894 13.2869L136.438 8.43986ZM123.383 15.7396L119.126 13.3589L118.458 14.553L118.509 15.9201L123.383 15.7396ZM123.258 15.7396L118.763 13.8468L118.533 14.3932L118.441 14.9789L123.258 15.7396ZM126.873 9.4977L130.449 12.8154L130.639 12.6102L130.805 12.3845L126.873 9.4977ZM128.836 7.3063L125.545 3.7058L125.538 3.71247L125.531 3.71918L128.836 7.3063ZM139.45 3.68531L139.927 -1.16885L139.923 -1.16922L139.45 3.68531ZM147.563 13.0433L142.698 13.3933L142.699 13.4006L142.699 13.4079L147.563 13.0433ZM142.976 26.117L139.408 22.7916L139.253 22.9579L139.114 23.1379L142.976 26.117ZM138.003 31.0949L141.195 34.7829L141.196 34.782L138.003 31.0949ZM135.916 32.8592L139.044 36.6017L139.044 36.6016L135.916 32.8592ZM126.393 44.1983L121.556 43.5666L130.968 45.8903L126.393 44.1983ZM117.16 7.61936L117.224 12.4965L117.225 12.4965L117.16 7.61936ZM108 16.2918L103.131 16.0026L112.638 17.8024L108 16.2918ZM119.152 9.11302L119.528 4.24998L119.517 4.24912L119.506 4.24832L119.152 9.11302ZM125.018 11.3499L122.421 15.4783L122.587 15.5832L122.762 15.6743L125.018 11.3499ZM124.954 11.3098L129.278 9.05362L128.884 8.29798L128.257 7.72082L124.954 11.3098ZM126.681 33.8285C125.735 34.8682 123.998 36.7021 123.013 39.0652L132.017 42.8195C132.236 42.2924 132.714 41.6934 133.896 40.3939L126.681 33.8285ZM126.84 33.6623L126.84 33.6623L133.737 40.5602L133.737 40.5601L126.84 33.6623ZM127.147 33.3137C127.001 33.4771 126.849 33.6434 126.681 33.8285L133.896 40.3939C134.06 40.2141 134.238 40.0179 134.416 39.8195L127.147 33.3137ZM134.469 39.7587C134.583 39.627 134.699 39.4958 134.816 39.3649L127.538 32.8686C127.389 33.0357 127.241 33.2043 127.093 33.3745L134.469 39.7587ZM127.697 32.6764C127.63 32.7582 127.558 32.8446 127.478 32.9368L134.875 39.2967C134.997 39.1547 135.122 39.0067 135.247 38.8537L127.697 32.6764ZM133.578 26.6474C131.483 28.5274 129.51 30.4649 127.7 32.6728L135.244 38.8572C136.625 37.1726 138.205 35.6022 140.094 33.9065L133.578 26.6474ZM134.07 26.2058C133.908 26.3509 133.743 26.4991 133.577 26.6479L140.095 33.906C140.254 33.7632 140.414 33.6201 140.577 33.4741L134.07 26.2058ZM137.325 23.1201C136.387 24.1276 135.327 25.0807 134.07 26.2057L140.577 33.4741C141.776 32.4003 143.173 31.1547 144.464 29.7676L137.325 23.1201ZM144.757 29.4224C147.608 25.7258 149.442 21.0698 148.845 14.6643L139.132 15.5702C139.483 19.3279 138.497 21.5652 137.032 23.4653L144.757 29.4224ZM148.845 14.6634C148.23 8.07835 142.588 4.22259 136.983 3.59282L135.894 13.2869C137.045 13.4162 137.894 13.8332 138.409 14.2775C138.892 14.6946 139.091 15.1281 139.132 15.5711L148.845 14.6634ZM136.984 3.59293C132.4 3.07696 128.553 4.13615 125.462 6.20056C122.479 8.19261 120.486 10.9268 119.126 13.3589L127.64 18.1203C128.577 16.4448 129.643 15.1388 130.88 14.3126C132.008 13.5589 133.54 13.022 135.893 13.2868L136.984 3.59293ZM118.509 15.9201C118.5 15.693 118.48 14.8801 118.904 13.9225C119.122 13.4313 119.615 12.5481 120.643 11.8659C121.825 11.082 123.328 10.8364 124.747 11.2729C127.058 11.9843 127.765 13.9354 127.907 14.3745C128.165 15.1733 128.169 15.9132 128.076 16.5003L118.441 14.9789C118.331 15.6735 118.344 16.5054 118.624 17.3721C118.787 17.879 119.529 19.874 121.878 20.5966C123.315 21.0388 124.836 20.7907 126.036 19.9952C127.082 19.3013 127.591 18.3972 127.823 17.8749C128.275 16.8551 128.271 15.9389 128.257 15.5591L118.509 15.9201ZM127.754 17.6324C128.719 15.3406 129.456 13.8847 130.449 12.8154L123.298 6.18002C121.022 8.6328 119.734 11.541 118.763 13.8468L127.754 17.6324ZM125.531 3.71918C124.543 4.62916 123.691 5.59042 122.942 6.61091L130.805 12.3845C131.189 11.861 131.623 11.3704 132.141 10.8934L125.531 3.71918ZM139.923 -1.16922C133.712 -1.77479 128.676 0.84455 125.545 3.7058L132.126 10.9068C133.725 9.4455 136.135 8.26279 138.976 8.53984L139.923 -1.16922ZM152.428 12.6933C151.968 6.29522 147.525 -0.422145 139.927 -1.16885L138.973 8.53947C140.586 8.69802 142.479 10.3542 142.698 13.3933L152.428 12.6933ZM146.545 29.4423C150.199 25.5209 153.007 20.4097 152.427 12.6787L142.699 13.4079C143.035 17.8864 141.611 20.4281 139.408 22.7916L146.545 29.4423ZM139.114 23.1379C138.016 24.5615 136.604 25.854 134.81 27.4077L141.196 34.782C142.987 33.2306 145.08 31.3759 146.838 29.0961L139.114 23.1379ZM134.811 27.4068C134.161 27.9689 133.494 28.5268 132.788 29.1167L139.044 36.6016C139.739 36.0209 140.471 35.4092 141.195 34.7829L134.811 27.4068ZM132.788 29.1167C129.111 32.1897 124.15 36.2023 121.818 42.5063L130.968 45.8903C132.255 42.4106 135.026 39.9601 139.044 36.6017L132.788 29.1167ZM131.229 44.83C131.287 44.3848 131.449 43.9034 131.777 43.3142L123.253 38.5705C122.478 39.9632 121.81 41.6229 121.556 43.5666L131.229 44.83ZM117.096 2.74223C109.225 2.84558 103.546 9.02513 103.131 16.0026L112.869 16.5811C112.998 14.4156 114.754 12.5289 117.224 12.4965L117.096 2.74223ZM128.255 7.71911C126.103 5.74012 122.556 2.67015 117.096 2.74223L117.225 12.4965C118.621 12.478 119.696 13.1007 121.652 14.8995L128.255 7.71911ZM118.776 13.976C119.196 14.0085 119.756 14.1464 120.436 14.4279C121.104 14.7042 121.766 15.0676 122.363 15.4421L127.544 7.17649C125.855 6.11763 122.897 4.51045 119.528 4.24998L118.776 13.976ZM112.638 17.8024C113.399 15.4642 115.459 13.7349 118.798 13.9777L119.506 4.24832C111.642 3.67643 105.497 8.22542 103.362 14.7813L112.638 17.8024ZM127.615 7.22147L127.551 7.18086L122.356 15.4377L122.421 15.4783L127.615 7.22147ZM120.63 13.566C120.919 14.1215 121.353 14.7194 121.982 15.2305C122.291 15.4812 122.712 15.7638 123.25 15.9848C123.679 16.1609 124.688 16.5089 125.978 16.2825C126.678 16.1595 127.646 15.8275 128.509 15.0049C129.423 14.1338 129.891 13.0222 130 11.9649C130.187 10.1466 129.322 8.89692 129.071 8.55445C128.406 7.6462 127.598 7.19465 127.274 7.02554L122.762 15.6743C122.568 15.573 121.835 15.183 121.203 14.3206C120.968 14.0011 120.11 12.7705 120.296 10.9661C120.404 9.91584 120.869 8.80997 121.779 7.94319C122.637 7.12493 123.599 6.79582 124.291 6.67427C125.565 6.45062 126.552 6.79523 126.955 6.96052C127.467 7.17079 127.858 7.43535 128.134 7.65949C128.697 8.1174 129.056 8.62822 129.278 9.05362L120.63 13.566ZM121.65 14.8983L121.651 14.8988L128.257 7.72082L128.256 7.72029L121.65 14.8983Z" fill="#01A7E1" mask="url(#path-1-inside-1_217_516)"/>
<path d="M1.68624 39V17.5388H4.66015L12.8154 32.4083L20.9707 17.5388H23.9446V39H21.4919V21.4631L13.7352 35.5662H11.8956L4.13895 21.4631V39H1.68624ZM36.1142 31.9178L31.73 32.439C29.6657 32.7047 28.6335 33.4916 28.6335 34.7997C28.6335 35.4947 28.9196 36.0567 29.4919 36.486C30.0642 36.8948 30.8307 37.0991 31.7913 37.0991C33.0994 37.0991 34.1418 36.7108 34.9185 35.9341C35.7157 35.1574 36.1142 34.1355 36.1142 32.8682H37.1873C37.1873 34.7282 36.615 36.2714 35.4704 37.4977C34.3258 38.7241 32.8951 39.3372 31.1782 39.3372C29.727 39.3372 28.5211 38.9285 27.5604 38.1109C26.6202 37.2729 26.1501 36.1998 26.1501 34.8917C26.1705 33.6449 26.6202 32.6127 27.4991 31.7952C28.3984 30.9776 29.635 30.4768 31.2088 30.2929L36.1142 29.741V29.1278C36.1142 28.1876 35.7463 27.3701 35.0105 26.6751C34.2951 25.9802 33.4163 25.6327 32.3739 25.6327C31.4336 25.6327 30.5956 25.8882 29.8598 26.3992C29.1445 26.9102 28.6948 27.5745 28.5108 28.392L26.1808 27.6562C26.5895 26.3685 27.3458 25.3261 28.4495 24.529C29.5737 23.7319 30.8409 23.3333 32.2512 23.3333C33.9681 23.3333 35.45 23.8852 36.6968 24.9889C37.9435 26.0722 38.5669 27.3701 38.5669 28.8826V39H36.1142V31.9178ZM41.4803 23.6706H43.933V45.1318H41.4803V23.6706ZM45.6192 27.135C44.495 28.2387 43.933 29.649 43.933 31.3659C43.933 33.0624 44.495 34.4625 45.6192 35.5662C46.7638 36.6699 48.1537 37.2218 49.7888 37.2218C51.424 37.2218 52.8036 36.6699 53.9278 35.5662C55.0724 34.4625 55.6447 33.0624 55.6447 31.3659C55.6447 29.649 55.0724 28.2387 53.9278 27.135C52.8036 26.0313 51.424 25.4794 49.7888 25.4794C48.1537 25.4794 46.7638 26.0313 45.6192 27.135ZM44.9447 37.2831C43.4935 35.7093 42.7679 33.7369 42.7679 31.3659C42.7679 28.9745 43.4935 27.0022 44.9447 25.4488C46.3959 23.8954 48.1843 23.1187 50.31 23.1187C52.497 23.1187 54.3365 23.8954 55.8286 25.4488C57.3411 27.0022 58.0974 28.9745 58.0974 31.3659C58.0974 33.7369 57.3411 35.7093 55.8286 37.2831C54.3365 38.8365 52.497 39.6132 50.31 39.6132C48.1843 39.6132 46.3959 38.8365 44.9447 37.2831ZM74.2146 39H71.7619V26.7365L63.3307 39H60.4181V23.6706H62.8708V35.6275L71.2713 23.6706H74.2146V39Z" fill="#01A7E1"/>
<path d="M77.0484 36.6699C78.4791 36.6699 79.5828 36.2305 80.3595 35.3516C81.1362 34.4523 81.5246 33.3179 81.5246 31.9485V17.5388H94.5546V39H92.1019V19.8689H83.9773V32.531C83.9773 34.2888 83.3641 35.8115 82.1377 37.0991C80.9318 38.3664 79.3682 39 77.4469 39H76.4045V36.6699H77.0484ZM106.776 31.9178L102.392 32.439C100.327 32.7047 99.295 33.4916 99.295 34.7997C99.295 35.4947 99.5811 36.0567 100.153 36.486C100.726 36.8948 101.492 37.0991 102.453 37.0991C103.761 37.0991 104.803 36.7108 105.58 35.9341C106.377 35.1574 106.776 34.1355 106.776 32.8682H107.849C107.849 34.7282 107.277 36.2714 106.132 37.4977C104.987 38.7241 103.557 39.3372 101.84 39.3372C100.388 39.3372 99.1826 38.9285 98.2219 38.1109C97.2817 37.2729 96.8116 36.1998 96.8116 34.8917C96.832 33.6449 97.2817 32.6127 98.1606 31.7952C99.0599 30.9776 100.297 30.4768 101.87 30.2929L106.776 29.741V29.1278C106.776 28.1876 106.408 27.3701 105.672 26.6751C104.957 25.9802 104.078 25.6327 103.035 25.6327C102.095 25.6327 101.257 25.8882 100.521 26.3992C99.806 26.9102 99.3563 27.5745 99.1723 28.392L96.8423 27.6562C97.2511 26.3685 98.0073 25.3261 99.111 24.529C100.235 23.7319 101.502 23.3333 102.913 23.3333C104.63 23.3333 106.111 23.8852 107.358 24.9889C108.605 26.0722 109.228 27.3701 109.228 28.8826V39H106.776V31.9178ZM120.757 25.9087H114.594V30.2316H121.033C121.728 30.2316 122.31 30.0476 122.78 29.6797C123.25 29.2914 123.486 28.811 123.486 28.2387C123.486 27.5642 123.22 27.0124 122.688 26.5832C122.177 26.1335 121.534 25.9087 120.757 25.9087ZM121.063 32.2857H114.594V36.7619H121.063C121.84 36.7619 122.484 36.5575 122.995 36.1487C123.526 35.7195 123.792 35.1983 123.792 34.5851C123.792 33.9106 123.526 33.3588 122.995 32.9295C122.484 32.5003 121.84 32.2857 121.063 32.2857ZM121.37 39H112.142V23.6706H121.063C122.453 23.6706 123.608 24.0793 124.528 24.8969C125.468 25.694 125.938 26.7058 125.938 27.9321C125.938 28.6066 125.754 29.23 125.386 29.8023C125.039 30.3542 124.548 30.7834 123.915 31.09C124.63 31.4375 125.192 31.9382 125.601 32.5923C126.03 33.2464 126.245 33.9822 126.245 34.7997C126.245 35.9852 125.775 36.9867 124.835 37.8043C123.915 38.6014 122.76 39 121.37 39Z" fill="#164057"/>
<path d="M12.4202 57.7324V48.8906H13.4307V52.8315H13.8601L17.7 48.8906H19.0515L14.7569 53.3368L19.0515 57.7324H17.7L13.8601 53.8673H13.4307V57.7324H12.4202ZM20.1287 56.7472C20.4824 56.7472 20.7561 56.6377 20.9498 56.4188C21.1434 56.1914 21.2403 55.9051 21.2403 55.5599V51.4168H25.7244V57.7324H24.7139V52.4021H22.2508V55.7241C22.2508 56.2714 22.0655 56.743 21.695 57.1388C21.3245 57.5345 20.8445 57.7324 20.2551 57.7324H19.8635V56.7472H20.1287ZM32.857 57.7324H31.8465V52.6799L28.373 57.7324H27.173V51.4168H28.1835V56.343L31.6444 51.4168H32.857V57.7324ZM34.3151 57.7324V51.4168H35.3255V54.082H39.2665V51.4168H40.277V57.7324H39.2665V55.042H35.3255V57.7324H34.3151ZM47.4125 57.7324H46.402V52.6799L42.9284 57.7324H41.7285V51.4168H42.739V56.343L46.1999 51.4168H47.4125V57.7324ZM48.8705 57.7324V51.4168H49.881V54.0694H50.2094L52.7862 51.4168H54.0998L51.0936 54.5746L54.0998 57.7324H52.7862L50.2094 55.1178H49.881V57.7324H48.8705ZM60.8825 57.7324H59.872V52.6799L56.3984 57.7324H55.1985V51.4168H56.209V56.343L59.6699 51.4168H60.8825V57.7324ZM65.745 57.7324V51.4168H66.7555V54.0694H67.0839L69.6607 51.4168H70.9743L67.9681 54.5746L70.9743 57.7324H69.6607L67.0839 55.1178H66.7555V57.7324H65.745ZM72.0729 51.4168H73.0834V60.2587H72.0729V51.4168ZM73.7782 52.8442C73.315 53.2989 73.0834 53.8799 73.0834 54.5873C73.0834 55.2862 73.315 55.863 73.7782 56.3177C74.2497 56.7725 74.8223 56.9998 75.496 56.9998C76.1697 56.9998 76.7381 56.7725 77.2012 56.3177C77.6728 55.863 77.9086 55.2862 77.9086 54.5873C77.9086 53.8799 77.6728 53.2989 77.2012 52.8442C76.7381 52.3894 76.1697 52.1621 75.496 52.1621C74.8223 52.1621 74.2497 52.3894 73.7782 52.8442ZM73.5003 57.0251C72.9024 56.3767 72.6035 55.5641 72.6035 54.5873C72.6035 53.602 72.9024 52.7894 73.5003 52.1494C74.0981 51.5095 74.835 51.1895 75.7107 51.1895C76.6117 51.1895 77.3696 51.5095 77.9843 52.1494C78.6075 52.7894 78.919 53.602 78.919 54.5873C78.919 55.5641 78.6075 56.3767 77.9843 57.0251C77.3696 57.6651 76.6117 57.985 75.7107 57.985C74.835 57.985 74.0981 57.6651 73.5003 57.0251ZM83.9677 54.8146L82.1614 55.0293C81.3109 55.1388 80.8857 55.463 80.8857 56.0019C80.8857 56.2883 81.0036 56.5198 81.2393 56.6967C81.4751 56.8651 81.7909 56.9493 82.1867 56.9493C82.7256 56.9493 83.1551 56.7893 83.4751 56.4693C83.8035 56.1493 83.9677 55.7283 83.9677 55.2062H84.4098C84.4098 55.9725 84.174 56.6082 83.7024 57.1135C83.2309 57.6187 82.6414 57.8714 81.9341 57.8714C81.3362 57.8714 80.8394 57.7029 80.4436 57.3661C80.0562 57.0209 79.8625 56.5788 79.8625 56.0398C79.871 55.5262 80.0562 55.1009 80.4183 54.7641C80.7888 54.4273 81.2983 54.221 81.9467 54.1452L83.9677 53.9178V53.6652C83.9677 53.2778 83.8161 52.941 83.513 52.6547C83.2182 52.3684 82.8561 52.2252 82.4267 52.2252C82.0393 52.2252 81.6941 52.3305 81.3909 52.541C81.0962 52.7515 80.9109 53.0252 80.8351 53.362L79.8752 53.0589C80.0436 52.5284 80.3552 52.0989 80.8099 51.7705C81.273 51.4421 81.7951 51.2779 82.3761 51.2779C83.0835 51.2779 83.694 51.5052 84.2077 51.96C84.7213 52.4063 84.9782 52.941 84.9782 53.5641V57.7324H83.9677V54.8146ZM87.871 52.8315C87.4163 53.2778 87.1889 53.8546 87.1889 54.562C87.1889 55.2693 87.4163 55.8504 87.871 56.3051C88.3257 56.7514 88.8815 56.9746 89.5383 56.9746C90.0099 56.9746 90.4351 56.8609 90.8141 56.6335C91.193 56.4061 91.4835 56.0862 91.6856 55.6735L92.6077 56.0904C92.3298 56.663 91.9172 57.1177 91.3699 57.4545C90.8225 57.7914 90.212 57.9598 89.5383 57.9598C88.5952 57.9598 87.7994 57.6398 87.151 56.9998C86.5026 56.3598 86.1784 55.5472 86.1784 54.562C86.1784 53.5768 86.5026 52.7642 87.151 52.1242C87.7994 51.4842 88.5952 51.1642 89.5383 51.1642C90.2204 51.1642 90.8393 51.3368 91.3951 51.6821C91.9509 52.0273 92.3635 52.4989 92.633 53.0968L91.7109 53.5136C91.5172 53.0841 91.2267 52.7515 90.8393 52.5157C90.452 52.2715 90.0183 52.1494 89.5383 52.1494C88.8815 52.1494 88.3257 52.3768 87.871 52.8315ZM95.2847 52.8315C94.8216 53.2778 94.59 53.8546 94.59 54.562C94.59 55.2693 94.8216 55.8504 95.2847 56.3051C95.7563 56.7514 96.3289 56.9746 97.0026 56.9746C97.6762 56.9746 98.2446 56.7514 98.7078 56.3051C99.1793 55.8504 99.4151 55.2693 99.4151 54.562C99.4151 53.8546 99.1793 53.2778 98.7078 52.8315C98.2446 52.3768 97.6762 52.1494 97.0026 52.1494C96.3289 52.1494 95.7563 52.3768 95.2847 52.8315ZM94.5648 56.9998C93.9079 56.3598 93.5795 55.5472 93.5795 54.562C93.5795 53.5768 93.9079 52.7642 94.5648 52.1242C95.23 51.4842 96.0426 51.1642 97.0026 51.1642C97.9625 51.1642 98.7709 51.4842 99.4278 52.1242C100.093 52.7642 100.426 53.5768 100.426 54.562C100.426 55.5472 100.093 56.3598 99.4278 56.9998C98.7709 57.6398 97.9625 57.9598 97.0026 57.9598C96.0426 57.9598 95.23 57.6398 94.5648 56.9998ZM106.592 51.4168V52.3768H104.444V57.7324H103.434V52.3768H101.287V51.4168H106.592ZM114.467 57.7324V51.4168H115.477V57.7324H114.467ZM111.296 54.903H108.682V56.7472H111.296C111.616 56.7472 111.882 56.663 112.092 56.4946C112.303 56.3177 112.408 56.103 112.408 55.8504C112.408 55.5809 112.303 55.3578 112.092 55.1809C111.882 54.9957 111.616 54.903 111.296 54.903ZM111.423 53.9431C111.987 53.9431 112.459 54.1283 112.837 54.4988C113.225 54.8694 113.418 55.3241 113.418 55.863C113.418 56.3935 113.225 56.8398 112.837 57.2019C112.459 57.5556 111.987 57.7324 111.423 57.7324H107.671V51.4168H108.682V53.9431H111.423Z" fill="#718590"/>
</svg>
