<svg width="28" height="27" viewBox="0 0 28 27" xmlns="http://www.w3.org/2000/svg">
<path d="M0.985901 26.2769C0.722178 26.0132 0.572804 25.6567 0.57064 25.2859C0.568473 24.9151 0.713696 24.5604 0.974357 24.2997L22.1896 3.08447L5.79274 2.98873C5.42617 2.98022 5.07592 2.82811 4.81744 2.56515C4.55896 2.30219 4.41292 1.94942 4.41078 1.58284C4.40864 1.21625 4.55057 0.865167 4.806 0.605208C5.06143 0.345249 5.40992 0.197213 5.77641 0.192983L25.5483 0.30843C25.9191 0.310651 26.2754 0.46002 26.5391 0.723692C26.8028 0.987362 26.9522 1.34375 26.9544 1.71447L27.0698 21.4864C27.0656 21.8529 26.9176 22.2014 26.6576 22.4568C26.3976 22.7122 26.0466 22.8542 25.68 22.852C25.3134 22.8499 24.9606 22.7038 24.6977 22.4454C24.4347 22.1869 24.2826 21.8366 24.2741 21.4701L24.1783 5.07321L2.96309 26.2885C2.70243 26.5491 2.34768 26.6943 1.97689 26.6922C1.60609 26.69 1.24962 26.5406 0.985901 26.2769Z" />
</svg>
