<svg width="22" height="22" viewBox="0 0 22 22">
<path d="M20.3226 0.890819L20.4295 0.884766L20.5607 0.892836L20.6515 0.908978L20.7756 0.944288L20.8835 0.990696L20.9844 1.0482L21.0752 1.11579L21.1579 1.19146L21.2104 1.25098L21.2931 1.36801L21.3456 1.46486C21.3926 1.56574 21.4229 1.67201 21.4364 1.78366L21.4414 1.8906C21.4414 1.9666 21.4333 2.04058 21.4172 2.11255L21.3819 2.23664L14.792 20.4738C14.6671 20.7457 14.4668 20.9761 14.2148 21.1376C13.9628 21.2991 13.6698 21.3849 13.3705 21.3848C13.1011 21.3853 12.836 21.3162 12.6011 21.1842C12.3662 21.0522 12.1694 20.8616 12.0298 20.6311L11.9642 20.503L8.5825 13.7417L1.85341 10.3761C1.60443 10.2622 1.38971 10.085 1.23072 9.86208C1.07173 9.63918 0.974057 9.37844 0.947459 9.10595L0.941406 8.95563C0.941406 8.39067 1.24507 7.87413 1.78986 7.57349L1.9311 7.50287L20.1077 0.939244L20.2146 0.908978L20.3226 0.890819Z"/>
</svg>
