<svg width="22" height="18" viewBox="0 0 22 18">
<path d="M21.0704 1.44751C20.7955 1.17243 20.469 0.95422 20.1097 0.805341C19.7503 0.656462 19.3652 0.579834 18.9763 0.579834C18.5873 0.579834 18.2022 0.656462 17.8429 0.805341C17.4836 0.95422 17.1571 1.17243 16.8821 1.44751L8.0587 10.2702L5.11807 7.32955C4.84311 7.05446 4.51664 6.83625 4.15732 6.68737C3.798 6.53849 3.41287 6.46186 3.02393 6.46186C2.63499 6.46186 2.24986 6.53849 1.89054 6.68737C1.53122 6.83625 1.20475 7.05446 0.929789 7.32955C0.654826 7.6045 0.436712 7.93091 0.287902 8.29016C0.139091 8.64941 0.0625 9.03445 0.0625 9.4233C0.0625 9.81214 0.139091 10.1972 0.287902 10.5564C0.436712 10.9157 0.654826 11.2421 0.929789 11.517L5.96495 16.5522C6.23991 16.8273 6.56638 17.0455 6.9257 17.1944C7.28502 17.3433 7.67015 17.4199 8.05909 17.4199C8.44803 17.4199 8.83316 17.3433 9.19248 17.1944C9.5518 17.0455 9.87826 16.8273 10.1532 16.5522L21.0704 5.63501C21.3454 5.36006 21.5635 5.03365 21.7123 4.6744C21.8611 4.31515 21.9377 3.93011 21.9377 3.54126C21.9377 3.15242 21.8611 2.76738 21.7123 2.40813C21.5635 2.04888 21.3454 1.72246 21.0704 1.44751Z"/>
</svg>
