<svg width="17" height="17" viewBox="0 0 17 17"  xmlns="http://www.w3.org/2000/svg">
<path d="M14.3743 11.6811V14.0384C14.3744 14.2072 14.3105 14.3697 14.1954 14.4932C14.0803 14.6167 13.9227 14.6919 13.7544 14.7038C13.4631 14.7238 13.2251 14.7344 13.0411 14.7344C7.15007 14.7344 2.375 9.95909 2.375 4.06776C2.375 3.88376 2.385 3.64576 2.40566 3.35442C2.41748 3.18605 2.49271 3.02843 2.61619 2.91336C2.73966 2.7983 2.90219 2.73435 3.07096 2.73442H5.42816C5.51085 2.73434 5.59062 2.765 5.65197 2.82044C5.71332 2.87588 5.75188 2.95215 5.76015 3.03442C5.77548 3.18776 5.78948 3.30976 5.80281 3.40242C5.93529 4.32704 6.20679 5.22631 6.6081 6.06976C6.67143 6.20309 6.6301 6.36242 6.5101 6.44776L5.07152 7.47576C5.9511 9.52539 7.58441 11.1588 9.63393 12.0384L10.6605 10.6024C10.7025 10.5438 10.7637 10.5017 10.8335 10.4835C10.9033 10.4654 10.9773 10.4723 11.0425 10.5031C11.8858 10.9037 12.7848 11.1745 13.709 11.3064C13.8017 11.3198 13.9237 11.3338 14.0757 11.3491C14.1578 11.3575 14.2339 11.3961 14.2892 11.4575C14.3445 11.5188 14.3744 11.5985 14.3743 11.6811Z" />
</svg>
