<svg width="26" height="26" viewBox="0 0 26 26"  xmlns="http://www.w3.org/2000/svg">
<path d="M11.45 0.47368C8.41482 0.478765 5.50543 1.68594 3.35924 3.83072C1.21306 5.97549 0.00508829 8.88297 0 11.9161C0.00253668 14.9519 1.20907 17.8628 3.35526 20.0112C5.50145 22.1596 8.41227 23.3702 11.45 23.3778C14.1441 23.3778 16.6265 22.4307 18.5894 20.8634L23.357 25.6279C23.5985 25.8523 23.9177 25.9744 24.2474 25.9687C24.5772 25.9629 24.8919 25.8297 25.1254 25.5969C25.3589 25.3642 25.4931 25.0501 25.4997 24.7205C25.5064 24.391 25.385 24.0717 25.1611 23.8298L20.3935 19.0605C22.0218 17.0367 22.9095 14.5178 22.9096 11.9209C22.9096 5.61317 17.7619 0.47368 11.45 0.47368ZM11.45 3.02179C16.386 3.02179 20.3598 6.98819 20.3598 11.9161C20.3598 16.8441 16.386 20.8345 11.45 20.8345C6.51398 20.8345 2.54497 16.8585 2.54497 11.9258C2.54497 6.993 6.51398 3.02179 11.45 3.02179Z" />
</svg>
